<?xml version="1.0" encoding="utf-8"?>
<!-- Generator: Adobe Illustrator 22.1.0, SVG Export Plug-In . SVG Version: 6.00 Build 0)  -->
<svg version="1.1" id="Camada_1" xmlns="http://www.w3.org/2000/svg" xmlns:xlink="http://www.w3.org/1999/xlink" x="0px" y="0px"
	 viewBox="0 0 509.6 212.1" style="enable-background:new 0 0 509.6 212.1;" xml:space="preserve">
<style type="text/css">
	.st0{fill:none;stroke:#21559D;stroke-width:0.8564;stroke-miterlimit:10;stroke-dasharray:2.5711,2.5711;}
	.st1{fill:none;stroke:#21559D;stroke-width:0.5692;stroke-miterlimit:10;stroke-dasharray:1.7089,1.7089;}
	.st2{fill:none;stroke:#21559D;stroke-width:0.5692;stroke-miterlimit:10;stroke-dasharray:1.7077;}
	.st3{fill:#F7F2F2;}
	.st4{font-family:'Poppins-Regular';}
	.st5{font-size:12px;}
	.st6{fill:#21559D;}
	.st7{fill:#DFA12B;}
	.st8{fill:none;stroke:#21559D;stroke-width:1.292;stroke-linecap:round;stroke-linejoin:round;stroke-miterlimit:10;}
</style>
<g>
	<ellipse transform="matrix(0.2298 -0.9732 0.9732 0.2298 -3.5172 90.6712)" class="st0" cx="55.5" cy="47.6" rx="27.8" ry="27.8"/>
</g>
<g>
	<circle class="st1" cx="118.4" cy="148.4" r="18.5"/>
</g>
<g>
	<circle class="st1" cx="472.4" cy="49.7" r="18.5"/>
</g>
<path class="st2" d="M130.2,162.7c0,0,35.1,21.2,62.1-15.8s26-103,26-103s44.5-67.5,103.5,2.5c28.5,91.5,36.5,99.5,36.5,99.5
	s15.5,26,47,6.5S440,126,440,126"/>
<g>
	
		<image style="overflow:visible;opacity:0.44;" width="403" height="545" xlink:href="8932E113.png"  transform="matrix(0.24 0 0 0.24 40.3748 33.0071)">
	</image>
	<g>
		<path class="st3" d="M118.1,41.7H59.4c-5.7,0-10.3,4.6-10.3,10.3v92.7c0,5.7,4.6,10.3,10.3,10.3h58.7c5.7,0,10.3-4.6,10.3-10.3
			V52.1C128.4,46.4,123.8,41.7,118.1,41.7z"/>
	</g>
</g>
<g>
	
		<image style="overflow:visible;opacity:0.44;" width="403" height="545" xlink:href="8932E104.png"  transform="matrix(0.24 0 0 0.24 156.2948 33.0071)">
	</image>
	<g>
		<path class="st3" d="M234,41.7h-58.7c-5.7,0-10.3,4.6-10.3,10.3v92.7c0,5.7,4.6,10.3,10.3,10.3H234c5.7,0,10.3-4.6,10.3-10.3V52.1
			C244.4,46.4,239.7,41.7,234,41.7z"/>
	</g>
</g>
<g>
	
		<image style="overflow:visible;opacity:0.44;" width="402" height="545" xlink:href="8932E105.png"  transform="matrix(0.24 0 0 0.24 275.8148 33.0071)">
	</image>
	<g>
		<path class="st3" d="M353.4,41.7h-58.7c-5.7,0-10.3,4.6-10.3,10.3v92.7c0,5.7,4.6,10.3,10.3,10.3h58.7c5.7,0,10.3-4.6,10.3-10.3
			V52.1C363.7,46.4,359.1,41.7,353.4,41.7z"/>
	</g>
</g>
<g>
	
		<image style="overflow:visible;opacity:0.44;" width="403" height="545" xlink:href="8932E106.png"  transform="matrix(0.24 0 0 0.24 391.7348 33.0071)">
	</image>
	<g>
		<path class="st3" d="M469.4,41.7h-58.7c-5.7,0-10.3,4.6-10.3,10.3v92.7c0,5.7,4.6,10.3,10.3,10.3h58.7c5.7,0,10.3-4.6,10.3-10.3
			V52.1C479.7,46.4,475.1,41.7,469.4,41.7z"/>
	</g>
</g>
<text transform="matrix(1 0 0 1 60.8305 177.7244)" class="st4 st5">Cadastre-se</text>
<text transform="matrix(1 0 0 1 182.7358 177.7244)"><tspan x="0" y="0" class="st4 st5">Encontre o</tspan><tspan x="-13.4" y="14.4" class="st4 st5">motorista ideal</tspan></text>
<text transform="matrix(1 0 0 1 289.4343 177.7244)" class="st4 st5">Entre na turma</text>
<text transform="matrix(1 0 0 1 408.5818 174.2244)"><tspan x="0" y="0" class="st4 st5">Tenha acesso</tspan><tspan x="3.4" y="14.4" class="st4 st5">as melhores </tspan><tspan x="4.1" y="28.8" class="st4 st5">ferramentas</tspan></text>
<path class="st6" d="M111.1,118.4H66.3c-1.4,0-2.6-1.2-2.6-2.6v-5.5c0-1.4,1.2-2.6,2.6-2.6h44.8c1.4,0,2.6,1.2,2.6,2.6v5.5
	C113.7,117.2,112.5,118.4,111.1,118.4z"/>
<path class="st6" d="M462.9,88.5h-45.7c-4.3,0-7.8-3.5-7.8-7.8v-21c0-4.3,3.5-7.8,7.8-7.8h45.7c4.3,0,7.8,3.5,7.8,7.8v21
	C470.7,84.9,467.2,88.5,462.9,88.5z"/>
<path class="st7" d="M465.3,136.8h-50.5c-3,0-5.4-2.4-5.4-5.4v-13.5c0-3,2.4-5.4,5.4-5.4h50.5c3,0,5.4,2.4,5.4,5.4v13.5
	C470.7,134.4,468.3,136.8,465.3,136.8z"/>
<path class="st6" d="M423.6,108.8h-10.7c-1.9,0-3.5-1.6-3.5-3.5v-9.6c0-1.9,1.6-3.5,3.5-3.5h10.7c1.9,0,3.5,1.6,3.5,3.5v9.6
	C427.1,107.2,425.5,108.8,423.6,108.8z"/>
<path class="st7" d="M445.4,108.8h-10.7c-1.9,0-3.5-1.6-3.5-3.5v-9.6c0-1.9,1.6-3.5,3.5-3.5h10.7c1.9,0,3.5,1.6,3.5,3.5v9.6
	C448.9,107.2,447.3,108.8,445.4,108.8z"/>
<path class="st7" d="M467.2,108.8h-10.7c-1.9,0-3.5-1.6-3.5-3.5v-9.6c0-1.9,1.6-3.5,3.5-3.5h10.7c1.9,0,3.5,1.6,3.5,3.5v9.6
	C470.7,107.2,469.1,108.8,467.2,108.8z"/>
<path class="st6" d="M111.1,140.1H66.3c-1.4,0-2.6-1.2-2.6-2.6V132c0-1.4,1.2-2.6,2.6-2.6h44.8c1.4,0,2.6,1.2,2.6,2.6v5.5
	C113.7,138.9,112.5,140.1,111.1,140.1z"/>
<path class="st6" d="M345.2,142.4h-42c-1.4,0-2.6-1.2-2.6-2.6v-4.9c0-1.4,1.2-2.6,2.6-2.6h42c1.4,0,2.6,1.2,2.6,2.6v4.9
	C347.8,141.2,346.7,142.4,345.2,142.4z"/>
<path class="st6" d="M469.3,146.3h-15.7c-0.5,0-0.9-0.4-0.9-0.9v-3.2c0-0.5,0.4-0.9,0.9-0.9h15.7c0.5,0,0.9,0.4,0.9,0.9v3.2
	C470.2,145.9,469.8,146.3,469.3,146.3z"/>
<circle class="st7" cx="88.7" cy="72.7" r="17"/>
<g>
	<circle class="st6" cx="308.3" cy="62.5" r="10.1"/>
	<circle class="st7" cx="308.3" cy="89.1" r="10.1"/>
	<circle class="st7" cx="308.3" cy="115.8" r="10.1"/>
	<circle class="st6" cx="340.1" cy="89.1" r="10.1"/>
	<circle class="st7" cx="340.1" cy="115.8" r="10.1"/>
	<circle class="st7" cx="340.1" cy="62.5" r="10.1"/>
</g>
<g>
	<path class="st7" d="M230.4,78.1h-34.2c-1.4,0-2.6-1.2-2.6-2.6V63.3c0-1.4,1.2-2.6,2.6-2.6h34.2c1.4,0,2.6,1.2,2.6,2.6v12.2
		C233,76.9,231.9,78.1,230.4,78.1z"/>
	<path class="st7" d="M230.4,106.2h-34.2c-1.4,0-2.6-1.2-2.6-2.6V91.5c0-1.4,1.2-2.6,2.6-2.6h34.2c1.4,0,2.6,1.2,2.6,2.6v12.2
		C233,105.1,231.9,106.2,230.4,106.2z"/>
	<path class="st7" d="M230.4,134.1h-34.2c-1.4,0-2.6-1.2-2.6-2.6v-12.2c0-1.4,1.2-2.6,2.6-2.6h34.2c1.4,0,2.6,1.2,2.6,2.6v12.2
		C233,133,231.9,134.1,230.4,134.1z"/>
	<circle class="st6" cx="181.4" cy="69.7" r="9"/>
	<circle class="st6" cx="181.4" cy="97.6" r="9"/>
	<circle class="st6" cx="181.4" cy="125.5" r="9"/>
</g>
<polyline class="st8" points="160.9,172.7 165.1,168.5 160.5,163.9 "/>
<polyline class="st8" points="263.8,18.9 268,14.7 263.5,10.2 "/>
<polyline class="st8" points="380.4,163.9 384.6,159.7 380,155.2 "/>
</svg>
