<?xml version="1.0" encoding="utf-8"?>
<!-- Generator: Adobe Illustrator 22.1.0, SVG Export Plug-In . SVG Version: 6.00 Build 0)  -->
<svg version="1.1" id="Camada_1" xmlns="http://www.w3.org/2000/svg" xmlns:xlink="http://www.w3.org/1999/xlink" x="0px" y="0px"
	 viewBox="0 0 509.6 212.1" style="enable-background:new 0 0 509.6 212.1;" xml:space="preserve">
<style type="text/css">
	.st0{fill:none;stroke:#DFA12B;stroke-width:0.8564;stroke-miterlimit:10;stroke-dasharray:2.5711,2.5711;}
	.st1{fill:none;stroke:#DFA12B;stroke-width:0.5692;stroke-miterlimit:10;stroke-dasharray:1.7089,1.7089;}
	.st2{fill:none;stroke:#DFA12B;stroke-width:0.5692;stroke-miterlimit:10;stroke-dasharray:1.7077;}
	.st3{fill:#FFFFFF;}
	.st4{enable-background:new    ;}
	.st5{fill:#21559D;}
	.st6{fill:#DFA12B;}
	.st7{fill:none;stroke:#DFA12B;stroke-width:1.292;stroke-linecap:round;stroke-linejoin:round;stroke-miterlimit:10;}
</style>
<g>
	<ellipse class="st0" cx="55.6" cy="47.6" rx="27.8" ry="27.8"/>
</g>
<g>
	<circle class="st1" cx="118.4" cy="148.4" r="18.5"/>
</g>
<g>
	<circle class="st1" cx="472.4" cy="49.7" r="18.5"/>
</g>
<path class="st2" d="M130.2,162.7c0,0,35.1,21.2,62.1-15.8s26-103,26-103s44.5-67.5,103.5,2.5c28.5,91.5,36.5,99.5,36.5,99.5
	s15.5,26,47,6.5S440,126,440,126"/>
<g>
	<g>
		<path class="st3" d="M118.1,41.7H59.4c-5.7,0-10.3,4.6-10.3,10.3v92.7c0,5.7,4.6,10.3,10.3,10.3h58.7c5.7,0,10.3-4.6,10.3-10.3
			V52.1C128.4,46.4,123.8,41.7,118.1,41.7z"/>
	</g>
</g>
<g>
	<g>
		<path class="st3" d="M234,41.7h-58.7c-5.7,0-10.3,4.6-10.3,10.3v92.7c0,5.7,4.6,10.3,10.3,10.3H234c5.7,0,10.3-4.6,10.3-10.3V52.1
			C244.4,46.4,239.7,41.7,234,41.7z"/>
	</g>
</g>
<g>
	<g>
		<path class="st3" d="M353.4,41.7h-58.7c-5.7,0-10.3,4.6-10.3,10.3v92.7c0,5.7,4.6,10.3,10.3,10.3h58.7c5.7,0,10.3-4.6,10.3-10.3
			V52.1C363.7,46.4,359.1,41.7,353.4,41.7z"/>
	</g>
</g>
<g>
	<g>
		<path class="st3" d="M469.4,41.7h-58.7c-5.7,0-10.3,4.6-10.3,10.3v92.7c0,5.7,4.6,10.3,10.3,10.3h58.7c5.7,0,10.3-4.6,10.3-10.3
			V52.1C479.7,46.4,475.1,41.7,469.4,41.7z"/>
	</g>
</g>
<g>
	<path class="st3" d="M64,172.8c0.5,0.4,0.9,1,1.1,1.7h-0.9c-0.2-0.4-0.5-0.8-0.8-1.1c-0.4-0.3-0.9-0.4-1.4-0.4
		c-0.4,0-0.8,0.1-1.2,0.3c-0.3,0.2-0.6,0.5-0.8,0.9c-0.2,0.4-0.3,0.9-0.3,1.4c0,0.5,0.1,1,0.3,1.4c0.2,0.4,0.5,0.7,0.8,0.9
		c0.3,0.2,0.7,0.3,1.2,0.3c0.6,0,1-0.1,1.4-0.4s0.7-0.6,0.8-1.1h0.9c-0.2,0.7-0.6,1.3-1.1,1.7c-0.5,0.4-1.2,0.6-2,0.6
		c-0.6,0-1.2-0.1-1.7-0.4c-0.5-0.3-0.9-0.7-1.1-1.2c-0.3-0.5-0.4-1.1-0.4-1.8c0-0.7,0.1-1.3,0.4-1.8c0.3-0.5,0.7-0.9,1.1-1.2
		c0.5-0.3,1-0.4,1.7-0.4C62.8,172.2,63.5,172.4,64,172.8z"/>
	<path class="st3" d="M69.7,174.1c0.4,0.3,0.6,0.6,0.7,1v-1.3h0.9v5.3h-0.9v-1.3c-0.1,0.4-0.4,0.8-0.7,1c-0.4,0.3-0.8,0.4-1.3,0.4
		c-0.5,0-0.9-0.1-1.2-0.3c-0.4-0.2-0.7-0.5-0.9-0.9s-0.3-0.9-0.3-1.4c0-0.6,0.1-1,0.3-1.4c0.2-0.4,0.5-0.7,0.9-0.9
		c0.4-0.2,0.8-0.3,1.2-0.3C68.9,173.7,69.4,173.8,69.7,174.1z M67.4,175c-0.3,0.3-0.5,0.8-0.5,1.4c0,0.6,0.2,1.1,0.5,1.4
		c0.3,0.3,0.8,0.5,1.3,0.5c0.3,0,0.7-0.1,0.9-0.2c0.3-0.2,0.5-0.4,0.6-0.7c0.2-0.3,0.2-0.6,0.2-1c0-0.4-0.1-0.7-0.2-1
		c-0.2-0.3-0.4-0.5-0.6-0.7c-0.3-0.2-0.6-0.2-0.9-0.2C68.1,174.5,67.7,174.6,67.4,175z"/>
	<path class="st3" d="M76.2,174.1c0.4,0.3,0.6,0.6,0.7,1v-3.2h0.9v7.1H77v-1.3c-0.1,0.4-0.4,0.8-0.7,1c-0.4,0.3-0.8,0.4-1.3,0.4
		c-0.5,0-0.9-0.1-1.2-0.3c-0.4-0.2-0.7-0.5-0.9-0.9c-0.2-0.4-0.3-0.9-0.3-1.4c0-0.6,0.1-1,0.3-1.4c0.2-0.4,0.5-0.7,0.9-0.9
		c0.4-0.2,0.8-0.3,1.2-0.3C75.4,173.7,75.9,173.8,76.2,174.1z M73.9,175c-0.3,0.3-0.5,0.8-0.5,1.4c0,0.6,0.2,1.1,0.5,1.4
		c0.3,0.3,0.8,0.5,1.3,0.5c0.3,0,0.7-0.1,0.9-0.2c0.3-0.2,0.5-0.4,0.6-0.7c0.2-0.3,0.2-0.6,0.2-1c0-0.4-0.1-0.7-0.2-1
		c-0.2-0.3-0.4-0.5-0.6-0.7c-0.3-0.2-0.6-0.2-0.9-0.2C74.6,174.5,74.2,174.6,73.9,175z"/>
	<path class="st3" d="M82.7,174.1c0.4,0.3,0.6,0.6,0.7,1v-1.3h0.9v5.3h-0.9v-1.3c-0.1,0.4-0.4,0.8-0.7,1c-0.4,0.3-0.8,0.4-1.3,0.4
		c-0.5,0-0.9-0.1-1.2-0.3c-0.4-0.2-0.7-0.5-0.9-0.9c-0.2-0.4-0.3-0.9-0.3-1.4c0-0.6,0.1-1,0.3-1.4c0.2-0.4,0.5-0.7,0.9-0.9
		c0.4-0.2,0.8-0.3,1.2-0.3C81.9,173.7,82.3,173.8,82.7,174.1z M80.3,175c-0.3,0.3-0.5,0.8-0.5,1.4c0,0.6,0.2,1.1,0.5,1.4
		c0.3,0.3,0.8,0.5,1.3,0.5c0.3,0,0.7-0.1,0.9-0.2c0.3-0.2,0.5-0.4,0.6-0.7c0.2-0.3,0.2-0.6,0.2-1c0-0.4-0.1-0.7-0.2-1
		c-0.2-0.3-0.4-0.5-0.6-0.7c-0.3-0.2-0.6-0.2-0.9-0.2C81.1,174.5,80.7,174.6,80.3,175z"/>
	<path class="st3" d="M88.8,174.1c0.4,0.3,0.6,0.7,0.7,1.3h-0.8c0-0.3-0.2-0.6-0.4-0.8c-0.2-0.2-0.5-0.3-0.9-0.3
		c-0.3,0-0.6,0.1-0.7,0.2c-0.2,0.2-0.3,0.4-0.3,0.6c0,0.2,0.1,0.3,0.2,0.5c0.1,0.1,0.3,0.2,0.4,0.3c0.2,0.1,0.4,0.1,0.7,0.2
		c0.4,0.1,0.7,0.2,0.9,0.3c0.2,0.1,0.4,0.2,0.6,0.4c0.2,0.2,0.3,0.5,0.3,0.8c0,0.4-0.2,0.8-0.5,1c-0.3,0.3-0.8,0.4-1.3,0.4
		c-0.6,0-1.1-0.2-1.5-0.5c-0.4-0.3-0.6-0.7-0.7-1.3h0.8c0,0.3,0.2,0.6,0.4,0.8c0.2,0.2,0.6,0.3,1,0.3c0.3,0,0.5-0.1,0.7-0.2
		c0.2-0.2,0.3-0.4,0.3-0.6c0-0.2-0.1-0.4-0.2-0.5c-0.1-0.1-0.3-0.2-0.5-0.3c-0.2-0.1-0.4-0.1-0.7-0.2c-0.4-0.1-0.7-0.2-0.9-0.3
		c-0.2-0.1-0.4-0.2-0.6-0.4c-0.2-0.2-0.2-0.5-0.2-0.8c0-0.4,0.2-0.8,0.5-1.1c0.3-0.3,0.8-0.4,1.3-0.4
		C87.9,173.7,88.4,173.8,88.8,174.1z"/>
	<path class="st3" d="M93.2,178.2v0.8h-0.7c-0.5,0-0.9-0.1-1.2-0.4c-0.3-0.3-0.4-0.7-0.4-1.3v-2.8h-0.8v-0.8h0.8v-1.3h0.9v1.3h1.4
		v0.8h-1.4v2.9c0,0.3,0.1,0.6,0.2,0.7c0.1,0.1,0.3,0.2,0.6,0.2H93.2z"/>
	<path class="st3" d="M95.9,174c0.3-0.2,0.7-0.3,1.2-0.3v1h-0.3c-0.5,0-0.9,0.1-1.2,0.4c-0.3,0.3-0.5,0.7-0.5,1.3v2.8h-0.9v-5.3h0.9
		v1.1C95.3,174.4,95.5,174.2,95.9,174z"/>
	<path class="st3" d="M102.7,176.6h-4.2c0,0.6,0.2,1.1,0.5,1.4c0.3,0.3,0.7,0.5,1.2,0.5c0.4,0,0.8-0.1,1.1-0.3
		c0.3-0.2,0.5-0.5,0.5-0.9h0.9c-0.1,0.4-0.2,0.7-0.4,1c-0.2,0.3-0.5,0.5-0.9,0.7s-0.7,0.2-1.2,0.2c-0.5,0-1-0.1-1.3-0.3
		c-0.4-0.2-0.7-0.5-0.9-0.9c-0.2-0.4-0.3-0.9-0.3-1.4c0-0.6,0.1-1,0.3-1.4c0.2-0.4,0.5-0.7,0.9-0.9c0.4-0.2,0.8-0.3,1.3-0.3
		c0.5,0,1,0.1,1.3,0.3c0.4,0.2,0.7,0.5,0.9,0.9c0.2,0.4,0.3,0.8,0.3,1.2C102.8,176.3,102.8,176.4,102.7,176.6z M101.7,175.2
		c-0.1-0.3-0.3-0.5-0.6-0.6c-0.3-0.1-0.5-0.2-0.8-0.2c-0.5,0-0.9,0.1-1.2,0.4c-0.3,0.3-0.5,0.7-0.5,1.3h3.4
		C101.9,175.8,101.8,175.4,101.7,175.2z"/>
	<path class="st3" d="M106.9,175.1v0.7h-3.8v-0.7H106.9z"/>
	<path class="st3" d="M111.7,174.1c0.4,0.3,0.6,0.7,0.7,1.3h-0.8c0-0.3-0.2-0.6-0.4-0.8c-0.2-0.2-0.5-0.3-0.9-0.3
		c-0.3,0-0.6,0.1-0.7,0.2c-0.2,0.2-0.3,0.4-0.3,0.6c0,0.2,0.1,0.3,0.2,0.5c0.1,0.1,0.3,0.2,0.4,0.3c0.2,0.1,0.4,0.1,0.7,0.2
		c0.4,0.1,0.7,0.2,0.9,0.3c0.2,0.1,0.4,0.2,0.6,0.4c0.2,0.2,0.3,0.5,0.3,0.8c0,0.4-0.2,0.8-0.5,1c-0.3,0.3-0.8,0.4-1.3,0.4
		c-0.6,0-1.1-0.2-1.5-0.5c-0.4-0.3-0.6-0.7-0.7-1.3h0.8c0,0.3,0.2,0.6,0.4,0.8c0.2,0.2,0.6,0.3,1,0.3c0.3,0,0.5-0.1,0.7-0.2
		c0.2-0.2,0.3-0.4,0.3-0.6c0-0.2-0.1-0.4-0.2-0.5c-0.1-0.1-0.3-0.2-0.5-0.3c-0.2-0.1-0.4-0.1-0.7-0.2c-0.4-0.1-0.7-0.2-0.9-0.3
		c-0.2-0.1-0.4-0.2-0.6-0.4c-0.2-0.2-0.2-0.5-0.2-0.8c0-0.4,0.2-0.8,0.5-1.1c0.3-0.3,0.8-0.4,1.3-0.4
		C110.9,173.7,111.4,173.8,111.7,174.1z"/>
	<path class="st3" d="M118.4,176.6h-4.2c0,0.6,0.2,1.1,0.5,1.4c0.3,0.3,0.7,0.5,1.2,0.5c0.4,0,0.8-0.1,1.1-0.3
		c0.3-0.2,0.5-0.5,0.5-0.9h0.9c-0.1,0.4-0.2,0.7-0.4,1c-0.2,0.3-0.5,0.5-0.9,0.7s-0.7,0.2-1.2,0.2c-0.5,0-1-0.1-1.3-0.3
		c-0.4-0.2-0.7-0.5-0.9-0.9c-0.2-0.4-0.3-0.9-0.3-1.4c0-0.6,0.1-1,0.3-1.4c0.2-0.4,0.5-0.7,0.9-0.9c0.4-0.2,0.8-0.3,1.3-0.3
		c0.5,0,1,0.1,1.3,0.3c0.4,0.2,0.7,0.5,0.9,0.9c0.2,0.4,0.3,0.8,0.3,1.2C118.4,176.3,118.4,176.4,118.4,176.6z M117.4,175.2
		c-0.1-0.3-0.3-0.5-0.6-0.6c-0.3-0.1-0.5-0.2-0.8-0.2c-0.5,0-0.9,0.1-1.2,0.4c-0.3,0.3-0.5,0.7-0.5,1.3h3.4
		C117.6,175.8,117.5,175.4,117.4,175.2z"/>
</g>
<g>
	<g class="st4">
		<path class="st3" d="M180.8,173v2.3h2.6v0.7h-2.6v2.4h2.9v0.7h-3.7v-6.8h3.7v0.7H180.8z"/>
		<path class="st3" d="M189.1,174.2c0.4,0.4,0.6,1,0.6,1.7v3.1h-0.9v-3c0-0.5-0.1-0.9-0.4-1.2c-0.3-0.3-0.6-0.4-1.1-0.4
			c-0.5,0-0.9,0.2-1.2,0.5c-0.3,0.3-0.4,0.8-0.4,1.4v2.8h-0.9v-5.3h0.9v1.2c0.1-0.4,0.4-0.8,0.7-1c0.3-0.2,0.7-0.3,1.2-0.3
			C188.2,173.7,188.7,173.9,189.1,174.2z"/>
		<path class="st3" d="M195,174.2c0.4,0.4,0.7,0.8,0.8,1.4h-0.9c-0.1-0.4-0.2-0.7-0.5-0.9c-0.3-0.2-0.6-0.3-1.1-0.3
			c-0.3,0-0.6,0.1-0.8,0.2c-0.3,0.1-0.5,0.4-0.6,0.6c-0.2,0.3-0.2,0.7-0.2,1.1s0.1,0.8,0.2,1.1c0.2,0.3,0.4,0.5,0.6,0.6
			c0.3,0.1,0.5,0.2,0.8,0.2c0.4,0,0.8-0.1,1.1-0.3c0.3-0.2,0.5-0.5,0.5-0.9h0.9c-0.1,0.6-0.4,1.1-0.8,1.4c-0.4,0.4-1,0.5-1.7,0.5
			c-0.5,0-1-0.1-1.3-0.3c-0.4-0.2-0.7-0.5-0.9-0.9c-0.2-0.4-0.3-0.9-0.3-1.4c0-0.6,0.1-1,0.3-1.4c0.2-0.4,0.5-0.7,0.9-0.9
			c0.4-0.2,0.8-0.3,1.3-0.3C194,173.7,194.5,173.9,195,174.2z"/>
		<path class="st3" d="M200.7,174c0.4,0.2,0.7,0.5,0.9,0.9c0.2,0.4,0.3,0.9,0.3,1.4c0,0.6-0.1,1-0.3,1.4c-0.2,0.4-0.5,0.7-0.9,0.9
			c-0.4,0.2-0.9,0.3-1.4,0.3c-0.5,0-1-0.1-1.4-0.3c-0.4-0.2-0.7-0.5-0.9-0.9s-0.3-0.9-0.3-1.4c0-0.6,0.1-1,0.3-1.4
			c0.2-0.4,0.5-0.7,0.9-0.9c0.4-0.2,0.9-0.3,1.4-0.3C199.8,173.7,200.3,173.8,200.7,174z M198.5,174.7c-0.3,0.1-0.5,0.4-0.6,0.6
			c-0.2,0.3-0.2,0.7-0.2,1.1c0,0.4,0.1,0.8,0.2,1.1c0.2,0.3,0.4,0.5,0.6,0.6s0.6,0.2,0.9,0.2c0.3,0,0.6-0.1,0.9-0.2
			c0.3-0.1,0.5-0.4,0.6-0.6c0.2-0.3,0.2-0.6,0.2-1.1c0-0.4-0.1-0.8-0.2-1.1c-0.2-0.3-0.4-0.5-0.6-0.6c-0.3-0.1-0.6-0.2-0.9-0.2
			C199,174.4,198.7,174.5,198.5,174.7z"/>
		<path class="st3" d="M207.4,174.2c0.4,0.4,0.6,1,0.6,1.7v3.1h-0.9v-3c0-0.5-0.1-0.9-0.4-1.2c-0.3-0.3-0.6-0.4-1.1-0.4
			c-0.5,0-0.9,0.2-1.2,0.5c-0.3,0.3-0.4,0.8-0.4,1.4v2.8h-0.9v-5.3h0.9v1.2c0.1-0.4,0.4-0.8,0.7-1c0.3-0.2,0.7-0.3,1.2-0.3
			C206.5,173.7,207,173.9,207.4,174.2z"/>
		<path class="st3" d="M211.8,178.2v0.8h-0.7c-0.5,0-0.9-0.1-1.2-0.4c-0.3-0.3-0.4-0.7-0.4-1.3v-2.8h-0.8v-0.8h0.8v-1.3h0.9v1.3h1.4
			v0.8h-1.4v2.9c0,0.3,0.1,0.6,0.2,0.7c0.1,0.1,0.3,0.2,0.6,0.2H211.8z"/>
		<path class="st3" d="M214.5,174c0.3-0.2,0.7-0.3,1.2-0.3v1h-0.3c-0.5,0-0.9,0.1-1.2,0.4c-0.3,0.3-0.5,0.7-0.5,1.3v2.8h-0.9v-5.3
			h0.9v1.1C213.9,174.4,214.2,174.2,214.5,174z"/>
		<path class="st3" d="M221.4,176.6h-4.2c0,0.6,0.2,1.1,0.5,1.4c0.3,0.3,0.7,0.5,1.2,0.5c0.4,0,0.8-0.1,1.1-0.3
			c0.3-0.2,0.5-0.5,0.5-0.9h0.9c-0.1,0.4-0.2,0.7-0.4,1c-0.2,0.3-0.5,0.5-0.9,0.7c-0.4,0.2-0.7,0.2-1.2,0.2c-0.5,0-1-0.1-1.3-0.3
			c-0.4-0.2-0.7-0.5-0.9-0.9c-0.2-0.4-0.3-0.9-0.3-1.4c0-0.6,0.1-1,0.3-1.4c0.2-0.4,0.5-0.7,0.9-0.9c0.4-0.2,0.8-0.3,1.3-0.3
			c0.5,0,1,0.1,1.3,0.3c0.4,0.2,0.7,0.5,0.9,0.9c0.2,0.4,0.3,0.8,0.3,1.2C221.4,176.3,221.4,176.4,221.4,176.6z M220.3,175.2
			c-0.1-0.3-0.3-0.5-0.6-0.6c-0.3-0.1-0.5-0.2-0.8-0.2c-0.5,0-0.9,0.1-1.2,0.4c-0.3,0.3-0.5,0.7-0.5,1.3h3.4
			C220.5,175.8,220.5,175.4,220.3,175.2z"/>
		<path class="st3" d="M228.7,174c0.4,0.2,0.7,0.5,0.9,0.9c0.2,0.4,0.3,0.9,0.3,1.4c0,0.6-0.1,1-0.3,1.4c-0.2,0.4-0.5,0.7-0.9,0.9
			c-0.4,0.2-0.9,0.3-1.4,0.3c-0.5,0-1-0.1-1.4-0.3c-0.4-0.2-0.7-0.5-0.9-0.9s-0.3-0.9-0.3-1.4c0-0.6,0.1-1,0.3-1.4
			c0.2-0.4,0.5-0.7,0.9-0.9c0.4-0.2,0.9-0.3,1.4-0.3C227.8,173.7,228.3,173.8,228.7,174z M226.4,174.7c-0.3,0.1-0.5,0.4-0.6,0.6
			c-0.2,0.3-0.2,0.7-0.2,1.1c0,0.4,0.1,0.8,0.2,1.1c0.2,0.3,0.4,0.5,0.6,0.6c0.3,0.1,0.6,0.2,0.9,0.2c0.3,0,0.6-0.1,0.9-0.2
			c0.3-0.1,0.5-0.4,0.6-0.6c0.2-0.3,0.2-0.6,0.2-1.1c0-0.4-0.1-0.8-0.2-1.1c-0.2-0.3-0.4-0.5-0.6-0.6c-0.3-0.1-0.6-0.2-0.9-0.2
			C227,174.4,226.7,174.5,226.4,174.7z"/>
	</g>
	<g class="st4">
		<path class="st3" d="M177.2,185.8c0.4,0.4,0.6,1,0.6,1.7v3.1h-0.9v-3c0-0.5-0.1-0.9-0.4-1.2c-0.3-0.3-0.6-0.4-1-0.4
			c-0.5,0-0.8,0.2-1.1,0.5c-0.3,0.3-0.4,0.8-0.4,1.3v2.8h-0.9v-3c0-0.5-0.1-0.9-0.4-1.2c-0.3-0.3-0.6-0.4-1-0.4
			c-0.5,0-0.8,0.2-1.1,0.5c-0.3,0.3-0.4,0.8-0.4,1.3v2.8h-0.9v-5.3h0.9v1.2c0.1-0.4,0.4-0.7,0.7-1c0.3-0.2,0.7-0.3,1.1-0.3
			c0.4,0,0.8,0.1,1.2,0.3c0.3,0.2,0.6,0.6,0.7,1c0.1-0.4,0.4-0.8,0.7-1c0.3-0.2,0.7-0.4,1.2-0.4
			C176.3,185.2,176.8,185.4,177.2,185.8z"/>
		<path class="st3" d="M182.9,185.5c0.4,0.2,0.7,0.5,0.9,0.9c0.2,0.4,0.3,0.9,0.3,1.4c0,0.6-0.1,1-0.3,1.4c-0.2,0.4-0.5,0.7-0.9,0.9
			c-0.4,0.2-0.9,0.3-1.4,0.3c-0.5,0-1-0.1-1.4-0.3c-0.4-0.2-0.7-0.5-0.9-0.9c-0.2-0.4-0.3-0.9-0.3-1.4c0-0.6,0.1-1,0.3-1.4
			c0.2-0.4,0.5-0.7,0.9-0.9c0.4-0.2,0.9-0.3,1.4-0.3C182,185.2,182.5,185.3,182.9,185.5z M180.6,186.2c-0.3,0.1-0.5,0.4-0.6,0.6
			s-0.2,0.7-0.2,1.1c0,0.4,0.1,0.8,0.2,1.1c0.2,0.3,0.4,0.5,0.6,0.6c0.3,0.1,0.6,0.2,0.9,0.2c0.3,0,0.6-0.1,0.9-0.2
			c0.3-0.1,0.5-0.4,0.6-0.6c0.2-0.3,0.2-0.6,0.2-1.1c0-0.4-0.1-0.8-0.2-1.1s-0.4-0.5-0.6-0.6c-0.3-0.1-0.6-0.2-0.9-0.2
			C181.2,186,180.9,186,180.6,186.2z"/>
		<path class="st3" d="M187.8,189.8v0.8h-0.7c-0.5,0-0.9-0.1-1.2-0.4c-0.3-0.3-0.4-0.7-0.4-1.3V186h-0.8v-0.8h0.8v-1.3h0.9v1.3h1.4
			v0.8h-1.4v2.9c0,0.3,0.1,0.6,0.2,0.7c0.1,0.1,0.3,0.2,0.6,0.2H187.8z"/>
		<path class="st3" d="M192.6,185.5c0.4,0.2,0.7,0.5,0.9,0.9c0.2,0.4,0.3,0.9,0.3,1.4c0,0.6-0.1,1-0.3,1.4c-0.2,0.4-0.5,0.7-0.9,0.9
			c-0.4,0.2-0.9,0.3-1.4,0.3c-0.5,0-1-0.1-1.4-0.3c-0.4-0.2-0.7-0.5-0.9-0.9c-0.2-0.4-0.3-0.9-0.3-1.4c0-0.6,0.1-1,0.3-1.4
			c0.2-0.4,0.5-0.7,0.9-0.9c0.4-0.2,0.9-0.3,1.4-0.3C191.8,185.2,192.2,185.3,192.6,185.5z M190.4,186.2c-0.3,0.1-0.5,0.4-0.6,0.6
			s-0.2,0.7-0.2,1.1c0,0.4,0.1,0.8,0.2,1.1c0.2,0.3,0.4,0.5,0.6,0.6c0.3,0.1,0.6,0.2,0.9,0.2c0.3,0,0.6-0.1,0.9-0.2
			c0.3-0.1,0.5-0.4,0.6-0.6c0.2-0.3,0.2-0.6,0.2-1.1c0-0.4-0.1-0.8-0.2-1.1s-0.4-0.5-0.6-0.6c-0.3-0.1-0.6-0.2-0.9-0.2
			C190.9,186,190.6,186,190.4,186.2z"/>
		<path class="st3" d="M196.7,185.5c0.3-0.2,0.7-0.3,1.2-0.3v1h-0.3c-0.5,0-0.9,0.1-1.2,0.4c-0.3,0.3-0.5,0.7-0.5,1.3v2.8H195v-5.3
			h0.9v1.1C196.1,186,196.3,185.7,196.7,185.5z"/>
		<path class="st3" d="M198.7,183.3c0.1-0.1,0.3-0.1,0.4-0.1c0.2,0,0.3,0.1,0.4,0.1c0.1,0.1,0.2,0.2,0.2,0.4c0,0.2-0.1,0.3-0.2,0.4
			c-0.1,0.1-0.3,0.1-0.4,0.1c-0.2,0-0.3-0.1-0.4-0.1c-0.1-0.1-0.2-0.2-0.2-0.4C198.6,183.6,198.6,183.4,198.7,183.3z M199.6,185.3
			v5.3h-0.9v-5.3H199.6z"/>
		<path class="st3" d="M204.1,185.7c0.4,0.3,0.6,0.7,0.7,1.3h-0.8c0-0.3-0.2-0.6-0.4-0.8c-0.2-0.2-0.5-0.3-0.9-0.3
			c-0.3,0-0.6,0.1-0.7,0.2c-0.2,0.2-0.3,0.4-0.3,0.6c0,0.2,0.1,0.3,0.2,0.5c0.1,0.1,0.3,0.2,0.4,0.3c0.2,0.1,0.4,0.1,0.7,0.2
			c0.4,0.1,0.7,0.2,0.9,0.3c0.2,0.1,0.4,0.2,0.6,0.4c0.2,0.2,0.3,0.5,0.3,0.8c0,0.4-0.2,0.8-0.5,1c-0.3,0.3-0.8,0.4-1.3,0.4
			c-0.6,0-1.1-0.2-1.5-0.5c-0.4-0.3-0.6-0.7-0.7-1.3h0.8c0,0.3,0.2,0.6,0.4,0.8c0.2,0.2,0.6,0.3,1,0.3c0.3,0,0.5-0.1,0.7-0.2
			c0.2-0.2,0.3-0.4,0.3-0.6c0-0.2-0.1-0.4-0.2-0.5c-0.1-0.1-0.3-0.2-0.5-0.3c-0.2-0.1-0.4-0.1-0.7-0.2c-0.4-0.1-0.7-0.2-0.9-0.3
			c-0.2-0.1-0.4-0.2-0.6-0.4c-0.2-0.2-0.2-0.5-0.2-0.8c0-0.4,0.2-0.8,0.5-1.1c0.3-0.3,0.8-0.4,1.3-0.4
			C203.2,185.2,203.7,185.4,204.1,185.7z"/>
		<path class="st3" d="M208.5,189.8v0.8h-0.7c-0.5,0-0.9-0.1-1.2-0.4c-0.3-0.3-0.4-0.7-0.4-1.3V186h-0.8v-0.8h0.8v-1.3h0.9v1.3h1.4
			v0.8h-1.4v2.9c0,0.3,0.1,0.6,0.2,0.7c0.1,0.1,0.3,0.2,0.6,0.2H208.5z"/>
		<path class="st3" d="M213,185.6c0.4,0.3,0.6,0.6,0.7,1v-1.3h0.9v5.3h-0.9v-1.3c-0.1,0.4-0.4,0.8-0.7,1c-0.4,0.3-0.8,0.4-1.3,0.4
			c-0.5,0-0.9-0.1-1.2-0.3c-0.4-0.2-0.7-0.5-0.9-0.9c-0.2-0.4-0.3-0.9-0.3-1.4c0-0.6,0.1-1,0.3-1.4c0.2-0.4,0.5-0.7,0.9-0.9
			c0.4-0.2,0.8-0.3,1.2-0.3C212.2,185.2,212.6,185.3,213,185.6z M210.7,186.5c-0.3,0.3-0.5,0.8-0.5,1.4c0,0.6,0.2,1.1,0.5,1.4
			c0.3,0.3,0.8,0.5,1.3,0.5c0.3,0,0.7-0.1,0.9-0.2c0.3-0.2,0.5-0.4,0.6-0.7c0.2-0.3,0.2-0.6,0.2-1c0-0.4-0.1-0.7-0.2-1
			c-0.2-0.3-0.4-0.5-0.6-0.7c-0.3-0.2-0.6-0.2-0.9-0.2C211.4,186,211,186.1,210.7,186.5z"/>
		<path class="st3" d="M218.4,183.3c0.1-0.1,0.3-0.1,0.4-0.1c0.2,0,0.3,0.1,0.4,0.1c0.1,0.1,0.2,0.2,0.2,0.4c0,0.2-0.1,0.3-0.2,0.4
			c-0.1,0.1-0.3,0.1-0.4,0.1c-0.2,0-0.3-0.1-0.4-0.1c-0.1-0.1-0.2-0.2-0.2-0.4C218.2,183.6,218.3,183.4,218.4,183.3z M219.3,185.3
			v5.3h-0.9v-5.3H219.3z"/>
		<path class="st3" d="M224.1,185.6c0.4,0.3,0.6,0.6,0.7,1v-3.2h0.9v7.1h-0.9v-1.3c-0.1,0.4-0.4,0.8-0.7,1c-0.4,0.3-0.8,0.4-1.3,0.4
			c-0.5,0-0.9-0.1-1.2-0.3c-0.4-0.2-0.7-0.5-0.9-0.9c-0.2-0.4-0.3-0.9-0.3-1.4c0-0.6,0.1-1,0.3-1.4c0.2-0.4,0.5-0.7,0.9-0.9
			c0.4-0.2,0.8-0.3,1.2-0.3C223.3,185.2,223.8,185.3,224.1,185.6z M221.8,186.5c-0.3,0.3-0.5,0.8-0.5,1.4c0,0.6,0.2,1.1,0.5,1.4
			c0.3,0.3,0.8,0.5,1.3,0.5c0.3,0,0.7-0.1,0.9-0.2c0.3-0.2,0.5-0.4,0.6-0.7c0.2-0.3,0.2-0.6,0.2-1c0-0.4-0.1-0.7-0.2-1
			c-0.2-0.3-0.4-0.5-0.6-0.7c-0.3-0.2-0.6-0.2-0.9-0.2C222.5,186,222.1,186.1,221.8,186.5z"/>
		<path class="st3" d="M231.9,188.1h-4.2c0,0.6,0.2,1.1,0.5,1.4c0.3,0.3,0.7,0.5,1.2,0.5c0.4,0,0.8-0.1,1.1-0.3
			c0.3-0.2,0.5-0.5,0.5-0.9h0.9c-0.1,0.4-0.2,0.7-0.4,1c-0.2,0.3-0.5,0.5-0.9,0.7c-0.4,0.2-0.7,0.2-1.2,0.2c-0.5,0-1-0.1-1.3-0.3
			c-0.4-0.2-0.7-0.5-0.9-0.9c-0.2-0.4-0.3-0.9-0.3-1.4c0-0.6,0.1-1,0.3-1.4c0.2-0.4,0.5-0.7,0.9-0.9c0.4-0.2,0.8-0.3,1.3-0.3
			c0.5,0,1,0.1,1.3,0.3c0.4,0.2,0.7,0.5,0.9,0.9c0.2,0.4,0.3,0.8,0.3,1.2C232,187.8,232,188,231.9,188.1z M230.9,186.7
			c-0.1-0.3-0.3-0.5-0.6-0.6c-0.3-0.1-0.5-0.2-0.8-0.2c-0.5,0-0.9,0.1-1.2,0.4c-0.3,0.3-0.5,0.7-0.5,1.3h3.4
			C231.1,187.3,231.1,186.9,230.9,186.7z"/>
		<path class="st3" d="M236.6,185.6c0.4,0.3,0.6,0.6,0.7,1v-1.3h0.9v5.3h-0.9v-1.3c-0.1,0.4-0.4,0.8-0.7,1c-0.4,0.3-0.8,0.4-1.3,0.4
			c-0.5,0-0.9-0.1-1.2-0.3c-0.4-0.2-0.7-0.5-0.9-0.9c-0.2-0.4-0.3-0.9-0.3-1.4c0-0.6,0.1-1,0.3-1.4c0.2-0.4,0.5-0.7,0.9-0.9
			c0.4-0.2,0.8-0.3,1.2-0.3C235.8,185.2,236.2,185.3,236.6,185.6z M234.2,186.5c-0.3,0.3-0.5,0.8-0.5,1.4c0,0.6,0.2,1.1,0.5,1.4
			c0.3,0.3,0.8,0.5,1.3,0.5c0.3,0,0.7-0.1,0.9-0.2c0.3-0.2,0.5-0.4,0.6-0.7c0.2-0.3,0.2-0.6,0.2-1c0-0.4-0.1-0.7-0.2-1
			c-0.2-0.3-0.4-0.5-0.6-0.7c-0.3-0.2-0.6-0.2-0.9-0.2C235,186,234.6,186.1,234.2,186.5z"/>
		<path class="st3" d="M240.5,183.4v7.1h-0.9v-7.1H240.5z"/>
	</g>
</g>
<g>
	<path class="st3" d="M289.8,173v2.3h2.6v0.7h-2.6v2.4h2.9v0.7h-3.7v-6.8h3.7v0.7H289.8z"/>
	<path class="st3" d="M298,174.2c0.4,0.4,0.6,1,0.6,1.7v3.1h-0.9v-3c0-0.5-0.1-0.9-0.4-1.2c-0.3-0.3-0.6-0.4-1.1-0.4
		c-0.5,0-0.9,0.2-1.2,0.5c-0.3,0.3-0.4,0.8-0.4,1.4v2.8h-0.9v-5.3h0.9v1.2c0.1-0.4,0.4-0.8,0.7-1s0.7-0.3,1.2-0.3
		C297.2,173.7,297.7,173.9,298,174.2z"/>
	<path class="st3" d="M302.5,178.2v0.8h-0.7c-0.5,0-0.9-0.1-1.2-0.4c-0.3-0.3-0.4-0.7-0.4-1.3v-2.8h-0.8v-0.8h0.8v-1.3h0.9v1.3h1.4
		v0.8h-1.4v2.9c0,0.3,0.1,0.6,0.2,0.7c0.1,0.1,0.3,0.2,0.6,0.2H302.5z"/>
	<path class="st3" d="M305.2,174c0.3-0.2,0.7-0.3,1.2-0.3v1h-0.3c-0.5,0-0.9,0.1-1.2,0.4c-0.3,0.3-0.5,0.7-0.5,1.3v2.8h-0.9v-5.3
		h0.9v1.1C304.6,174.4,304.8,174.2,305.2,174z"/>
	<path class="st3" d="M312,176.6h-4.2c0,0.6,0.2,1.1,0.5,1.4c0.3,0.3,0.7,0.5,1.2,0.5c0.4,0,0.8-0.1,1.1-0.3
		c0.3-0.2,0.5-0.5,0.5-0.9h0.9c-0.1,0.4-0.2,0.7-0.4,1c-0.2,0.3-0.5,0.5-0.9,0.7c-0.4,0.2-0.7,0.2-1.2,0.2c-0.5,0-1-0.1-1.3-0.3
		c-0.4-0.2-0.7-0.5-0.9-0.9c-0.2-0.4-0.3-0.9-0.3-1.4c0-0.6,0.1-1,0.3-1.4c0.2-0.4,0.5-0.7,0.9-0.9c0.4-0.2,0.8-0.3,1.3-0.3
		c0.5,0,1,0.1,1.3,0.3c0.4,0.2,0.7,0.5,0.9,0.9c0.2,0.4,0.3,0.8,0.3,1.2C312.1,176.3,312.1,176.4,312,176.6z M311,175.2
		c-0.1-0.3-0.3-0.5-0.6-0.6c-0.3-0.1-0.5-0.2-0.8-0.2c-0.5,0-0.9,0.1-1.2,0.4c-0.3,0.3-0.5,0.7-0.5,1.3h3.4
		C311.2,175.8,311.1,175.4,311,175.2z"/>
	<path class="st3" d="M319.9,174.2c0.4,0.4,0.6,1,0.6,1.7v3.1h-0.9v-3c0-0.5-0.1-0.9-0.4-1.2c-0.3-0.3-0.6-0.4-1.1-0.4
		c-0.5,0-0.9,0.2-1.2,0.5c-0.3,0.3-0.4,0.8-0.4,1.4v2.8h-0.9v-5.3h0.9v1.2c0.1-0.4,0.4-0.8,0.7-1c0.3-0.2,0.7-0.3,1.2-0.3
		C319,173.7,319.5,173.9,319.9,174.2z"/>
	<path class="st3" d="M325.2,174.1c0.4,0.3,0.6,0.6,0.7,1v-1.3h0.9v5.3H326v-1.3c-0.1,0.4-0.4,0.8-0.7,1c-0.4,0.3-0.8,0.4-1.3,0.4
		c-0.5,0-0.9-0.1-1.2-0.3c-0.4-0.2-0.7-0.5-0.9-0.9c-0.2-0.4-0.3-0.9-0.3-1.4c0-0.6,0.1-1,0.3-1.4c0.2-0.4,0.5-0.7,0.9-0.9
		c0.4-0.2,0.8-0.3,1.2-0.3C324.4,173.7,324.9,173.8,325.2,174.1z M322.9,175c-0.3,0.3-0.5,0.8-0.5,1.4c0,0.6,0.2,1.1,0.5,1.4
		c0.3,0.3,0.8,0.5,1.3,0.5c0.3,0,0.7-0.1,0.9-0.2c0.3-0.2,0.5-0.4,0.6-0.7c0.2-0.3,0.2-0.6,0.2-1c0-0.4-0.1-0.7-0.2-1
		c-0.2-0.3-0.4-0.5-0.6-0.7c-0.3-0.2-0.6-0.2-0.9-0.2C323.6,174.5,323.2,174.6,322.9,175z"/>
	<path class="st3" d="M333.1,178.2v0.8h-0.7c-0.5,0-0.9-0.1-1.2-0.4c-0.3-0.3-0.4-0.7-0.4-1.3v-2.8h-0.8v-0.8h0.8v-1.3h0.9v1.3h1.4
		v0.8h-1.4v2.9c0,0.3,0.1,0.6,0.2,0.7c0.1,0.1,0.3,0.2,0.6,0.2H333.1z"/>
	<path class="st3" d="M338.9,173.7v5.3H338v-1.2c-0.1,0.4-0.4,0.8-0.7,1c-0.3,0.2-0.7,0.3-1.2,0.3c-0.6,0-1.1-0.2-1.5-0.6
		c-0.4-0.4-0.6-1-0.6-1.7v-3.1h0.9v3c0,0.5,0.1,0.9,0.4,1.2c0.3,0.3,0.6,0.4,1.1,0.4c0.5,0,0.9-0.2,1.2-0.5c0.3-0.3,0.4-0.8,0.4-1.4
		v-2.8H338.9z"/>
	<path class="st3" d="M341.9,174c0.3-0.2,0.7-0.3,1.2-0.3v1h-0.3c-0.5,0-0.9,0.1-1.2,0.4c-0.3,0.3-0.5,0.7-0.5,1.3v2.8h-0.9v-5.3
		h0.9v1.1C341.3,174.4,341.6,174.2,341.9,174z"/>
	<path class="st3" d="M351.9,174.2c0.4,0.4,0.6,1,0.6,1.7v3.1h-0.9v-3c0-0.5-0.1-0.9-0.4-1.2c-0.3-0.3-0.6-0.4-1-0.4
		c-0.5,0-0.8,0.2-1.1,0.5c-0.3,0.3-0.4,0.8-0.4,1.3v2.8h-0.9v-3c0-0.5-0.1-0.9-0.4-1.2c-0.3-0.3-0.6-0.4-1-0.4
		c-0.5,0-0.8,0.2-1.1,0.5s-0.4,0.8-0.4,1.3v2.8H344v-5.3h0.9v1.2c0.1-0.4,0.4-0.7,0.7-1c0.3-0.2,0.7-0.3,1.1-0.3
		c0.4,0,0.8,0.1,1.2,0.3c0.3,0.2,0.6,0.6,0.7,1c0.1-0.4,0.4-0.8,0.7-1c0.3-0.2,0.7-0.4,1.2-0.4C351.1,173.7,351.6,173.9,351.9,174.2
		z"/>
	<path class="st3" d="M357.3,174.1c0.4,0.3,0.6,0.6,0.7,1v-1.3h0.9v5.3H358v-1.3c-0.1,0.4-0.4,0.8-0.7,1c-0.4,0.3-0.8,0.4-1.3,0.4
		c-0.5,0-0.9-0.1-1.2-0.3c-0.4-0.2-0.7-0.5-0.9-0.9s-0.3-0.9-0.3-1.4c0-0.6,0.1-1,0.3-1.4c0.2-0.4,0.5-0.7,0.9-0.9
		c0.4-0.2,0.8-0.3,1.2-0.3C356.5,173.7,356.9,173.8,357.3,174.1z M355,175c-0.3,0.3-0.5,0.8-0.5,1.4c0,0.6,0.2,1.1,0.5,1.4
		c0.3,0.3,0.8,0.5,1.3,0.5c0.3,0,0.7-0.1,0.9-0.2c0.3-0.2,0.5-0.4,0.6-0.7c0.2-0.3,0.2-0.6,0.2-1c0-0.4-0.1-0.7-0.2-1
		c-0.2-0.3-0.4-0.5-0.6-0.7c-0.3-0.2-0.6-0.2-0.9-0.2C355.7,174.5,355.3,174.6,355,175z"/>
</g>
<g>
	<g class="st4">
		<path class="st3" d="M411.7,169.4v0.7h-1.9v6.1h-0.9v-6.1H407v-0.7H411.7z"/>
		<path class="st3" d="M417.3,173.7h-4.2c0,0.6,0.2,1.1,0.5,1.4c0.3,0.3,0.7,0.5,1.2,0.5c0.4,0,0.8-0.1,1.1-0.3
			c0.3-0.2,0.5-0.5,0.5-0.9h0.9c-0.1,0.4-0.2,0.7-0.4,1c-0.2,0.3-0.5,0.5-0.9,0.7c-0.4,0.2-0.7,0.2-1.2,0.2c-0.5,0-1-0.1-1.3-0.3
			c-0.4-0.2-0.7-0.5-0.9-0.9c-0.2-0.4-0.3-0.9-0.3-1.4c0-0.6,0.1-1,0.3-1.4c0.2-0.4,0.5-0.7,0.9-0.9c0.4-0.2,0.8-0.3,1.3-0.3
			c0.5,0,1,0.1,1.3,0.3c0.4,0.2,0.7,0.5,0.9,0.9c0.2,0.4,0.3,0.8,0.3,1.2C417.4,173.4,417.4,173.6,417.3,173.7z M416.3,172.3
			c-0.1-0.3-0.3-0.5-0.6-0.6c-0.3-0.1-0.5-0.2-0.8-0.2c-0.5,0-0.9,0.1-1.2,0.4c-0.3,0.3-0.5,0.7-0.5,1.3h3.4
			C416.5,172.9,416.4,172.6,416.3,172.3z"/>
		<path class="st3" d="M422.8,171.4c0.4,0.4,0.6,1,0.6,1.7v3.1h-0.9v-3c0-0.5-0.1-0.9-0.4-1.2c-0.3-0.3-0.6-0.4-1.1-0.4
			c-0.5,0-0.9,0.2-1.2,0.5c-0.3,0.3-0.4,0.8-0.4,1.4v2.8h-0.9v-5.3h0.9v1.2c0.1-0.4,0.4-0.8,0.7-1c0.3-0.2,0.7-0.3,1.2-0.3
			C421.9,170.8,422.4,171,422.8,171.4z"/>
		<path class="st3" d="M428.9,171.4c0.4,0.4,0.6,1,0.6,1.7v3.1h-0.9v-3c0-0.5-0.1-0.9-0.4-1.2c-0.3-0.3-0.6-0.4-1.1-0.4
			c-0.5,0-0.9,0.2-1.2,0.5c-0.3,0.3-0.4,0.8-0.4,1.4v2.8h-0.9v-7.1h0.9v3.1c0.1-0.4,0.4-0.8,0.7-1c0.3-0.2,0.7-0.3,1.2-0.3
			C428.1,170.8,428.6,171,428.9,171.4z"/>
		<path class="st3" d="M434.3,171.2c0.4,0.3,0.6,0.6,0.7,1v-1.3h0.9v5.3h-0.9v-1.3c-0.1,0.4-0.4,0.8-0.7,1c-0.4,0.3-0.8,0.4-1.3,0.4
			c-0.5,0-0.9-0.1-1.2-0.3c-0.4-0.2-0.7-0.5-0.9-0.9c-0.2-0.4-0.3-0.9-0.3-1.4c0-0.6,0.1-1,0.3-1.4c0.2-0.4,0.5-0.7,0.9-0.9
			c0.4-0.2,0.8-0.3,1.2-0.3C433.5,170.8,434,171,434.3,171.2z M432,172.1c-0.3,0.3-0.5,0.8-0.5,1.4c0,0.6,0.2,1.1,0.5,1.4
			c0.3,0.3,0.8,0.5,1.3,0.5c0.3,0,0.7-0.1,0.9-0.2c0.3-0.2,0.5-0.4,0.6-0.7c0.2-0.3,0.2-0.6,0.2-1c0-0.4-0.1-0.7-0.2-1
			c-0.2-0.3-0.4-0.5-0.6-0.7c-0.3-0.2-0.6-0.2-0.9-0.2C432.7,171.6,432.3,171.8,432,172.1z"/>
		<path class="st3" d="M443.2,171.2c0.4,0.3,0.6,0.6,0.7,1v-1.3h0.9v5.3h-0.9v-1.3c-0.1,0.4-0.4,0.8-0.7,1c-0.4,0.3-0.8,0.4-1.3,0.4
			c-0.5,0-0.9-0.1-1.2-0.3c-0.4-0.2-0.7-0.5-0.9-0.9c-0.2-0.4-0.3-0.9-0.3-1.4c0-0.6,0.1-1,0.3-1.4c0.2-0.4,0.5-0.7,0.9-0.9
			c0.4-0.2,0.8-0.3,1.2-0.3C442.4,170.8,442.8,171,443.2,171.2z M440.8,172.1c-0.3,0.3-0.5,0.8-0.5,1.4c0,0.6,0.2,1.1,0.5,1.4
			c0.3,0.3,0.8,0.5,1.3,0.5c0.3,0,0.7-0.1,0.9-0.2c0.3-0.2,0.5-0.4,0.6-0.7c0.2-0.3,0.2-0.6,0.2-1c0-0.4-0.1-0.7-0.2-1
			c-0.2-0.3-0.4-0.5-0.6-0.7c-0.3-0.2-0.6-0.2-0.9-0.2C441.6,171.6,441.1,171.8,440.8,172.1z"/>
		<path class="st3" d="M450.2,171.4c0.4,0.4,0.7,0.8,0.8,1.4h-0.9c-0.1-0.4-0.2-0.7-0.5-0.9c-0.3-0.2-0.6-0.3-1.1-0.3
			c-0.3,0-0.6,0.1-0.8,0.2c-0.3,0.1-0.5,0.4-0.6,0.6c-0.2,0.3-0.2,0.7-0.2,1.1s0.1,0.8,0.2,1.1c0.2,0.3,0.4,0.5,0.6,0.6
			s0.5,0.2,0.8,0.2c0.4,0,0.8-0.1,1.1-0.3c0.3-0.2,0.5-0.5,0.5-0.9h0.9c-0.1,0.6-0.4,1.1-0.8,1.4c-0.4,0.4-1,0.5-1.7,0.5
			c-0.5,0-1-0.1-1.3-0.3c-0.4-0.2-0.7-0.5-0.9-0.9c-0.2-0.4-0.3-0.9-0.3-1.4c0-0.6,0.1-1,0.3-1.4c0.2-0.4,0.5-0.7,0.9-0.9
			c0.4-0.2,0.8-0.3,1.3-0.3C449.2,170.8,449.7,171,450.2,171.4z"/>
		<path class="st3" d="M456.9,173.7h-4.2c0,0.6,0.2,1.1,0.5,1.4c0.3,0.3,0.7,0.5,1.2,0.5c0.4,0,0.8-0.1,1.1-0.3
			c0.3-0.2,0.5-0.5,0.5-0.9h0.9c-0.1,0.4-0.2,0.7-0.4,1c-0.2,0.3-0.5,0.5-0.9,0.7c-0.4,0.2-0.7,0.2-1.2,0.2c-0.5,0-1-0.1-1.3-0.3
			c-0.4-0.2-0.7-0.5-0.9-0.9c-0.2-0.4-0.3-0.9-0.3-1.4c0-0.6,0.1-1,0.3-1.4c0.2-0.4,0.5-0.7,0.9-0.9c0.4-0.2,0.8-0.3,1.3-0.3
			c0.5,0,1,0.1,1.3,0.3c0.4,0.2,0.7,0.5,0.9,0.9c0.2,0.4,0.3,0.8,0.3,1.2C457,173.4,457,173.6,456.9,173.7z M455.9,172.3
			c-0.1-0.3-0.3-0.5-0.6-0.6c-0.3-0.1-0.5-0.2-0.8-0.2c-0.5,0-0.9,0.1-1.2,0.4c-0.3,0.3-0.5,0.7-0.5,1.3h3.4
			C456.1,172.9,456.1,172.6,455.9,172.3z"/>
		<path class="st3" d="M461.2,171.3c0.4,0.3,0.6,0.7,0.7,1.3H461c0-0.3-0.2-0.6-0.4-0.8c-0.2-0.2-0.5-0.3-0.9-0.3
			c-0.3,0-0.6,0.1-0.7,0.2c-0.2,0.2-0.3,0.4-0.3,0.6c0,0.2,0.1,0.3,0.2,0.5c0.1,0.1,0.3,0.2,0.4,0.3c0.2,0.1,0.4,0.1,0.7,0.2
			c0.4,0.1,0.7,0.2,0.9,0.3c0.2,0.1,0.4,0.2,0.6,0.4c0.2,0.2,0.3,0.5,0.3,0.8c0,0.4-0.2,0.8-0.5,1c-0.3,0.3-0.8,0.4-1.3,0.4
			c-0.6,0-1.1-0.2-1.5-0.5c-0.4-0.3-0.6-0.7-0.7-1.3h0.8c0,0.3,0.2,0.6,0.4,0.8c0.2,0.2,0.6,0.3,1,0.3c0.3,0,0.5-0.1,0.7-0.2
			c0.2-0.2,0.3-0.4,0.3-0.6c0-0.2-0.1-0.4-0.2-0.5c-0.1-0.1-0.3-0.2-0.5-0.3c-0.2-0.1-0.4-0.1-0.7-0.2c-0.4-0.1-0.7-0.2-0.9-0.3
			c-0.2-0.1-0.4-0.2-0.6-0.4c-0.2-0.2-0.2-0.5-0.2-0.8c0-0.4,0.2-0.8,0.5-1.1c0.3-0.3,0.8-0.4,1.3-0.4
			C460.4,170.8,460.9,171,461.2,171.3z"/>
		<path class="st3" d="M466.2,171.3c0.4,0.3,0.6,0.7,0.7,1.3H466c0-0.3-0.2-0.6-0.4-0.8c-0.2-0.2-0.5-0.3-0.9-0.3
			c-0.3,0-0.6,0.1-0.7,0.2c-0.2,0.2-0.3,0.4-0.3,0.6c0,0.2,0.1,0.3,0.2,0.5c0.1,0.1,0.3,0.2,0.4,0.3c0.2,0.1,0.4,0.1,0.7,0.2
			c0.4,0.1,0.7,0.2,0.9,0.3c0.2,0.1,0.4,0.2,0.6,0.4c0.2,0.2,0.3,0.5,0.3,0.8c0,0.4-0.2,0.8-0.5,1c-0.3,0.3-0.8,0.4-1.3,0.4
			c-0.6,0-1.1-0.2-1.5-0.5c-0.4-0.3-0.6-0.7-0.7-1.3h0.8c0,0.3,0.2,0.6,0.4,0.8c0.2,0.2,0.6,0.3,1,0.3c0.3,0,0.5-0.1,0.7-0.2
			c0.2-0.2,0.3-0.4,0.3-0.6c0-0.2-0.1-0.4-0.2-0.5c-0.1-0.1-0.3-0.2-0.5-0.3c-0.2-0.1-0.4-0.1-0.7-0.2c-0.4-0.1-0.7-0.2-0.9-0.3
			c-0.2-0.1-0.4-0.2-0.6-0.4c-0.2-0.2-0.2-0.5-0.2-0.8c0-0.4,0.2-0.8,0.5-1.1c0.3-0.3,0.8-0.4,1.3-0.4
			C465.3,170.8,465.8,171,466.2,171.3z"/>
		<path class="st3" d="M471.8,171.2c0.4,0.2,0.7,0.5,0.9,0.9c0.2,0.4,0.3,0.9,0.3,1.4c0,0.6-0.1,1-0.3,1.4c-0.2,0.4-0.5,0.7-0.9,0.9
			c-0.4,0.2-0.9,0.3-1.4,0.3c-0.5,0-1-0.1-1.4-0.3c-0.4-0.2-0.7-0.5-0.9-0.9c-0.2-0.4-0.3-0.9-0.3-1.4c0-0.6,0.1-1,0.3-1.4
			c0.2-0.4,0.5-0.7,0.9-0.9c0.4-0.2,0.9-0.3,1.4-0.3C471,170.8,471.4,170.9,471.8,171.2z M469.6,171.8c-0.3,0.1-0.5,0.4-0.6,0.6
			c-0.2,0.3-0.2,0.7-0.2,1.1c0,0.4,0.1,0.8,0.2,1.1c0.2,0.3,0.4,0.5,0.6,0.6s0.6,0.2,0.9,0.2c0.3,0,0.6-0.1,0.9-0.2
			c0.3-0.1,0.5-0.4,0.6-0.6c0.2-0.3,0.2-0.6,0.2-1.1c0-0.4-0.1-0.8-0.2-1.1c-0.2-0.3-0.4-0.5-0.6-0.6c-0.3-0.1-0.6-0.2-0.9-0.2
			C470.1,171.6,469.8,171.7,469.6,171.8z"/>
	</g>
	<g class="st4">
		<path class="st3" d="M413.7,182.7c0.4,0.3,0.6,0.6,0.7,1v-1.3h0.9v5.3h-0.9v-1.3c-0.1,0.4-0.4,0.8-0.7,1c-0.4,0.3-0.8,0.4-1.3,0.4
			c-0.5,0-0.9-0.1-1.2-0.3c-0.4-0.2-0.7-0.5-0.9-0.9s-0.3-0.9-0.3-1.4c0-0.6,0.1-1,0.3-1.4c0.2-0.4,0.5-0.7,0.9-0.9
			c0.4-0.2,0.8-0.3,1.2-0.3C412.9,182.3,413.3,182.5,413.7,182.7z M411.3,183.6c-0.3,0.3-0.5,0.8-0.5,1.4c0,0.6,0.2,1.1,0.5,1.4
			c0.3,0.3,0.8,0.5,1.3,0.5c0.3,0,0.7-0.1,0.9-0.2c0.3-0.2,0.5-0.4,0.6-0.7c0.2-0.3,0.2-0.6,0.2-1c0-0.4-0.1-0.7-0.2-1
			c-0.2-0.3-0.4-0.5-0.6-0.7c-0.3-0.2-0.6-0.2-0.9-0.2C412.1,183.1,411.7,183.3,411.3,183.6z"/>
		<path class="st3" d="M419.8,182.8c0.4,0.3,0.6,0.7,0.7,1.3h-0.8c0-0.3-0.2-0.6-0.4-0.8c-0.2-0.2-0.5-0.3-0.9-0.3
			c-0.3,0-0.6,0.1-0.7,0.2c-0.2,0.2-0.3,0.4-0.3,0.6c0,0.2,0.1,0.3,0.2,0.5c0.1,0.1,0.3,0.2,0.4,0.3c0.2,0.1,0.4,0.1,0.7,0.2
			c0.4,0.1,0.7,0.2,0.9,0.3c0.2,0.1,0.4,0.2,0.6,0.4c0.2,0.2,0.3,0.5,0.3,0.8c0,0.4-0.2,0.8-0.5,1c-0.3,0.3-0.8,0.4-1.3,0.4
			c-0.6,0-1.1-0.2-1.5-0.5c-0.4-0.3-0.6-0.7-0.7-1.3h0.8c0,0.3,0.2,0.6,0.4,0.8c0.2,0.2,0.6,0.3,1,0.3c0.3,0,0.5-0.1,0.7-0.2
			c0.2-0.2,0.3-0.4,0.3-0.6c0-0.2-0.1-0.4-0.2-0.5c-0.1-0.1-0.3-0.2-0.5-0.3c-0.2-0.1-0.4-0.1-0.7-0.2c-0.4-0.1-0.7-0.2-0.9-0.3
			s-0.4-0.2-0.6-0.4c-0.2-0.2-0.2-0.5-0.2-0.8c0-0.4,0.2-0.8,0.5-1.1c0.3-0.3,0.8-0.4,1.3-0.4C418.9,182.3,419.4,182.5,419.8,182.8z
			"/>
		<path class="st3" d="M432,182.9c0.4,0.4,0.6,1,0.6,1.7v3.1h-0.9v-3c0-0.5-0.1-0.9-0.4-1.2c-0.3-0.3-0.6-0.4-1-0.4
			c-0.5,0-0.8,0.2-1.1,0.5c-0.3,0.3-0.4,0.8-0.4,1.3v2.8h-0.9v-3c0-0.5-0.1-0.9-0.4-1.2c-0.3-0.3-0.6-0.4-1-0.4
			c-0.5,0-0.8,0.2-1.1,0.5c-0.3,0.3-0.4,0.8-0.4,1.3v2.8H424v-5.3h0.9v1.2c0.1-0.4,0.4-0.7,0.7-1c0.3-0.2,0.7-0.3,1.1-0.3
			c0.4,0,0.8,0.1,1.2,0.3c0.3,0.2,0.6,0.6,0.7,1c0.1-0.4,0.4-0.8,0.7-1c0.3-0.2,0.7-0.4,1.2-0.4C431.1,182.3,431.6,182.5,432,182.9z
			"/>
		<path class="st3" d="M438.7,185.2h-4.2c0,0.6,0.2,1.1,0.5,1.4c0.3,0.3,0.7,0.5,1.2,0.5c0.4,0,0.8-0.1,1.1-0.3
			c0.3-0.2,0.5-0.5,0.5-0.9h0.9c-0.1,0.4-0.2,0.7-0.4,1c-0.2,0.3-0.5,0.5-0.9,0.7c-0.4,0.2-0.7,0.2-1.2,0.2c-0.5,0-1-0.1-1.3-0.3
			c-0.4-0.2-0.7-0.5-0.9-0.9c-0.2-0.4-0.3-0.9-0.3-1.4c0-0.6,0.1-1,0.3-1.4c0.2-0.4,0.5-0.7,0.9-0.9c0.4-0.2,0.8-0.3,1.3-0.3
			c0.5,0,1,0.1,1.3,0.3c0.4,0.2,0.7,0.5,0.9,0.9c0.2,0.4,0.3,0.8,0.3,1.2C438.8,184.9,438.8,185.1,438.7,185.2z M437.7,183.8
			c-0.1-0.3-0.3-0.5-0.6-0.6c-0.3-0.1-0.5-0.2-0.8-0.2c-0.5,0-0.9,0.1-1.2,0.4c-0.3,0.3-0.5,0.7-0.5,1.3h3.4
			C437.9,184.4,437.8,184.1,437.7,183.8z"/>
		<path class="st3" d="M440.8,180.6v7.1h-0.9v-7.1H440.8z"/>
		<path class="st3" d="M446.4,182.9c0.4,0.4,0.6,1,0.6,1.7v3.1h-0.9v-3c0-0.5-0.1-0.9-0.4-1.2c-0.3-0.3-0.6-0.4-1.1-0.4
			c-0.5,0-0.9,0.2-1.2,0.5c-0.3,0.3-0.4,0.8-0.4,1.4v2.8h-0.9v-7.1h0.9v3.1c0.1-0.4,0.4-0.8,0.7-1c0.3-0.2,0.7-0.3,1.2-0.3
			C445.6,182.3,446.1,182.5,446.4,182.9z"/>
		<path class="st3" d="M452.1,182.7c0.4,0.2,0.7,0.5,0.9,0.9c0.2,0.4,0.3,0.9,0.3,1.4c0,0.6-0.1,1-0.3,1.4s-0.5,0.7-0.9,0.9
			c-0.4,0.2-0.9,0.3-1.4,0.3s-1-0.1-1.4-0.3c-0.4-0.2-0.7-0.5-0.9-0.9c-0.2-0.4-0.3-0.9-0.3-1.4c0-0.6,0.1-1,0.3-1.4
			c0.2-0.4,0.5-0.7,0.9-0.9c0.4-0.2,0.9-0.3,1.4-0.3S451.7,182.5,452.1,182.7z M449.9,183.3c-0.3,0.1-0.5,0.4-0.6,0.6
			c-0.2,0.3-0.2,0.7-0.2,1.1c0,0.4,0.1,0.8,0.2,1.1c0.2,0.3,0.4,0.5,0.6,0.6c0.3,0.1,0.6,0.2,0.9,0.2s0.6-0.1,0.9-0.2
			s0.5-0.4,0.6-0.6c0.2-0.3,0.2-0.6,0.2-1.1c0-0.4-0.1-0.8-0.2-1.1c-0.2-0.3-0.4-0.5-0.6-0.6c-0.3-0.1-0.6-0.2-0.9-0.2
			S450.1,183.2,449.9,183.3z"/>
		<path class="st3" d="M456.2,182.6c0.3-0.2,0.7-0.3,1.2-0.3v1h-0.3c-0.5,0-0.9,0.1-1.2,0.4c-0.3,0.3-0.5,0.7-0.5,1.3v2.8h-0.9v-5.3
			h0.9v1.1C455.6,183.1,455.8,182.8,456.2,182.6z"/>
		<path class="st3" d="M463,185.2h-4.2c0,0.6,0.2,1.1,0.5,1.4c0.3,0.3,0.7,0.5,1.2,0.5c0.4,0,0.8-0.1,1.1-0.3
			c0.3-0.2,0.5-0.5,0.5-0.9h0.9c-0.1,0.4-0.2,0.7-0.4,1c-0.2,0.3-0.5,0.5-0.9,0.7c-0.4,0.2-0.7,0.2-1.2,0.2c-0.5,0-1-0.1-1.3-0.3
			c-0.4-0.2-0.7-0.5-0.9-0.9c-0.2-0.4-0.3-0.9-0.3-1.4c0-0.6,0.1-1,0.3-1.4c0.2-0.4,0.5-0.7,0.9-0.9c0.4-0.2,0.8-0.3,1.3-0.3
			c0.5,0,1,0.1,1.3,0.3c0.4,0.2,0.7,0.5,0.9,0.9c0.2,0.4,0.3,0.8,0.3,1.2C463.1,184.9,463.1,185.1,463,185.2z M462,183.8
			c-0.1-0.3-0.3-0.5-0.6-0.6c-0.3-0.1-0.5-0.2-0.8-0.2c-0.5,0-0.9,0.1-1.2,0.4c-0.3,0.3-0.5,0.7-0.5,1.3h3.4
			C462.2,184.4,462.1,184.1,462,183.8z"/>
		<path class="st3" d="M467.3,182.8c0.4,0.3,0.6,0.7,0.7,1.3h-0.8c0-0.3-0.2-0.6-0.4-0.8c-0.2-0.2-0.5-0.3-0.9-0.3
			c-0.3,0-0.6,0.1-0.7,0.2c-0.2,0.2-0.3,0.4-0.3,0.6c0,0.2,0.1,0.3,0.2,0.5c0.1,0.1,0.3,0.2,0.4,0.3c0.2,0.1,0.4,0.1,0.7,0.2
			c0.4,0.1,0.7,0.2,0.9,0.3c0.2,0.1,0.4,0.2,0.6,0.4c0.2,0.2,0.3,0.5,0.3,0.8c0,0.4-0.2,0.8-0.5,1c-0.3,0.3-0.8,0.4-1.3,0.4
			c-0.6,0-1.1-0.2-1.5-0.5c-0.4-0.3-0.6-0.7-0.7-1.3h0.8c0,0.3,0.2,0.6,0.4,0.8c0.2,0.2,0.6,0.3,1,0.3c0.3,0,0.5-0.1,0.7-0.2
			c0.2-0.2,0.3-0.4,0.3-0.6c0-0.2-0.1-0.4-0.2-0.5c-0.1-0.1-0.3-0.2-0.5-0.3s-0.4-0.1-0.7-0.2c-0.4-0.1-0.7-0.2-0.9-0.3
			s-0.4-0.2-0.6-0.4c-0.2-0.2-0.2-0.5-0.2-0.8c0-0.4,0.2-0.8,0.5-1.1c0.3-0.3,0.8-0.4,1.3-0.4C466.5,182.3,466.9,182.5,467.3,182.8z
			"/>
	</g>
	<g class="st4">
		<path class="st3" d="M412.1,192.9c-0.2,0.2-0.3,0.5-0.3,0.9v0.1h1.2v0.8h-1.2v4.5H411v-4.5h-0.8v-0.8h0.8v-0.2
			c0-1.3,0.7-1.9,2.1-1.8v0.8C412.7,192.7,412.3,192.8,412.1,192.9z"/>
		<path class="st3" d="M418.9,196.8h-4.2c0,0.6,0.2,1.1,0.5,1.4c0.3,0.3,0.7,0.5,1.2,0.5c0.4,0,0.8-0.1,1.1-0.3
			c0.3-0.2,0.5-0.5,0.5-0.9h0.9c-0.1,0.4-0.2,0.7-0.4,1c-0.2,0.3-0.5,0.5-0.9,0.7c-0.4,0.2-0.7,0.2-1.2,0.2c-0.5,0-1-0.1-1.3-0.3
			c-0.4-0.2-0.7-0.5-0.9-0.9c-0.2-0.4-0.3-0.9-0.3-1.4c0-0.6,0.1-1,0.3-1.4c0.2-0.4,0.5-0.7,0.9-0.9c0.4-0.2,0.8-0.3,1.3-0.3
			c0.5,0,1,0.1,1.3,0.3c0.4,0.2,0.7,0.5,0.9,0.9c0.2,0.4,0.3,0.8,0.3,1.2C418.9,196.5,418.9,196.6,418.9,196.8z M417.8,195.4
			c-0.1-0.3-0.3-0.5-0.6-0.6c-0.3-0.1-0.5-0.2-0.8-0.2c-0.5,0-0.9,0.1-1.2,0.4c-0.3,0.3-0.5,0.7-0.5,1.3h3.4
			C418.1,195.9,418,195.6,417.8,195.4z"/>
		<path class="st3" d="M421.7,194.2c0.3-0.2,0.7-0.3,1.2-0.3v1h-0.3c-0.5,0-0.9,0.1-1.2,0.4c-0.3,0.3-0.5,0.7-0.5,1.3v2.8h-0.9v-5.3
			h0.9v1.1C421.1,194.6,421.4,194.4,421.7,194.2z"/>
		<path class="st3" d="M425.4,194.2c0.3-0.2,0.7-0.3,1.2-0.3v1h-0.3c-0.5,0-0.9,0.1-1.2,0.4c-0.3,0.3-0.5,0.7-0.5,1.3v2.8h-0.9v-5.3
			h0.9v1.1C424.8,194.6,425.1,194.4,425.4,194.2z"/>
		<path class="st3" d="M430.9,194.3c0.4,0.3,0.6,0.6,0.7,1v-1.3h0.9v5.3h-0.9v-1.3c-0.1,0.4-0.4,0.8-0.7,1c-0.4,0.3-0.8,0.4-1.3,0.4
			c-0.5,0-0.9-0.1-1.2-0.3c-0.4-0.2-0.7-0.5-0.9-0.9s-0.3-0.9-0.3-1.4c0-0.6,0.1-1,0.3-1.4c0.2-0.4,0.5-0.7,0.9-0.9
			c0.4-0.2,0.8-0.3,1.2-0.3C430.1,193.9,430.5,194,430.9,194.3z M428.6,195.2c-0.3,0.3-0.5,0.8-0.5,1.4c0,0.6,0.2,1.1,0.5,1.4
			c0.3,0.3,0.8,0.5,1.3,0.5c0.3,0,0.7-0.1,0.9-0.2c0.3-0.2,0.5-0.4,0.6-0.7c0.2-0.3,0.2-0.6,0.2-1c0-0.4-0.1-0.7-0.2-1
			c-0.2-0.3-0.4-0.5-0.6-0.7c-0.3-0.2-0.6-0.2-0.9-0.2C429.3,194.6,428.9,194.8,428.6,195.2z"/>
		<path class="st3" d="M441.9,194.4c0.4,0.4,0.6,1,0.6,1.7v3.1h-0.9v-3c0-0.5-0.1-0.9-0.4-1.2c-0.3-0.3-0.6-0.4-1-0.4
			c-0.5,0-0.8,0.2-1.1,0.5c-0.3,0.3-0.4,0.8-0.4,1.3v2.8h-0.9v-3c0-0.5-0.1-0.9-0.4-1.2c-0.3-0.3-0.6-0.4-1-0.4
			c-0.5,0-0.8,0.2-1.1,0.5c-0.3,0.3-0.4,0.8-0.4,1.3v2.8h-0.9v-5.3h0.9v1.2c0.1-0.4,0.4-0.7,0.7-1c0.3-0.2,0.7-0.3,1.1-0.3
			c0.4,0,0.8,0.1,1.2,0.3c0.3,0.2,0.6,0.6,0.7,1c0.1-0.4,0.4-0.8,0.7-1c0.3-0.2,0.7-0.4,1.2-0.4C441,193.9,441.5,194,441.9,194.4z"
			/>
		<path class="st3" d="M448.6,196.8h-4.2c0,0.6,0.2,1.1,0.5,1.4c0.3,0.3,0.7,0.5,1.2,0.5c0.4,0,0.8-0.1,1.1-0.3
			c0.3-0.2,0.5-0.5,0.5-0.9h0.9c-0.1,0.4-0.2,0.7-0.4,1c-0.2,0.3-0.5,0.5-0.9,0.7c-0.4,0.2-0.7,0.2-1.2,0.2c-0.5,0-1-0.1-1.3-0.3
			c-0.4-0.2-0.7-0.5-0.9-0.9c-0.2-0.4-0.3-0.9-0.3-1.4c0-0.6,0.1-1,0.3-1.4c0.2-0.4,0.5-0.7,0.9-0.9c0.4-0.2,0.8-0.3,1.3-0.3
			c0.5,0,1,0.1,1.3,0.3c0.4,0.2,0.7,0.5,0.9,0.9c0.2,0.4,0.3,0.8,0.3,1.2C448.6,196.5,448.6,196.6,448.6,196.8z M447.6,195.4
			c-0.1-0.3-0.3-0.5-0.6-0.6c-0.3-0.1-0.5-0.2-0.8-0.2c-0.5,0-0.9,0.1-1.2,0.4c-0.3,0.3-0.5,0.7-0.5,1.3h3.4
			C447.8,195.9,447.7,195.6,447.6,195.4z"/>
		<path class="st3" d="M454,194.4c0.4,0.4,0.6,1,0.6,1.7v3.1h-0.9v-3c0-0.5-0.1-0.9-0.4-1.2c-0.3-0.3-0.6-0.4-1.1-0.4
			c-0.5,0-0.9,0.2-1.2,0.5c-0.3,0.3-0.4,0.8-0.4,1.4v2.8h-0.9v-5.3h0.9v1.2c0.1-0.4,0.4-0.8,0.7-1c0.3-0.2,0.7-0.3,1.2-0.3
			C453.2,193.9,453.7,194,454,194.4z"/>
		<path class="st3" d="M458.5,198.4v0.8h-0.7c-0.5,0-0.9-0.1-1.2-0.4c-0.3-0.3-0.4-0.7-0.4-1.3v-2.8h-0.8v-0.8h0.8v-1.3h0.9v1.3h1.4
			v0.8h-1.4v2.9c0,0.3,0.1,0.6,0.2,0.7c0.1,0.1,0.3,0.2,0.6,0.2H458.5z"/>
		<path class="st3" d="M463,194.3c0.4,0.3,0.6,0.6,0.7,1v-1.3h0.9v5.3h-0.9v-1.3c-0.1,0.4-0.4,0.8-0.7,1c-0.4,0.3-0.8,0.4-1.3,0.4
			c-0.5,0-0.9-0.1-1.2-0.3c-0.4-0.2-0.7-0.5-0.9-0.9s-0.3-0.9-0.3-1.4c0-0.6,0.1-1,0.3-1.4c0.2-0.4,0.5-0.7,0.9-0.9
			c0.4-0.2,0.8-0.3,1.2-0.3C462.2,193.9,462.6,194,463,194.3z M460.7,195.2c-0.3,0.3-0.5,0.8-0.5,1.4c0,0.6,0.2,1.1,0.5,1.4
			c0.3,0.3,0.8,0.5,1.3,0.5c0.3,0,0.7-0.1,0.9-0.2c0.3-0.2,0.5-0.4,0.6-0.7c0.2-0.3,0.2-0.6,0.2-1c0-0.4-0.1-0.7-0.2-1
			c-0.2-0.3-0.4-0.5-0.6-0.7c-0.3-0.2-0.6-0.2-0.9-0.2C461.4,194.6,461,194.8,460.7,195.2z"/>
		<path class="st3" d="M469.1,194.3c0.4,0.3,0.6,0.7,0.7,1.3h-0.8c0-0.3-0.2-0.6-0.4-0.8c-0.2-0.2-0.5-0.3-0.9-0.3
			c-0.3,0-0.6,0.1-0.7,0.2c-0.2,0.2-0.3,0.4-0.3,0.6c0,0.2,0.1,0.3,0.2,0.5c0.1,0.1,0.3,0.2,0.4,0.3c0.2,0.1,0.4,0.1,0.7,0.2
			c0.4,0.1,0.7,0.2,0.9,0.3c0.2,0.1,0.4,0.2,0.6,0.4c0.2,0.2,0.3,0.5,0.3,0.8c0,0.4-0.2,0.8-0.5,1c-0.3,0.3-0.8,0.4-1.3,0.4
			c-0.6,0-1.1-0.2-1.5-0.5c-0.4-0.3-0.6-0.7-0.7-1.3h0.8c0,0.3,0.2,0.6,0.4,0.8c0.2,0.2,0.6,0.3,1,0.3c0.3,0,0.5-0.1,0.7-0.2
			c0.2-0.2,0.3-0.4,0.3-0.6c0-0.2-0.1-0.4-0.2-0.5c-0.1-0.1-0.3-0.2-0.5-0.3c-0.2-0.1-0.4-0.1-0.7-0.2c-0.4-0.1-0.7-0.2-0.9-0.3
			s-0.4-0.2-0.6-0.4c-0.2-0.2-0.2-0.5-0.2-0.8c0-0.4,0.2-0.8,0.5-1.1c0.3-0.3,0.8-0.4,1.3-0.4C468.3,193.9,468.7,194,469.1,194.3z"
			/>
	</g>
</g>
<path class="st5" d="M111.1,118.4H66.3c-1.4,0-2.6-1.2-2.6-2.6v-5.5c0-1.4,1.2-2.6,2.6-2.6h44.8c1.4,0,2.6,1.2,2.6,2.6v5.5
	C113.7,117.2,112.5,118.4,111.1,118.4z"/>
<path class="st5" d="M462.9,88.5h-45.7c-4.3,0-7.8-3.5-7.8-7.8v-21c0-4.3,3.5-7.8,7.8-7.8h45.7c4.3,0,7.8,3.5,7.8,7.8v21
	C470.7,84.9,467.2,88.5,462.9,88.5z"/>
<path class="st6" d="M465.3,136.8h-50.5c-3,0-5.4-2.4-5.4-5.4v-13.5c0-3,2.4-5.4,5.4-5.4h50.5c3,0,5.4,2.4,5.4,5.4v13.5
	C470.7,134.4,468.3,136.8,465.3,136.8z"/>
<path class="st5" d="M423.6,108.8h-10.7c-1.9,0-3.5-1.6-3.5-3.5v-9.6c0-1.9,1.6-3.5,3.5-3.5h10.7c1.9,0,3.5,1.6,3.5,3.5v9.6
	C427.1,107.2,425.5,108.8,423.6,108.8z"/>
<path class="st6" d="M445.4,108.8h-10.7c-1.9,0-3.5-1.6-3.5-3.5v-9.6c0-1.9,1.6-3.5,3.5-3.5h10.7c1.9,0,3.5,1.6,3.5,3.5v9.6
	C448.9,107.2,447.3,108.8,445.4,108.8z"/>
<path class="st6" d="M467.2,108.8h-10.7c-1.9,0-3.5-1.6-3.5-3.5v-9.6c0-1.9,1.6-3.5,3.5-3.5h10.7c1.9,0,3.5,1.6,3.5,3.5v9.6
	C470.7,107.2,469.1,108.8,467.2,108.8z"/>
<path class="st5" d="M111.1,140.1H66.3c-1.4,0-2.6-1.2-2.6-2.6V132c0-1.4,1.2-2.6,2.6-2.6h44.8c1.4,0,2.6,1.2,2.6,2.6v5.5
	C113.7,138.9,112.5,140.1,111.1,140.1z"/>
<path class="st5" d="M345.2,142.4h-42c-1.4,0-2.6-1.2-2.6-2.6v-4.9c0-1.4,1.2-2.6,2.6-2.6h42c1.4,0,2.6,1.2,2.6,2.6v4.9
	C347.8,141.2,346.7,142.4,345.2,142.4z"/>
<path class="st5" d="M469.3,146.3h-15.7c-0.5,0-0.9-0.4-0.9-0.9v-3.2c0-0.5,0.4-0.9,0.9-0.9h15.7c0.5,0,0.9,0.4,0.9,0.9v3.2
	C470.2,145.9,469.8,146.3,469.3,146.3z"/>
<circle class="st6" cx="88.7" cy="72.7" r="17"/>
<g>
	<circle class="st5" cx="308.3" cy="62.5" r="10.1"/>
	<circle class="st6" cx="308.3" cy="89.1" r="10.1"/>
	<circle class="st6" cx="308.3" cy="115.8" r="10.1"/>
	<circle class="st5" cx="340.1" cy="89.1" r="10.1"/>
	<circle class="st6" cx="340.1" cy="115.8" r="10.1"/>
	<circle class="st6" cx="340.1" cy="62.5" r="10.1"/>
</g>
<g>
	<path class="st6" d="M230.4,78.1h-34.2c-1.4,0-2.6-1.2-2.6-2.6V63.3c0-1.4,1.2-2.6,2.6-2.6h34.2c1.4,0,2.6,1.2,2.6,2.6v12.2
		C233,76.9,231.9,78.1,230.4,78.1z"/>
	<path class="st6" d="M230.4,106.2h-34.2c-1.4,0-2.6-1.2-2.6-2.6V91.5c0-1.4,1.2-2.6,2.6-2.6h34.2c1.4,0,2.6,1.2,2.6,2.6v12.2
		C233,105.1,231.9,106.2,230.4,106.2z"/>
	<path class="st6" d="M230.4,134.1h-34.2c-1.4,0-2.6-1.2-2.6-2.6v-12.2c0-1.4,1.2-2.6,2.6-2.6h34.2c1.4,0,2.6,1.2,2.6,2.6v12.2
		C233,133,231.9,134.1,230.4,134.1z"/>
	<circle class="st5" cx="181.4" cy="69.7" r="9"/>
	<circle class="st5" cx="181.4" cy="97.6" r="9"/>
	<circle class="st5" cx="181.4" cy="125.5" r="9"/>
</g>
<polyline class="st7" points="160.9,172.7 165.1,168.5 160.5,163.9 "/>
<polyline class="st7" points="263.8,18.9 268,14.7 263.5,10.2 "/>
<polyline class="st7" points="380.4,163.9 384.6,159.7 380,155.2 "/>
</svg>
