<?xml version="1.0" encoding="utf-8"?>
<!-- Generator: Adobe Illustrator 22.1.0, SVG Export Plug-In . SVG Version: 6.00 Build 0)  -->
<svg version="1.1" id="Camada_1" xmlns="http://www.w3.org/2000/svg" xmlns:xlink="http://www.w3.org/1999/xlink" x="0px" y="0px"
	 viewBox="0 0 212.1 509.6" style="enable-background:new 0 0 212.1 509.6;" xml:space="preserve">
<style type="text/css">
	.st0{fill:none;stroke:#DFA12B;stroke-width:0.4969;stroke-miterlimit:10;stroke-dasharray:1.4919,1.4919;}
	.st1{fill:none;stroke:#DFA12B;stroke-width:0.8325;stroke-miterlimit:10;stroke-dasharray:2.4992,2.4992;}
	.st2{fill:none;stroke:#DFA12B;stroke-width:0.5692;stroke-miterlimit:10;stroke-dasharray:1.7089,1.7089;}
	.st3{fill:#FFFFFF;}
	.st4{enable-background:new    ;}
	.st5{fill:#21559D;}
	.st6{fill:#DFA12B;}
	.st7{fill:none;stroke:#DFA12B;stroke-width:1.292;stroke-linecap:round;stroke-linejoin:round;stroke-miterlimit:10;}
</style>
<path class="st0" d="M137.2,105.7c0,0,41.7,62.2-7.3,62.2c-7.3,0-14.6,0.9-21.7,2.9c-6,1.7-11.9,4.1-17.3,7.3
	c-15.8,9.2-29.2,24.3-32.8,42.7c-1,5-1.6,10.1-1.9,15.2c-0.4,6.2-0.2,12.5,0.6,18.6c0.9,6.9,2.6,13.7,5.2,20.1
	c2.9,7.1,6.9,13.7,11.9,19.5c1.2,1.5,2.5,2.9,3.9,4.2c36.1,36.1,54,31,54,31s57,39-1.5,97.5"/>
<g>
	<ellipse class="st1" cx="82.9" cy="33.4" rx="27" ry="27"/>
</g>
<g>
	<circle class="st0" cx="127.1" cy="93.4" r="16.2"/>
</g>
<g>
	<circle class="st2" cx="75.9" cy="447.9" r="18.5"/>
</g>
<g>
	<g>
		<path class="st3" d="M124.8,23.3H83.2c-4,0-7.3,3.3-7.3,7.3v65.7c0,4,3.3,7.3,7.3,7.3h41.6c4,0,7.3-3.3,7.3-7.3V30.7
			C132.1,26.6,128.8,23.3,124.8,23.3z"/>
	</g>
</g>
<g>
	<g>
		<path class="st3" d="M124.7,137.2H83.1c-4,0-7.3,3.3-7.3,7.3v65.7c0,4,3.3,7.3,7.3,7.3h41.6c4,0,7.3-3.3,7.3-7.3v-65.6
			C132.1,140.5,128.7,137.2,124.7,137.2z"/>
	</g>
</g>
<g>
	<g>
		<path class="st3" d="M124.7,261.7H83.1c-4,0-7.3,3.3-7.3,7.3v65.7c0,4,3.3,7.3,7.3,7.3h41.6c4,0,7.3-3.3,7.3-7.3v-65.6
			C132,265,128.8,261.7,124.7,261.7z"/>
	</g>
</g>
<g>
	<g>
		<path class="st3" d="M124.7,376.5H83.1c-4,0-7.3,3.3-7.3,7.3v65.7c0,4,3.3,7.3,7.3,7.3h41.6c4,0,7.3-3.3,7.3-7.3v-65.6
			C132,379.8,128.8,376.5,124.7,376.5z"/>
	</g>
</g>
<g>
	<path class="st3" d="M86.4,116.2c0.4,0.3,0.6,0.7,0.8,1.2h-0.6c-0.1-0.3-0.4-0.6-0.6-0.8c-0.3-0.2-0.6-0.3-1-0.3
		c-0.3,0-0.6,0.1-0.9,0.2c-0.2,0.1-0.4,0.4-0.6,0.6c-0.1,0.3-0.2,0.6-0.2,1c0,0.4,0.1,0.7,0.2,1c0.1,0.3,0.4,0.5,0.6,0.6
		s0.5,0.2,0.9,0.2c0.4,0,0.7-0.1,1-0.3c0.3-0.2,0.5-0.4,0.6-0.8h0.6c-0.1,0.5-0.4,0.9-0.8,1.2c-0.4,0.3-0.9,0.4-1.4,0.4
		c-0.4,0-0.9-0.1-1.2-0.3c-0.4-0.2-0.6-0.5-0.8-0.9c-0.2-0.4-0.3-0.8-0.3-1.3c0-0.5,0.1-0.9,0.3-1.3c0.2-0.4,0.5-0.6,0.8-0.9
		c0.4-0.2,0.7-0.3,1.2-0.3C85.5,115.8,86,115.9,86.4,116.2z"/>
	<path class="st3" d="M90.4,117.1c0.3,0.2,0.4,0.4,0.5,0.7v-0.9h0.6v3.8h-0.6v-0.9c-0.1,0.3-0.3,0.6-0.5,0.7
		c-0.3,0.2-0.6,0.3-0.9,0.3c-0.4,0-0.6-0.1-0.9-0.2c-0.3-0.1-0.5-0.4-0.6-0.6c-0.1-0.3-0.2-0.6-0.2-1c0-0.4,0.1-0.7,0.2-1
		c0.1-0.3,0.4-0.5,0.6-0.6s0.6-0.2,0.9-0.2C89.9,116.9,90.2,116.9,90.4,117.1z M88.8,117.8c-0.2,0.2-0.4,0.6-0.4,1s0.1,0.8,0.4,1
		c0.2,0.2,0.6,0.4,0.9,0.4c0.2,0,0.5-0.1,0.6-0.1c0.2-0.1,0.4-0.3,0.4-0.5c0.1-0.2,0.1-0.4,0.1-0.7c0-0.3-0.1-0.5-0.1-0.7
		c-0.1-0.2-0.3-0.4-0.4-0.5c-0.2-0.1-0.4-0.1-0.6-0.1C89.3,117.4,89,117.5,88.8,117.8z"/>
	<path class="st3" d="M95,117.1c0.3,0.2,0.4,0.4,0.5,0.7v-2.3h0.6v5h-0.6v-0.9c-0.1,0.3-0.3,0.6-0.5,0.7c-0.3,0.2-0.6,0.3-0.9,0.3
		c-0.4,0-0.6-0.1-0.9-0.2c-0.3-0.1-0.5-0.4-0.6-0.6c-0.1-0.3-0.2-0.6-0.2-1c0-0.4,0.1-0.7,0.2-1c0.1-0.3,0.4-0.5,0.6-0.6
		s0.6-0.2,0.9-0.2C94.5,116.9,94.8,116.9,95,117.1z M93.4,117.8c-0.2,0.2-0.4,0.6-0.4,1s0.1,0.8,0.4,1c0.2,0.2,0.6,0.4,0.9,0.4
		c0.2,0,0.5-0.1,0.6-0.1c0.2-0.1,0.4-0.3,0.4-0.5c0.1-0.2,0.1-0.4,0.1-0.7c0-0.3-0.1-0.5-0.1-0.7c-0.1-0.2-0.3-0.4-0.4-0.5
		c-0.2-0.1-0.4-0.1-0.6-0.1C93.9,117.4,93.6,117.5,93.4,117.8z"/>
	<path class="st3" d="M99.6,117.1c0.3,0.2,0.4,0.4,0.5,0.7v-0.9h0.6v3.8h-0.6v-0.9c-0.1,0.3-0.3,0.6-0.5,0.7
		c-0.3,0.2-0.6,0.3-0.9,0.3c-0.4,0-0.6-0.1-0.9-0.2c-0.3-0.1-0.5-0.4-0.6-0.6c-0.1-0.3-0.2-0.6-0.2-1c0-0.4,0.1-0.7,0.2-1
		c0.1-0.3,0.4-0.5,0.6-0.6s0.6-0.2,0.9-0.2C99.1,116.9,99.4,116.9,99.6,117.1z M97.9,117.8c-0.2,0.2-0.4,0.6-0.4,1s0.1,0.8,0.4,1
		c0.2,0.2,0.6,0.4,0.9,0.4c0.2,0,0.5-0.1,0.6-0.1c0.2-0.1,0.4-0.3,0.4-0.5c0.1-0.2,0.1-0.4,0.1-0.7c0-0.3-0.1-0.5-0.1-0.7
		c-0.1-0.2-0.3-0.4-0.4-0.5c-0.2-0.1-0.4-0.1-0.6-0.1C98.5,117.4,98.2,117.5,97.9,117.8z"/>
	<path class="st3" d="M104,117.1c0.3,0.2,0.4,0.5,0.5,0.9h-0.6c0-0.2-0.1-0.4-0.3-0.6c-0.1-0.1-0.4-0.2-0.6-0.2
		c-0.2,0-0.4,0.1-0.5,0.1c-0.1,0.1-0.2,0.3-0.2,0.4c0,0.1,0.1,0.2,0.1,0.4c0.1,0.1,0.2,0.1,0.3,0.2c0.1,0.1,0.3,0.1,0.5,0.1
		c0.3,0.1,0.5,0.1,0.6,0.2c0.1,0.1,0.3,0.1,0.4,0.3s0.2,0.4,0.2,0.6c0,0.3-0.1,0.6-0.4,0.7c-0.2,0.2-0.6,0.3-0.9,0.3
		c-0.4,0-0.8-0.1-1.1-0.4s-0.4-0.5-0.5-0.9h0.6c0,0.2,0.1,0.4,0.3,0.6c0.1,0.1,0.4,0.2,0.7,0.2c0.2,0,0.4-0.1,0.5-0.1
		c0.1-0.1,0.2-0.3,0.2-0.4c0-0.1-0.1-0.3-0.1-0.4c-0.1-0.1-0.2-0.1-0.4-0.2s-0.3-0.1-0.5-0.1c-0.3-0.1-0.5-0.1-0.6-0.2
		c-0.1-0.1-0.3-0.1-0.4-0.3s-0.1-0.4-0.1-0.6c0-0.3,0.1-0.6,0.4-0.8s0.6-0.3,0.9-0.3C103.3,116.9,103.7,116.9,104,117.1z"/>
	<path class="st3" d="M107.1,120.1v0.6h-0.5c-0.4,0-0.6-0.1-0.9-0.3c-0.2-0.2-0.3-0.5-0.3-0.9v-2h-0.6v-0.6h0.6v-0.9h0.6v0.9h1v0.6
		h-1v2.1c0,0.2,0.1,0.4,0.1,0.5c0.1,0.1,0.2,0.1,0.4,0.1L107.1,120.1L107.1,120.1z"/>
	<path class="st3" d="M109,117.1c0.2-0.1,0.5-0.2,0.9-0.2v0.7h-0.2c-0.4,0-0.6,0.1-0.9,0.3c-0.2,0.2-0.4,0.5-0.4,0.9v2h-0.6V117h0.6
		v0.8C108.6,117.4,108.7,117.2,109,117.1z"/>
	<path class="st3" d="M113.8,118.9h-3c0,0.4,0.1,0.8,0.4,1c0.2,0.2,0.5,0.4,0.9,0.4c0.3,0,0.6-0.1,0.8-0.2c0.2-0.1,0.4-0.4,0.4-0.6
		h0.6c-0.1,0.3-0.1,0.5-0.3,0.7c-0.1,0.2-0.4,0.4-0.6,0.5c-0.3,0.1-0.5,0.1-0.9,0.1c-0.4,0-0.7-0.1-0.9-0.2
		c-0.3-0.1-0.5-0.4-0.6-0.6c-0.1-0.3-0.2-0.6-0.2-1c0-0.4,0.1-0.7,0.2-1c0.1-0.3,0.4-0.5,0.6-0.6s0.6-0.2,0.9-0.2
		c0.4,0,0.7,0.1,0.9,0.2c0.3,0.1,0.5,0.4,0.6,0.6c0.1,0.3,0.2,0.6,0.2,0.9C113.9,118.7,113.9,118.8,113.8,118.9z M113.1,117.9
		c-0.1-0.2-0.2-0.4-0.4-0.4c-0.2-0.1-0.4-0.1-0.6-0.1c-0.4,0-0.6,0.1-0.9,0.3c-0.2,0.2-0.4,0.5-0.4,0.9h2.4
		C113.3,118.3,113.2,118.1,113.1,117.9z"/>
	<path class="st3" d="M116.8,117.9v0.5h-2.7v-0.5H116.8z"/>
	<path class="st3" d="M120.2,117.1c0.3,0.2,0.4,0.5,0.5,0.9h-0.6c0-0.2-0.1-0.4-0.3-0.6c-0.1-0.1-0.4-0.2-0.6-0.2
		c-0.2,0-0.4,0.1-0.5,0.1c-0.1,0.1-0.2,0.3-0.2,0.4c0,0.1,0.1,0.2,0.1,0.4c0.1,0.1,0.2,0.1,0.3,0.2c0.1,0.1,0.3,0.1,0.5,0.1
		c0.3,0.1,0.5,0.1,0.6,0.2c0.1,0.1,0.3,0.1,0.4,0.3s0.2,0.4,0.2,0.6c0,0.3-0.1,0.6-0.4,0.7c-0.2,0.2-0.6,0.3-0.9,0.3
		c-0.4,0-0.8-0.1-1.1-0.4s-0.4-0.5-0.5-0.9h0.6c0,0.2,0.1,0.4,0.3,0.6c0.1,0.1,0.4,0.2,0.7,0.2c0.2,0,0.4-0.1,0.5-0.1
		c0.1-0.1,0.2-0.3,0.2-0.4c0-0.1-0.1-0.3-0.1-0.4c-0.1-0.1-0.2-0.1-0.4-0.2c-0.1-0.1-0.3-0.1-0.5-0.1c-0.3-0.1-0.5-0.1-0.6-0.2
		c-0.1-0.1-0.3-0.1-0.4-0.3s-0.1-0.4-0.1-0.6c0-0.3,0.1-0.6,0.4-0.8c0.2-0.2,0.6-0.3,0.9-0.3C119.6,116.9,120,116.9,120.2,117.1z"/>
	<path class="st3" d="M124.9,118.9h-3c0,0.4,0.1,0.8,0.4,1c0.2,0.2,0.5,0.4,0.9,0.4c0.3,0,0.6-0.1,0.8-0.2c0.2-0.1,0.4-0.4,0.4-0.6
		h0.6c-0.1,0.3-0.1,0.5-0.3,0.7c-0.1,0.2-0.4,0.4-0.6,0.5c-0.3,0.1-0.5,0.1-0.9,0.1c-0.4,0-0.7-0.1-0.9-0.2
		c-0.3-0.1-0.5-0.4-0.6-0.6c-0.1-0.3-0.2-0.6-0.2-1c0-0.4,0.1-0.7,0.2-1c0.1-0.3,0.4-0.5,0.6-0.6s0.6-0.2,0.9-0.2
		c0.4,0,0.7,0.1,0.9,0.2c0.3,0.1,0.5,0.4,0.6,0.6c0.1,0.3,0.2,0.6,0.2,0.9C124.9,118.7,124.9,118.8,124.9,118.9z M124.2,117.9
		c-0.1-0.2-0.2-0.4-0.4-0.4c-0.2-0.1-0.4-0.1-0.6-0.1c-0.4,0-0.6,0.1-0.9,0.3c-0.2,0.2-0.4,0.5-0.4,0.9h2.4
		C124.4,118.3,124.3,118.1,124.2,117.9z"/>
</g>
<g>
	<g class="st4">
		<path class="st3" d="M87.1,230.2v1.6h1.8v0.5h-1.8v1.7h2.1v0.5h-2.6v-4.8h2.6v0.5H87.1L87.1,230.2z"/>
		<path class="st3" d="M93,231.1c0.3,0.3,0.4,0.7,0.4,1.2v2.2h-0.6v-2.1c0-0.4-0.1-0.6-0.3-0.9c-0.2-0.2-0.4-0.3-0.8-0.3
			c-0.4,0-0.6,0.1-0.9,0.4c-0.2,0.2-0.3,0.6-0.3,1v2h-0.6v-3.8h0.6v0.9c0.1-0.3,0.3-0.6,0.5-0.7c0.2-0.1,0.5-0.2,0.9-0.2
			C92.3,230.7,92.7,230.9,93,231.1z"/>
		<path class="st3" d="M97.2,231.1c0.3,0.3,0.5,0.6,0.6,1h-0.6c-0.1-0.3-0.1-0.5-0.4-0.6c-0.2-0.1-0.4-0.2-0.8-0.2
			c-0.2,0-0.4,0.1-0.6,0.1c-0.2,0.1-0.4,0.3-0.4,0.4c-0.1,0.2-0.1,0.5-0.1,0.8s0.1,0.6,0.1,0.8c0.1,0.2,0.3,0.4,0.4,0.4
			c0.2,0.1,0.4,0.1,0.6,0.1c0.3,0,0.6-0.1,0.8-0.2c0.2-0.1,0.4-0.4,0.4-0.6h0.6c-0.1,0.4-0.3,0.8-0.6,1c-0.3,0.3-0.7,0.4-1.2,0.4
			c-0.4,0-0.7-0.1-0.9-0.2c-0.3-0.1-0.5-0.4-0.6-0.6c-0.1-0.3-0.2-0.6-0.2-1c0-0.4,0.1-0.7,0.2-1c0.1-0.3,0.4-0.5,0.6-0.6
			c0.3-0.1,0.6-0.2,0.9-0.2C96.5,230.7,96.8,230.9,97.2,231.1z"/>
		<path class="st3" d="M101.2,231c0.3,0.1,0.5,0.4,0.6,0.6s0.2,0.6,0.2,1c0,0.4-0.1,0.7-0.2,1s-0.4,0.5-0.6,0.6
			c-0.3,0.1-0.6,0.2-1,0.2c-0.4,0-0.7-0.1-1-0.2c-0.3-0.1-0.5-0.4-0.6-0.6s-0.2-0.6-0.2-1c0-0.4,0.1-0.7,0.2-1s0.4-0.5,0.6-0.6
			c0.3-0.1,0.6-0.2,1-0.2C100.6,230.7,100.9,230.8,101.2,231z M99.6,231.5c-0.2,0.1-0.4,0.3-0.4,0.4c-0.1,0.2-0.1,0.5-0.1,0.8
			c0,0.3,0.1,0.6,0.1,0.8c0.1,0.2,0.3,0.4,0.4,0.4c0.1,0.1,0.4,0.1,0.6,0.1c0.2,0,0.4-0.1,0.6-0.1c0.2-0.1,0.4-0.3,0.4-0.4
			c0.1-0.2,0.1-0.4,0.1-0.8c0-0.3-0.1-0.6-0.1-0.8c-0.1-0.2-0.3-0.4-0.4-0.4c-0.2-0.1-0.4-0.1-0.6-0.1
			C100,231.2,99.8,231.3,99.6,231.5z"/>
		<path class="st3" d="M106,231.1c0.3,0.3,0.4,0.7,0.4,1.2v2.2h-0.6v-2.1c0-0.4-0.1-0.6-0.3-0.9c-0.2-0.2-0.4-0.3-0.8-0.3
			c-0.4,0-0.6,0.1-0.9,0.4c-0.2,0.2-0.3,0.6-0.3,1v2h-0.6v-3.8h0.6v0.9c0.1-0.3,0.3-0.6,0.5-0.7c0.2-0.1,0.5-0.2,0.9-0.2
			C105.3,230.7,105.7,230.9,106,231.1z"/>
		<path class="st3" d="M109.1,233.9v0.6h-0.5c-0.4,0-0.6-0.1-0.9-0.3c-0.2-0.2-0.3-0.5-0.3-0.9v-2h-0.6v-0.6h0.6v-0.9h0.6v0.9h1v0.6
			h-1v2.1c0,0.2,0.1,0.4,0.1,0.5c0.1,0.1,0.2,0.1,0.4,0.1L109.1,233.9L109.1,233.9z"/>
		<path class="st3" d="M111,231c0.2-0.1,0.5-0.2,0.9-0.2v0.7h-0.2c-0.4,0-0.6,0.1-0.9,0.3c-0.2,0.2-0.4,0.5-0.4,0.9v2h-0.6v-3.8h0.6
			v0.8C110.6,231.2,110.8,231.1,111,231z"/>
		<path class="st3" d="M115.9,232.8h-3c0,0.4,0.1,0.8,0.4,1c0.2,0.2,0.5,0.4,0.9,0.4c0.3,0,0.6-0.1,0.8-0.2c0.2-0.1,0.4-0.4,0.4-0.6
			h0.6c-0.1,0.3-0.1,0.5-0.3,0.7c-0.1,0.2-0.4,0.4-0.6,0.5c-0.3,0.1-0.5,0.1-0.9,0.1c-0.4,0-0.7-0.1-0.9-0.2
			c-0.3-0.1-0.5-0.4-0.6-0.6s-0.2-0.6-0.2-1c0-0.4,0.1-0.7,0.2-1s0.4-0.5,0.6-0.6c0.3-0.1,0.6-0.2,0.9-0.2c0.4,0,0.7,0.1,0.9,0.2
			c0.3,0.1,0.5,0.4,0.6,0.6s0.2,0.6,0.2,0.9C115.9,232.6,115.9,232.7,115.9,232.8z M115.1,231.8c-0.1-0.2-0.2-0.4-0.4-0.4
			s-0.4-0.1-0.6-0.1c-0.4,0-0.6,0.1-0.9,0.3c-0.2,0.2-0.4,0.5-0.4,0.9h2.4C115.2,232.2,115.2,231.9,115.1,231.8z"/>
		<path class="st3" d="M121.1,231c0.3,0.1,0.5,0.4,0.6,0.6s0.2,0.6,0.2,1c0,0.4-0.1,0.7-0.2,1s-0.4,0.5-0.6,0.6
			c-0.3,0.1-0.6,0.2-1,0.2s-0.7-0.1-1-0.2c-0.3-0.1-0.5-0.4-0.6-0.6s-0.2-0.6-0.2-1c0-0.4,0.1-0.7,0.2-1s0.4-0.5,0.6-0.6
			c0.3-0.1,0.6-0.2,1-0.2S120.8,230.8,121.1,231z M119.4,231.5c-0.2,0.1-0.4,0.3-0.4,0.4c-0.1,0.2-0.1,0.5-0.1,0.8
			c0,0.3,0.1,0.6,0.1,0.8c0.1,0.2,0.3,0.4,0.4,0.4c0.2,0.1,0.4,0.1,0.6,0.1c0.2,0,0.4-0.1,0.6-0.1c0.2-0.1,0.4-0.3,0.4-0.4
			c0.1-0.2,0.1-0.4,0.1-0.8c0-0.3-0.1-0.6-0.1-0.8c-0.1-0.2-0.3-0.4-0.4-0.4c-0.2-0.1-0.4-0.1-0.6-0.1
			C119.8,231.2,119.6,231.3,119.4,231.5z"/>
	</g>
	<g class="st4">
		<path class="st3" d="M84.6,239.3c0.3,0.3,0.4,0.7,0.4,1.2v2.2h-0.6v-2.1c0-0.4-0.1-0.6-0.3-0.9c-0.2-0.2-0.4-0.3-0.7-0.3
			c-0.4,0-0.6,0.1-0.8,0.4c-0.2,0.2-0.3,0.6-0.3,0.9v2h-0.6v-2.1c0-0.4-0.1-0.6-0.3-0.9c-0.2-0.2-0.4-0.3-0.7-0.3
			c-0.4,0-0.6,0.1-0.8,0.4c-0.2,0.2-0.3,0.6-0.3,0.9v2H79V239h0.6v0.9c0.1-0.3,0.3-0.5,0.5-0.7c0.2-0.1,0.5-0.2,0.8-0.2
			s0.6,0.1,0.9,0.2c0.2,0.1,0.4,0.4,0.5,0.7c0.1-0.3,0.3-0.6,0.5-0.7c0.2-0.1,0.5-0.3,0.9-0.3C83.9,238.9,84.3,239,84.6,239.3z"/>
		<path class="st3" d="M88.6,239.1c0.3,0.1,0.5,0.4,0.6,0.6c0.1,0.3,0.2,0.6,0.2,1c0,0.4-0.1,0.7-0.2,1c-0.1,0.3-0.4,0.5-0.6,0.6
			c-0.3,0.1-0.6,0.2-1,0.2c-0.4,0-0.7-0.1-1-0.2s-0.5-0.4-0.6-0.6c-0.1-0.3-0.2-0.6-0.2-1c0-0.4,0.1-0.7,0.2-1s0.4-0.5,0.6-0.6
			c0.3-0.1,0.6-0.2,1-0.2C88,238.9,88.3,239,88.6,239.1z M87,239.6c-0.2,0.1-0.4,0.3-0.4,0.4s-0.1,0.5-0.1,0.8
			c0,0.3,0.1,0.6,0.1,0.8c0.1,0.2,0.3,0.4,0.4,0.4c0.2,0.1,0.4,0.1,0.6,0.1c0.2,0,0.4-0.1,0.6-0.1c0.2-0.1,0.4-0.3,0.4-0.4
			c0.1-0.2,0.1-0.4,0.1-0.8c0-0.3-0.1-0.6-0.1-0.8s-0.3-0.4-0.4-0.4c-0.2-0.1-0.4-0.1-0.6-0.1C87.4,239.5,87.2,239.5,87,239.6z"/>
		<path class="st3" d="M92.1,242.2v0.6h-0.5c-0.4,0-0.6-0.1-0.9-0.3c-0.2-0.2-0.3-0.5-0.3-0.9v-2.1h-0.6v-0.6h0.6V238h0.6v0.9h1v0.6
			h-1v2.1c0,0.2,0.1,0.4,0.1,0.5c0.1,0.1,0.2,0.1,0.4,0.1L92.1,242.2L92.1,242.2z"/>
		<path class="st3" d="M95.5,239.1c0.3,0.1,0.5,0.4,0.6,0.6s0.2,0.6,0.2,1c0,0.4-0.1,0.7-0.2,1c-0.1,0.3-0.4,0.5-0.6,0.6
			s-0.6,0.2-1,0.2c-0.4,0-0.7-0.1-1-0.2c-0.3-0.1-0.5-0.4-0.6-0.6c-0.1-0.3-0.2-0.6-0.2-1c0-0.4,0.1-0.7,0.2-1s0.4-0.5,0.6-0.6
			c0.3-0.1,0.6-0.2,1-0.2C94.9,238.9,95.2,239,95.5,239.1z M93.9,239.6c-0.2,0.1-0.4,0.3-0.4,0.4c-0.1,0.1-0.1,0.5-0.1,0.8
			c0,0.3,0.1,0.6,0.1,0.8c0.1,0.2,0.3,0.4,0.4,0.4c0.2,0.1,0.4,0.1,0.6,0.1c0.2,0,0.4-0.1,0.6-0.1c0.2-0.1,0.4-0.3,0.4-0.4
			c0.1-0.2,0.1-0.4,0.1-0.8c0-0.3-0.1-0.6-0.1-0.8s-0.3-0.4-0.4-0.4c-0.2-0.1-0.4-0.1-0.6-0.1C94.3,239.5,94,239.5,93.9,239.6z"/>
		<path class="st3" d="M98.4,239.1c0.2-0.1,0.5-0.2,0.9-0.2v0.7H99c-0.4,0-0.6,0.1-0.9,0.3c-0.2,0.2-0.4,0.5-0.4,0.9v2h-0.6V239h0.6
			v0.8C97.9,239.5,98.1,239.3,98.4,239.1z"/>
		<path class="st3" d="M99.8,237.5c0.1-0.1,0.2-0.1,0.3-0.1c0.1,0,0.2,0.1,0.3,0.1c0.1,0.1,0.1,0.1,0.1,0.3c0,0.1-0.1,0.2-0.1,0.3
			c-0.1,0.1-0.2,0.1-0.3,0.1c-0.1,0-0.2-0.1-0.3-0.1c-0.1-0.1-0.1-0.1-0.1-0.3C99.7,237.8,99.7,237.6,99.8,237.5z M100.4,239v3.8
			h-0.6V239H100.4z"/>
		<path class="st3" d="M103.6,239.3c0.3,0.2,0.4,0.5,0.5,0.9h-0.6c0-0.2-0.1-0.4-0.3-0.6c-0.1-0.1-0.4-0.2-0.6-0.2
			c-0.2,0-0.4,0.1-0.5,0.1c-0.1,0.1-0.2,0.3-0.2,0.4s0.1,0.2,0.1,0.4c0.1,0.1,0.2,0.1,0.3,0.2c0.1,0.1,0.3,0.1,0.5,0.1
			c0.3,0.1,0.5,0.1,0.6,0.2c0.1,0.1,0.3,0.1,0.4,0.3c0.1,0.1,0.2,0.4,0.2,0.6c0,0.3-0.1,0.6-0.4,0.7c-0.2,0.2-0.6,0.3-0.9,0.3
			c-0.4,0-0.8-0.1-1.1-0.4c-0.3-0.2-0.4-0.5-0.5-0.9h0.6c0,0.2,0.1,0.4,0.3,0.6c0.1,0.1,0.4,0.2,0.7,0.2c0.2,0,0.4-0.1,0.5-0.1
			c0.1-0.1,0.2-0.3,0.2-0.4c0-0.1-0.1-0.3-0.1-0.4c-0.1-0.1-0.2-0.1-0.4-0.2s-0.3-0.1-0.5-0.1c-0.3-0.1-0.5-0.1-0.6-0.2
			s-0.3-0.1-0.4-0.3c-0.1-0.1-0.1-0.4-0.1-0.6c0-0.3,0.1-0.6,0.4-0.8c0.2-0.2,0.6-0.3,0.9-0.3C103,238.9,103.3,239,103.6,239.3z"/>
		<path class="st3" d="M106.7,242.2v0.6h-0.5c-0.4,0-0.6-0.1-0.9-0.3c-0.2-0.2-0.3-0.5-0.3-0.9v-2.1h-0.6v-0.6h0.6V238h0.6v0.9h1
			v0.6h-1v2.1c0,0.2,0.1,0.4,0.1,0.5c0.1,0.1,0.2,0.1,0.4,0.1L106.7,242.2L106.7,242.2z"/>
		<path class="st3" d="M109.9,239.2c0.3,0.2,0.4,0.4,0.5,0.7V239h0.6v3.8h-0.6v-0.9c-0.1,0.3-0.3,0.6-0.5,0.7
			c-0.3,0.2-0.6,0.3-0.9,0.3c-0.4,0-0.6-0.1-0.9-0.2c-0.3-0.1-0.5-0.4-0.6-0.6s-0.2-0.6-0.2-1c0-0.4,0.1-0.7,0.2-1s0.4-0.5,0.6-0.6
			c0.3-0.1,0.6-0.2,0.9-0.2C109.4,238.9,109.6,239,109.9,239.2z M108.3,239.8c-0.2,0.2-0.4,0.6-0.4,1s0.1,0.8,0.4,1
			c0.2,0.2,0.6,0.4,0.9,0.4c0.2,0,0.5-0.1,0.6-0.1c0.2-0.1,0.4-0.3,0.4-0.5c0.1-0.2,0.1-0.4,0.1-0.7s-0.1-0.5-0.1-0.7
			c-0.1-0.2-0.3-0.4-0.4-0.5c-0.2-0.1-0.4-0.1-0.6-0.1C108.8,239.5,108.5,239.5,108.3,239.8z"/>
		<path class="st3" d="M113.8,237.5c0.1-0.1,0.2-0.1,0.3-0.1c0.1,0,0.2,0.1,0.3,0.1c0.1,0.1,0.1,0.1,0.1,0.3c0,0.1-0.1,0.2-0.1,0.3
			c-0.1,0.1-0.2,0.1-0.3,0.1c-0.1,0-0.2-0.1-0.3-0.1c-0.1-0.1-0.1-0.1-0.1-0.3C113.6,237.8,113.7,237.6,113.8,237.5z M114.4,239v3.8
			h-0.6V239H114.4z"/>
		<path class="st3" d="M117.8,239.2c0.3,0.2,0.4,0.4,0.5,0.7v-2.3h0.6v5h-0.6v-0.9c-0.1,0.3-0.3,0.6-0.5,0.7
			c-0.3,0.2-0.6,0.3-0.9,0.3c-0.4,0-0.6-0.1-0.9-0.2c-0.3-0.1-0.5-0.4-0.6-0.6c-0.1-0.3-0.2-0.6-0.2-1c0-0.4,0.1-0.7,0.2-1
			c0.1-0.3,0.4-0.5,0.6-0.6c0.3-0.1,0.6-0.2,0.9-0.2C117.2,238.9,117.6,239,117.8,239.2z M116.2,239.8c-0.2,0.2-0.4,0.6-0.4,1
			s0.1,0.8,0.4,1c0.2,0.2,0.6,0.4,0.9,0.4c0.2,0,0.5-0.1,0.6-0.1c0.2-0.1,0.4-0.3,0.4-0.5c0.1-0.2,0.1-0.4,0.1-0.7s-0.1-0.5-0.1-0.7
			c-0.1-0.2-0.3-0.4-0.4-0.5c-0.2-0.1-0.4-0.1-0.6-0.1C116.7,239.5,116.4,239.5,116.2,239.8z"/>
		<path class="st3" d="M123.3,241h-3c0,0.4,0.1,0.8,0.4,1c0.2,0.2,0.5,0.4,0.9,0.4c0.3,0,0.6-0.1,0.8-0.2c0.2-0.1,0.4-0.4,0.4-0.6
			h0.6c-0.1,0.3-0.1,0.5-0.3,0.7c-0.1,0.2-0.4,0.4-0.6,0.5c-0.3,0.1-0.5,0.1-0.9,0.1c-0.4,0-0.7-0.1-0.9-0.2
			c-0.3-0.1-0.5-0.4-0.6-0.6s-0.2-0.6-0.2-1c0-0.4,0.1-0.7,0.2-1s0.4-0.5,0.6-0.6c0.3-0.1,0.6-0.2,0.9-0.2c0.4,0,0.7,0.1,0.9,0.2
			c0.3,0.1,0.5,0.4,0.6,0.6c0.1,0.3,0.2,0.6,0.2,0.9C123.4,240.7,123.4,240.9,123.3,241z M122.6,240c-0.1-0.2-0.2-0.4-0.4-0.4
			c-0.2-0.1-0.4-0.1-0.6-0.1c-0.4,0-0.6,0.1-0.9,0.3c-0.2,0.2-0.4,0.5-0.4,0.9h2.4C122.8,240.4,122.8,240.1,122.6,240z"/>
		<path class="st3" d="M126.7,239.2c0.3,0.2,0.4,0.4,0.5,0.7V239h0.6v3.8h-0.6v-0.9c-0.1,0.3-0.3,0.6-0.5,0.7
			c-0.3,0.2-0.6,0.3-0.9,0.3c-0.4,0-0.6-0.1-0.9-0.2c-0.3-0.1-0.5-0.4-0.6-0.6c-0.1-0.3-0.2-0.6-0.2-1c0-0.4,0.1-0.7,0.2-1
			c0.1-0.3,0.4-0.5,0.6-0.6c0.3-0.1,0.6-0.2,0.9-0.2C126.1,238.9,126.4,239,126.7,239.2z M124.9,239.8c-0.2,0.2-0.4,0.6-0.4,1
			s0.1,0.8,0.4,1s0.6,0.4,0.9,0.4c0.2,0,0.5-0.1,0.6-0.1c0.2-0.1,0.4-0.3,0.4-0.5c0.1-0.2,0.1-0.4,0.1-0.7s-0.1-0.5-0.1-0.7
			c-0.1-0.2-0.3-0.4-0.4-0.5c-0.2-0.1-0.4-0.1-0.6-0.1C125.5,239.5,125.2,239.5,124.9,239.8z"/>
		<path class="st3" d="M129.4,237.6v5h-0.6v-5H129.4z"/>
	</g>
</g>
<g>
	<path class="st3" d="M79.5,354.8v1.6h1.8v0.5h-1.8v1.7h2.1v0.5H79v-4.8h2.6v0.5H79.5L79.5,354.8z"/>
	<path class="st3" d="M85.4,355.6c0.3,0.3,0.4,0.7,0.4,1.2v2.2h-0.6v-2.1c0-0.4-0.1-0.6-0.3-0.9c-0.2-0.2-0.4-0.3-0.8-0.3
		c-0.4,0-0.6,0.1-0.9,0.4c-0.2,0.2-0.3,0.6-0.3,1v2h-0.6v-3.8h0.6v0.9c0.1-0.3,0.3-0.6,0.5-0.7s0.5-0.2,0.9-0.2
		C84.8,355.2,85.1,355.4,85.4,355.6z"/>
	<path class="st3" d="M88.5,358.4v0.6H88c-0.4,0-0.6-0.1-0.9-0.3c-0.2-0.2-0.3-0.5-0.3-0.9v-2h-0.6v-0.6h0.6v-0.9h0.6v0.9h1v0.6h-1
		v2.1c0,0.2,0.1,0.4,0.1,0.5c0.1,0.1,0.2,0.1,0.4,0.1L88.5,358.4L88.5,358.4z"/>
	<path class="st3" d="M90.5,355.5c0.2-0.1,0.5-0.2,0.9-0.2v0.7h-0.2c-0.4,0-0.6,0.1-0.9,0.3c-0.2,0.2-0.4,0.5-0.4,0.9v2h-0.6v-3.8
		h0.6v0.8C90,355.7,90.2,355.6,90.5,355.5z"/>
	<path class="st3" d="M95.3,357.3h-3c0,0.4,0.1,0.8,0.4,1c0.2,0.2,0.5,0.4,0.9,0.4c0.3,0,0.6-0.1,0.8-0.2c0.2-0.1,0.4-0.4,0.4-0.6
		h0.6c-0.1,0.3-0.1,0.5-0.3,0.7c-0.1,0.2-0.4,0.4-0.6,0.5c-0.3,0.1-0.5,0.1-0.9,0.1c-0.4,0-0.7-0.1-0.9-0.2
		c-0.3-0.1-0.5-0.4-0.6-0.6c-0.1-0.3-0.2-0.6-0.2-1c0-0.4,0.1-0.7,0.2-1c0.1-0.3,0.4-0.5,0.6-0.6c0.3-0.1,0.6-0.2,0.9-0.2
		c0.4,0,0.7,0.1,0.9,0.2c0.3,0.1,0.5,0.4,0.6,0.6c0.1,0.3,0.2,0.6,0.2,0.9C95.3,357.1,95.3,357.2,95.3,357.3z M94.6,356.3
		c-0.1-0.2-0.2-0.4-0.4-0.4c-0.2-0.1-0.4-0.1-0.6-0.1c-0.4,0-0.6,0.1-0.9,0.3c-0.2,0.2-0.4,0.5-0.4,0.9h2.4
		C94.7,356.7,94.6,356.5,94.6,356.3z"/>
	<path class="st3" d="M100.9,355.6c0.3,0.3,0.4,0.7,0.4,1.2v2.2h-0.6v-2.1c0-0.4-0.1-0.6-0.3-0.9c-0.2-0.2-0.4-0.3-0.8-0.3
		c-0.4,0-0.6,0.1-0.9,0.4c-0.2,0.2-0.3,0.6-0.3,1v2h-0.6v-3.8h0.6v0.9c0.1-0.3,0.3-0.6,0.5-0.7c0.2-0.1,0.5-0.2,0.9-0.2
		C100.2,355.2,100.6,355.4,100.9,355.6z"/>
	<path class="st3" d="M104.6,355.5c0.3,0.2,0.4,0.4,0.5,0.7v-0.9h0.6v3.8h-0.6v-0.9c-0.1,0.3-0.3,0.6-0.5,0.7
		c-0.3,0.2-0.6,0.3-0.9,0.3c-0.4,0-0.6-0.1-0.9-0.2c-0.3-0.1-0.5-0.4-0.6-0.6c-0.1-0.3-0.2-0.6-0.2-1c0-0.4,0.1-0.7,0.2-1
		c0.1-0.3,0.4-0.5,0.6-0.6s0.6-0.2,0.9-0.2C104.1,355.2,104.4,355.3,104.6,355.5z M103,356.2c-0.2,0.2-0.4,0.6-0.4,1
		c0,0.4,0.1,0.8,0.4,1s0.6,0.4,0.9,0.4c0.2,0,0.5-0.1,0.6-0.1c0.2-0.1,0.4-0.3,0.4-0.5c0.1-0.2,0.1-0.4,0.1-0.7
		c0-0.3-0.1-0.5-0.1-0.7c-0.1-0.2-0.3-0.4-0.4-0.5c-0.2-0.1-0.4-0.1-0.6-0.1C103.5,355.8,103.2,355.9,103,356.2z"/>
	<path class="st3" d="M110.2,358.4v0.6h-0.5c-0.4,0-0.6-0.1-0.9-0.3c-0.2-0.2-0.3-0.5-0.3-0.9v-2H108v-0.6h0.6v-0.9h0.6v0.9h1v0.6
		h-1v2.1c0,0.2,0.1,0.4,0.1,0.5c0.1,0.1,0.2,0.1,0.4,0.1L110.2,358.4L110.2,358.4z"/>
	<path class="st3" d="M114.3,355.2v3.8h-0.6v-0.9c-0.1,0.3-0.3,0.6-0.5,0.7c-0.2,0.1-0.5,0.2-0.9,0.2c-0.4,0-0.8-0.1-1.1-0.4
		c-0.3-0.3-0.4-0.7-0.4-1.2v-2.2h0.6v2.1c0,0.4,0.1,0.6,0.3,0.9c0.2,0.2,0.4,0.3,0.8,0.3c0.4,0,0.6-0.1,0.9-0.4
		c0.2-0.2,0.3-0.6,0.3-1v-2L114.3,355.2L114.3,355.2z"/>
	<path class="st3" d="M116.5,355.5c0.2-0.1,0.5-0.2,0.9-0.2v0.7h-0.2c-0.4,0-0.6,0.1-0.9,0.3c-0.2,0.2-0.4,0.5-0.4,0.9v2h-0.6v-3.8
		h0.6v0.8C116,355.7,116.3,355.6,116.5,355.5z"/>
	<path class="st3" d="M123.6,355.6c0.3,0.3,0.4,0.7,0.4,1.2v2.2h-0.6v-2.1c0-0.4-0.1-0.6-0.3-0.9c-0.2-0.2-0.4-0.3-0.7-0.3
		c-0.4,0-0.6,0.1-0.8,0.4c-0.2,0.2-0.3,0.6-0.3,0.9v2h-0.6v-2.1c0-0.4-0.1-0.6-0.3-0.9s-0.4-0.3-0.7-0.3c-0.4,0-0.6,0.1-0.8,0.4
		c-0.2,0.2-0.3,0.6-0.3,0.9v2H118v-3.8h0.6v0.9c0.1-0.3,0.3-0.5,0.5-0.7c0.2-0.1,0.5-0.2,0.8-0.2c0.3,0,0.6,0.1,0.9,0.2
		c0.2,0.1,0.4,0.4,0.5,0.7c0.1-0.3,0.3-0.6,0.5-0.7c0.2-0.1,0.5-0.3,0.9-0.3C123,355.2,123.3,355.4,123.6,355.6z"/>
	<path class="st3" d="M127.4,355.5c0.3,0.2,0.4,0.4,0.5,0.7v-0.9h0.6v3.8h-0.6v-0.9c-0.1,0.3-0.3,0.6-0.5,0.7
		c-0.3,0.2-0.6,0.3-0.9,0.3c-0.4,0-0.6-0.1-0.9-0.2c-0.3-0.1-0.5-0.4-0.6-0.6c-0.1-0.3-0.2-0.6-0.2-1c0-0.4,0.1-0.7,0.2-1
		c0.1-0.3,0.4-0.5,0.6-0.6s0.6-0.2,0.9-0.2C126.8,355.2,127.1,355.3,127.4,355.5z M125.8,356.2c-0.2,0.2-0.4,0.6-0.4,1
		c0,0.4,0.1,0.8,0.4,1s0.6,0.4,0.9,0.4c0.2,0,0.5-0.1,0.6-0.1c0.2-0.1,0.4-0.3,0.4-0.5c0.1-0.2,0.1-0.4,0.1-0.7
		c0-0.3-0.1-0.5-0.1-0.7c-0.1-0.2-0.3-0.4-0.4-0.5c-0.2-0.1-0.4-0.1-0.6-0.1C126.2,355.8,126,355.9,125.8,356.2z"/>
</g>
<g>
	<g class="st4">
		<path class="st3" d="M83.9,467v0.5h-1.3v4.3h-0.6v-4.3h-1.3V467H83.9z"/>
		<path class="st3" d="M87.8,470h-3c0,0.4,0.1,0.8,0.4,1s0.5,0.4,0.9,0.4c0.3,0,0.6-0.1,0.8-0.2c0.2-0.1,0.4-0.4,0.4-0.6h0.6
			c-0.1,0.3-0.1,0.5-0.3,0.7c-0.1,0.2-0.4,0.4-0.6,0.5s-0.5,0.1-0.9,0.1c-0.4,0-0.7-0.1-0.9-0.2c-0.3-0.1-0.5-0.4-0.6-0.6
			c-0.1-0.3-0.2-0.6-0.2-1c0-0.4,0.1-0.7,0.2-1c0.1-0.3,0.4-0.5,0.6-0.6c0.3-0.1,0.6-0.2,0.9-0.2c0.4,0,0.7,0.1,0.9,0.2
			c0.3,0.1,0.5,0.4,0.6,0.6c0.1,0.3,0.2,0.6,0.2,0.9C87.9,469.8,87.9,469.9,87.8,470z M87.1,469c-0.1-0.2-0.2-0.4-0.4-0.4
			c-0.2-0.1-0.4-0.1-0.6-0.1c-0.4,0-0.6,0.1-0.9,0.3c-0.2,0.2-0.4,0.5-0.4,0.9h2.4C87.3,469.5,87.2,469.2,87.1,469z"/>
		<path class="st3" d="M91.7,468.4c0.3,0.3,0.4,0.7,0.4,1.2v2.2h-0.6v-2.1c0-0.4-0.1-0.6-0.3-0.9c-0.2-0.2-0.4-0.3-0.8-0.3
			c-0.4,0-0.6,0.1-0.9,0.4c-0.2,0.2-0.3,0.6-0.3,1v2h-0.6v-3.8h0.6v0.9c0.1-0.3,0.3-0.6,0.5-0.7c0.2-0.1,0.5-0.2,0.9-0.2
			C91.1,468,91.4,468.1,91.7,468.4z"/>
		<path class="st3" d="M96.1,468.4c0.3,0.3,0.4,0.7,0.4,1.2v2.2h-0.6v-2.1c0-0.4-0.1-0.6-0.3-0.9c-0.2-0.2-0.4-0.3-0.8-0.3
			c-0.4,0-0.6,0.1-0.9,0.4c-0.2,0.2-0.3,0.6-0.3,1v2H93v-5h0.6v2.2c0.1-0.3,0.3-0.6,0.5-0.7c0.2-0.1,0.5-0.2,0.9-0.2
			C95.5,468,95.8,468.1,96.1,468.4z"/>
		<path class="st3" d="M99.9,468.2c0.3,0.2,0.4,0.4,0.5,0.7V468h0.6v3.8h-0.6v-0.9c-0.1,0.3-0.3,0.6-0.5,0.7
			c-0.3,0.2-0.6,0.3-0.9,0.3c-0.4,0-0.6-0.1-0.9-0.2c-0.3-0.1-0.5-0.4-0.6-0.6c-0.1-0.3-0.2-0.6-0.2-1c0-0.4,0.1-0.7,0.2-1
			c0.1-0.3,0.4-0.5,0.6-0.6s0.6-0.2,0.9-0.2C99.3,468,99.7,468.1,99.9,468.2z M98.3,468.9c-0.2,0.2-0.4,0.6-0.4,1
			c0,0.4,0.1,0.8,0.4,1s0.6,0.4,0.9,0.4c0.2,0,0.5-0.1,0.6-0.1c0.2-0.1,0.4-0.3,0.4-0.5c0.1-0.2,0.1-0.4,0.1-0.7
			c0-0.3-0.1-0.5-0.1-0.7c-0.1-0.2-0.3-0.4-0.4-0.5c-0.2-0.1-0.4-0.1-0.6-0.1C98.7,468.5,98.5,468.7,98.3,468.9z"/>
		<path class="st3" d="M106.2,468.2c0.3,0.2,0.4,0.4,0.5,0.7V468h0.6v3.8h-0.6v-0.9c-0.1,0.3-0.3,0.6-0.5,0.7
			c-0.3,0.2-0.6,0.3-0.9,0.3c-0.4,0-0.6-0.1-0.9-0.2c-0.3-0.1-0.5-0.4-0.6-0.6c-0.1-0.3-0.2-0.6-0.2-1c0-0.4,0.1-0.7,0.2-1
			c0.1-0.3,0.4-0.5,0.6-0.6s0.6-0.2,0.9-0.2C105.6,468,105.9,468.1,106.2,468.2z M104.5,468.9c-0.2,0.2-0.4,0.6-0.4,1
			c0,0.4,0.1,0.8,0.4,1c0.2,0.2,0.6,0.4,0.9,0.4c0.2,0,0.5-0.1,0.6-0.1c0.2-0.1,0.4-0.3,0.4-0.5c0.1-0.2,0.1-0.4,0.1-0.7
			c0-0.3-0.1-0.5-0.1-0.7c-0.1-0.2-0.3-0.4-0.4-0.5c-0.2-0.1-0.4-0.1-0.6-0.1C105.1,468.5,104.7,468.7,104.5,468.9z"/>
		<path class="st3" d="M111.2,468.4c0.3,0.3,0.5,0.6,0.6,1h-0.6c-0.1-0.3-0.1-0.5-0.4-0.6s-0.4-0.2-0.8-0.2c-0.2,0-0.4,0.1-0.6,0.1
			c-0.2,0.1-0.4,0.3-0.4,0.4c-0.1,0.2-0.1,0.5-0.1,0.8s0.1,0.6,0.1,0.8c0.1,0.2,0.3,0.4,0.4,0.4c0.1,0.1,0.4,0.1,0.6,0.1
			c0.3,0,0.6-0.1,0.8-0.2c0.2-0.1,0.4-0.4,0.4-0.6h0.6c-0.1,0.4-0.3,0.8-0.6,1c-0.3,0.3-0.7,0.4-1.2,0.4c-0.4,0-0.7-0.1-0.9-0.2
			c-0.3-0.1-0.5-0.4-0.6-0.6c-0.1-0.3-0.2-0.6-0.2-1c0-0.4,0.1-0.7,0.2-1c0.1-0.3,0.4-0.5,0.6-0.6s0.6-0.2,0.9-0.2
			C110.4,468,110.8,468.1,111.2,468.4z"/>
		<path class="st3" d="M115.9,470h-3c0,0.4,0.1,0.8,0.4,1s0.5,0.4,0.9,0.4c0.3,0,0.6-0.1,0.8-0.2c0.2-0.1,0.4-0.4,0.4-0.6h0.6
			c-0.1,0.3-0.1,0.5-0.3,0.7c-0.1,0.2-0.4,0.4-0.6,0.5c-0.3,0.1-0.5,0.1-0.9,0.1c-0.4,0-0.7-0.1-0.9-0.2c-0.3-0.1-0.5-0.4-0.6-0.6
			c-0.1-0.3-0.2-0.6-0.2-1c0-0.4,0.1-0.7,0.2-1c0.1-0.3,0.4-0.5,0.6-0.6s0.6-0.2,0.9-0.2c0.4,0,0.7,0.1,0.9,0.2
			c0.3,0.1,0.5,0.4,0.6,0.6c0.1,0.3,0.2,0.6,0.2,0.9C116,469.8,116,469.9,115.9,470z M115.2,469c-0.1-0.2-0.2-0.4-0.4-0.4
			c-0.2-0.1-0.4-0.1-0.6-0.1c-0.4,0-0.6,0.1-0.9,0.3c-0.2,0.2-0.4,0.5-0.4,0.9h2.4C115.3,469.5,115.3,469.2,115.2,469z"/>
		<path class="st3" d="M118.9,468.3c0.3,0.2,0.4,0.5,0.5,0.9h-0.6c0-0.2-0.1-0.4-0.3-0.6c-0.1-0.1-0.4-0.2-0.6-0.2
			c-0.2,0-0.4,0.1-0.5,0.1c-0.1,0.1-0.2,0.3-0.2,0.4s0.1,0.2,0.1,0.4c0.1,0.1,0.2,0.1,0.3,0.2c0.1,0.1,0.3,0.1,0.5,0.1
			c0.3,0.1,0.5,0.1,0.6,0.2c0.1,0.1,0.3,0.1,0.4,0.3c0.1,0.1,0.2,0.4,0.2,0.6c0,0.3-0.1,0.6-0.4,0.7c-0.2,0.2-0.6,0.3-0.9,0.3
			c-0.4,0-0.8-0.1-1.1-0.4c-0.3-0.2-0.4-0.5-0.5-0.9h0.6c0,0.2,0.1,0.4,0.3,0.6c0.1,0.1,0.4,0.2,0.7,0.2c0.2,0,0.4-0.1,0.5-0.1
			c0.1-0.1,0.2-0.3,0.2-0.4s-0.1-0.3-0.1-0.4c-0.1-0.1-0.2-0.1-0.4-0.2c-0.1-0.1-0.3-0.1-0.5-0.1c-0.3-0.1-0.5-0.1-0.6-0.2
			c-0.1-0.1-0.3-0.1-0.4-0.3c-0.1-0.1-0.1-0.4-0.1-0.6c0-0.3,0.1-0.6,0.4-0.8c0.2-0.2,0.6-0.3,0.9-0.3
			C118.4,468,118.7,468.1,118.9,468.3z"/>
		<path class="st3" d="M122.5,468.3c0.3,0.2,0.4,0.5,0.5,0.9h-0.6c0-0.2-0.1-0.4-0.3-0.6c-0.1-0.1-0.4-0.2-0.6-0.2
			c-0.2,0-0.4,0.1-0.5,0.1c-0.1,0.1-0.2,0.3-0.2,0.4s0.1,0.2,0.1,0.4c0.1,0.1,0.2,0.1,0.3,0.2c0.1,0.1,0.3,0.1,0.5,0.1
			c0.3,0.1,0.5,0.1,0.6,0.2c0.1,0.1,0.3,0.1,0.4,0.3c0.1,0.1,0.2,0.4,0.2,0.6c0,0.3-0.1,0.6-0.4,0.7c-0.2,0.2-0.6,0.3-0.9,0.3
			c-0.4,0-0.8-0.1-1.1-0.4c-0.3-0.2-0.4-0.5-0.5-0.9h0.6c0,0.2,0.1,0.4,0.3,0.6c0.1,0.1,0.4,0.2,0.7,0.2c0.2,0,0.4-0.1,0.5-0.1
			c0.1-0.1,0.2-0.3,0.2-0.4s-0.1-0.3-0.1-0.4c-0.1-0.1-0.2-0.1-0.4-0.2c-0.1-0.1-0.3-0.1-0.5-0.1c-0.3-0.1-0.5-0.1-0.6-0.2
			c-0.1-0.1-0.3-0.1-0.4-0.3c-0.1-0.1-0.1-0.4-0.1-0.6c0-0.3,0.1-0.6,0.4-0.8c0.2-0.2,0.6-0.3,0.9-0.3
			C121.9,468,122.2,468.1,122.5,468.3z"/>
		<path class="st3" d="M126.5,468.2c0.3,0.1,0.5,0.4,0.6,0.6c0.1,0.3,0.2,0.6,0.2,1c0,0.4-0.1,0.7-0.2,1c-0.1,0.3-0.4,0.5-0.6,0.6
			c-0.3,0.1-0.6,0.2-1,0.2c-0.4,0-0.7-0.1-1-0.2s-0.5-0.4-0.6-0.6c-0.1-0.3-0.2-0.6-0.2-1c0-0.4,0.1-0.7,0.2-1
			c0.1-0.3,0.4-0.5,0.6-0.6s0.6-0.2,1-0.2C125.9,468,126.2,468,126.5,468.2z M124.9,468.7c-0.2,0.1-0.4,0.3-0.4,0.4
			c-0.1,0.2-0.1,0.5-0.1,0.8s0.1,0.6,0.1,0.8c0.1,0.2,0.3,0.4,0.4,0.4c0.1,0.1,0.4,0.1,0.6,0.1s0.4-0.1,0.6-0.1
			c0.2-0.1,0.4-0.3,0.4-0.4c0.1-0.2,0.1-0.4,0.1-0.8c0-0.3-0.1-0.6-0.1-0.8c-0.1-0.2-0.3-0.4-0.4-0.4c-0.2-0.1-0.4-0.1-0.6-0.1
			C125.3,468.5,125,468.6,124.9,468.7z"/>
	</g>
	<g class="st4">
		<path class="st3" d="M85.3,476.4c0.3,0.2,0.4,0.4,0.5,0.7v-0.9h0.6v3.8h-0.6V479c-0.1,0.3-0.3,0.6-0.5,0.7
			c-0.3,0.2-0.6,0.3-0.9,0.3c-0.4,0-0.6-0.1-0.9-0.2c-0.3-0.1-0.5-0.4-0.6-0.6c-0.1-0.3-0.2-0.6-0.2-1c0-0.4,0.1-0.7,0.2-1
			c0.1-0.3,0.4-0.5,0.6-0.6c0.3-0.1,0.6-0.2,0.9-0.2C84.7,476.1,85,476.3,85.3,476.4z M83.6,477c-0.2,0.2-0.4,0.6-0.4,1
			c0,0.4,0.1,0.8,0.4,1s0.6,0.4,0.9,0.4c0.2,0,0.5-0.1,0.6-0.1c0.2-0.1,0.4-0.3,0.4-0.5c0.1-0.2,0.1-0.4,0.1-0.7
			c0-0.3-0.1-0.5-0.1-0.7c-0.1-0.2-0.3-0.4-0.4-0.5c-0.2-0.1-0.4-0.1-0.6-0.1C84.1,476.7,83.9,476.8,83.6,477z"/>
		<path class="st3" d="M89.6,476.5c0.3,0.2,0.4,0.5,0.5,0.9h-0.6c0-0.2-0.1-0.4-0.3-0.6c-0.1-0.1-0.4-0.2-0.6-0.2
			c-0.2,0-0.4,0.1-0.5,0.1c-0.1,0.1-0.2,0.3-0.2,0.4s0.1,0.2,0.1,0.4c0.1,0.1,0.2,0.1,0.3,0.2c0.1,0.1,0.3,0.1,0.5,0.1
			c0.3,0.1,0.5,0.1,0.6,0.2c0.1,0.1,0.3,0.1,0.4,0.3c0.1,0.1,0.2,0.4,0.2,0.6c0,0.3-0.1,0.6-0.4,0.7c-0.2,0.2-0.6,0.3-0.9,0.3
			c-0.4,0-0.8-0.1-1.1-0.4c-0.3-0.2-0.4-0.5-0.5-0.9h0.6c0,0.2,0.1,0.4,0.3,0.6c0.1,0.1,0.4,0.2,0.7,0.2c0.2,0,0.4-0.1,0.5-0.1
			c0.1-0.1,0.2-0.3,0.2-0.4s-0.1-0.3-0.1-0.4c-0.1-0.1-0.2-0.1-0.4-0.2c-0.1-0.1-0.3-0.1-0.5-0.1c-0.3-0.1-0.5-0.1-0.6-0.2
			c-0.1-0.1-0.3-0.1-0.4-0.3c-0.1-0.1-0.1-0.4-0.1-0.6c0-0.3,0.1-0.6,0.4-0.8c0.2-0.2,0.6-0.3,0.9-0.3
			C89,476.1,89.3,476.3,89.6,476.5z"/>
		<path class="st3" d="M98.3,476.5c0.3,0.3,0.4,0.7,0.4,1.2v2.2H98v-2.1c0-0.4-0.1-0.6-0.3-0.9c-0.2-0.2-0.4-0.3-0.7-0.3
			c-0.4,0-0.6,0.1-0.8,0.4c-0.2,0.2-0.3,0.6-0.3,0.9v2h-0.6v-2.1c0-0.4-0.1-0.6-0.3-0.9s-0.4-0.3-0.7-0.3c-0.4,0-0.6,0.1-0.8,0.4
			c-0.2,0.2-0.3,0.6-0.3,0.9v2h-0.7v-3.8h0.6v0.9c0.1-0.3,0.3-0.5,0.5-0.7c0.2-0.1,0.5-0.2,0.8-0.2c0.3,0,0.6,0.1,0.9,0.2
			c0.2,0.1,0.4,0.4,0.5,0.7c0.1-0.3,0.3-0.6,0.5-0.7c0.2-0.1,0.5-0.3,0.9-0.3C97.6,476.1,98,476.3,98.3,476.5z"/>
		<path class="st3" d="M103,478.2h-3c0,0.4,0.1,0.8,0.4,1c0.2,0.2,0.5,0.4,0.9,0.4c0.3,0,0.6-0.1,0.8-0.2c0.2-0.1,0.4-0.4,0.4-0.6
			h0.6c-0.1,0.3-0.1,0.5-0.3,0.7c-0.1,0.2-0.4,0.4-0.6,0.5s-0.5,0.1-0.9,0.1c-0.4,0-0.7-0.1-0.9-0.2c-0.3-0.1-0.5-0.4-0.6-0.6
			c-0.1-0.3-0.2-0.6-0.2-1c0-0.4,0.1-0.7,0.2-1c0.1-0.3,0.4-0.5,0.6-0.6c0.3-0.1,0.6-0.2,0.9-0.2c0.4,0,0.7,0.1,0.9,0.2
			c0.3,0.1,0.5,0.4,0.6,0.6c0.1,0.3,0.2,0.6,0.2,0.9C103.1,478,103.1,478.1,103,478.2z M102.3,477.2c-0.1-0.2-0.2-0.4-0.4-0.4
			c-0.2-0.1-0.4-0.1-0.6-0.1c-0.4,0-0.6,0.1-0.9,0.3c-0.2,0.2-0.4,0.5-0.4,0.9h2.4C102.4,477.6,102.4,477.4,102.3,477.2z"/>
		<path class="st3" d="M104.5,474.9v5h-0.6v-5H104.5z"/>
		<path class="st3" d="M108.5,476.5c0.3,0.3,0.4,0.7,0.4,1.2v2.2h-0.6v-2.1c0-0.4-0.1-0.6-0.3-0.9c-0.2-0.2-0.4-0.3-0.8-0.3
			c-0.4,0-0.6,0.1-0.9,0.4c-0.2,0.2-0.3,0.6-0.3,1v2h-0.6v-5h0.6v2.2c0.1-0.3,0.3-0.6,0.5-0.7c0.2-0.1,0.5-0.2,0.9-0.2
			C107.9,476.1,108.2,476.3,108.5,476.5z"/>
		<path class="st3" d="M112.5,476.4c0.3,0.1,0.5,0.4,0.6,0.6c0.1,0.3,0.2,0.6,0.2,1c0,0.4-0.1,0.7-0.2,1c-0.1,0.3-0.4,0.5-0.6,0.6
			c-0.3,0.1-0.6,0.2-1,0.2c-0.4,0-0.7-0.1-1-0.2s-0.5-0.4-0.6-0.6c-0.1-0.3-0.2-0.6-0.2-1c0-0.4,0.1-0.7,0.2-1
			c0.1-0.3,0.4-0.5,0.6-0.6s0.6-0.2,1-0.2C111.9,476.2,112.2,476.3,112.5,476.4z M110.9,476.8c-0.2,0.1-0.4,0.3-0.4,0.4
			c-0.1,0.2-0.1,0.5-0.1,0.8s0.1,0.6,0.1,0.8c0.1,0.2,0.3,0.4,0.4,0.4c0.2,0.1,0.4,0.1,0.6,0.1s0.4-0.1,0.6-0.1s0.4-0.3,0.4-0.4
			c0.1-0.2,0.1-0.4,0.1-0.8c0-0.3-0.1-0.6-0.1-0.8c-0.1-0.2-0.3-0.4-0.4-0.4c-0.2-0.1-0.4-0.1-0.6-0.1S111.1,476.8,110.9,476.8z"/>
		<path class="st3" d="M115.4,476.3c0.2-0.1,0.5-0.2,0.9-0.2v0.7H116c-0.4,0-0.6,0.1-0.9,0.3c-0.2,0.2-0.4,0.5-0.4,0.9v2h-0.6v-3.8
			h0.6v0.8C115,476.7,115.1,476.5,115.4,476.3z"/>
		<path class="st3" d="M120.2,478.2h-3c0,0.4,0.1,0.8,0.4,1c0.2,0.2,0.5,0.4,0.9,0.4c0.3,0,0.6-0.1,0.8-0.2c0.2-0.1,0.4-0.4,0.4-0.6
			h0.6c-0.1,0.3-0.1,0.5-0.3,0.7c-0.1,0.2-0.4,0.4-0.6,0.5s-0.5,0.1-0.9,0.1c-0.4,0-0.7-0.1-0.9-0.2c-0.3-0.1-0.5-0.4-0.6-0.6
			c-0.1-0.3-0.2-0.6-0.2-1c0-0.4,0.1-0.7,0.2-1c0.1-0.3,0.4-0.5,0.6-0.6s0.6-0.2,0.9-0.2c0.4,0,0.7,0.1,0.9,0.2
			c0.3,0.1,0.5,0.4,0.6,0.6c0.1,0.3,0.2,0.6,0.2,0.9C120.3,478,120.3,478.1,120.2,478.2z M119.5,477.2c-0.1-0.2-0.2-0.4-0.4-0.4
			c-0.2-0.1-0.4-0.1-0.6-0.1c-0.4,0-0.6,0.1-0.9,0.3c-0.2,0.2-0.4,0.5-0.4,0.9h2.4C119.7,477.6,119.6,477.4,119.5,477.2z"/>
		<path class="st3" d="M123.3,476.5c0.3,0.2,0.4,0.5,0.5,0.9h-0.6c0-0.2-0.1-0.4-0.3-0.6c-0.1-0.1-0.4-0.2-0.6-0.2
			c-0.2,0-0.4,0.1-0.5,0.1c-0.1,0.1-0.2,0.3-0.2,0.4s0.1,0.2,0.1,0.4c0.1,0.1,0.2,0.1,0.3,0.2c0.1,0.1,0.3,0.1,0.5,0.1
			c0.3,0.1,0.5,0.1,0.6,0.2c0.1,0.1,0.3,0.1,0.4,0.3c0.1,0.1,0.2,0.4,0.2,0.6c0,0.3-0.1,0.6-0.4,0.7c-0.2,0.2-0.6,0.3-0.9,0.3
			c-0.4,0-0.8-0.1-1.1-0.4c-0.3-0.2-0.4-0.5-0.5-0.9h0.6c0,0.2,0.1,0.4,0.3,0.6c0.1,0.1,0.4,0.2,0.7,0.2c0.2,0,0.4-0.1,0.5-0.1
			c0.1-0.1,0.2-0.3,0.2-0.4s-0.1-0.3-0.1-0.4c-0.1-0.1-0.2-0.1-0.4-0.2c-0.1-0.1-0.3-0.1-0.5-0.1c-0.3-0.1-0.5-0.1-0.6-0.2
			c-0.1-0.1-0.3-0.1-0.4-0.3c-0.1-0.1-0.1-0.4-0.1-0.6c0-0.3,0.1-0.6,0.4-0.8c0.2-0.2,0.6-0.3,0.9-0.3
			C122.7,476.1,123,476.3,123.3,476.5z"/>
	</g>
	<g class="st4">
		<path class="st3" d="M84.1,483.6c-0.1,0.1-0.2,0.4-0.2,0.6v0.1h0.9v0.6h-0.9v3.2h-0.6v-3.2h-0.6v-0.6h0.6v-0.1
			c0-0.9,0.5-1.3,1.5-1.3v0.6C84.6,483.5,84.3,483.6,84.1,483.6z"/>
		<path class="st3" d="M89,486.4h-3c0,0.4,0.1,0.8,0.4,1s0.5,0.4,0.9,0.4c0.3,0,0.6-0.1,0.8-0.2c0.2-0.1,0.4-0.4,0.4-0.6H89
			c-0.1,0.3-0.1,0.5-0.3,0.7c-0.1,0.2-0.4,0.4-0.6,0.5c-0.3,0.1-0.5,0.1-0.9,0.1c-0.4,0-0.7-0.1-0.9-0.2c-0.3-0.1-0.5-0.4-0.6-0.6
			c-0.1-0.3-0.2-0.6-0.2-1c0-0.4,0.1-0.7,0.2-1c0.1-0.3,0.4-0.5,0.6-0.6c0.3-0.1,0.6-0.2,0.9-0.2c0.4,0,0.7,0.1,0.9,0.2
			c0.3,0.1,0.5,0.4,0.6,0.6c0.1,0.3,0.2,0.6,0.2,0.9C89,486.2,89,486.2,89,486.4z M88.2,485.4c-0.1-0.2-0.2-0.4-0.4-0.4
			c-0.2-0.1-0.4-0.1-0.6-0.1c-0.4,0-0.6,0.1-0.9,0.3c-0.2,0.2-0.4,0.5-0.4,0.9h2.4C88.4,485.8,88.3,485.5,88.2,485.4z"/>
		<path class="st3" d="M91,484.5c0.2-0.1,0.5-0.2,0.9-0.2v0.7h-0.2c-0.4,0-0.6,0.1-0.9,0.3c-0.2,0.2-0.4,0.5-0.4,0.9v2h-0.6v-3.8
			h0.6v0.8C90.5,484.8,90.7,484.7,91,484.5z"/>
		<path class="st3" d="M93.6,484.5c0.2-0.1,0.5-0.2,0.9-0.2v0.7h-0.2c-0.4,0-0.6,0.1-0.9,0.3c-0.2,0.2-0.4,0.5-0.4,0.9v2h-0.6v-3.8
			H93v0.8C93.2,484.8,93.4,484.7,93.6,484.5z"/>
		<path class="st3" d="M97.5,484.6c0.3,0.2,0.4,0.4,0.5,0.7v-0.9h0.6v3.8H98v-0.9c-0.1,0.3-0.3,0.6-0.5,0.7
			c-0.3,0.2-0.6,0.3-0.9,0.3c-0.4,0-0.6-0.1-0.9-0.2c-0.3-0.1-0.5-0.4-0.6-0.6s-0.2-0.6-0.2-1c0-0.4,0.1-0.7,0.2-1
			c0.1-0.3,0.4-0.5,0.6-0.6c0.3-0.1,0.6-0.2,0.9-0.2C96.9,484.3,97.2,484.4,97.5,484.6z M95.8,485.3c-0.2,0.2-0.4,0.6-0.4,1
			c0,0.4,0.1,0.8,0.4,1s0.6,0.4,0.9,0.4c0.2,0,0.5-0.1,0.6-0.1c0.2-0.1,0.4-0.3,0.4-0.5c0.1-0.2,0.1-0.4,0.1-0.7
			c0-0.3-0.1-0.5-0.1-0.7c-0.1-0.2-0.3-0.4-0.4-0.5c-0.2-0.1-0.4-0.1-0.6-0.1C96.3,484.8,96.1,485,95.8,485.3z"/>
		<path class="st3" d="M105.3,484.7c0.3,0.3,0.4,0.7,0.4,1.2v2.2h-0.6V486c0-0.4-0.1-0.6-0.3-0.9c-0.2-0.2-0.4-0.3-0.7-0.3
			c-0.4,0-0.6,0.1-0.8,0.4c-0.2,0.2-0.3,0.6-0.3,0.9v2h-0.6V486c0-0.4-0.1-0.6-0.3-0.9c-0.2-0.2-0.4-0.3-0.7-0.3
			c-0.4,0-0.6,0.1-0.8,0.4c-0.2,0.2-0.3,0.6-0.3,0.9v2h-0.6v-3.8h0.6v0.9c0.1-0.3,0.3-0.5,0.5-0.7c0.2-0.1,0.5-0.2,0.8-0.2
			c0.3,0,0.6,0.1,0.9,0.2c0.2,0.1,0.4,0.4,0.5,0.7c0.1-0.3,0.3-0.6,0.5-0.7c0.2-0.1,0.5-0.3,0.9-0.3
			C104.6,484.3,105,484.4,105.3,484.7z"/>
		<path class="st3" d="M110,486.4h-3c0,0.4,0.1,0.8,0.4,1s0.5,0.4,0.9,0.4c0.3,0,0.6-0.1,0.8-0.2c0.2-0.1,0.4-0.4,0.4-0.6h0.6
			c-0.1,0.3-0.1,0.5-0.3,0.7c-0.1,0.2-0.4,0.4-0.6,0.5c-0.3,0.1-0.5,0.1-0.9,0.1c-0.4,0-0.7-0.1-0.9-0.2c-0.3-0.1-0.5-0.4-0.6-0.6
			c-0.1-0.3-0.2-0.6-0.2-1c0-0.4,0.1-0.7,0.2-1c0.1-0.3,0.4-0.5,0.6-0.6c0.3-0.1,0.6-0.2,0.9-0.2c0.4,0,0.7,0.1,0.9,0.2
			c0.3,0.1,0.5,0.4,0.6,0.6c0.1,0.3,0.2,0.6,0.2,0.9C110,486.2,110,486.2,110,486.4z M109.3,485.4c-0.1-0.2-0.2-0.4-0.4-0.4
			c-0.2-0.1-0.4-0.1-0.6-0.1c-0.4,0-0.6,0.1-0.9,0.3c-0.2,0.2-0.4,0.5-0.4,0.9h2.4C109.5,485.8,109.4,485.5,109.3,485.4z"/>
		<path class="st3" d="M113.8,484.7c0.3,0.3,0.4,0.7,0.4,1.2v2.2h-0.6V486c0-0.4-0.1-0.6-0.3-0.9c-0.2-0.2-0.4-0.3-0.8-0.3
			s-0.6,0.1-0.9,0.4c-0.2,0.2-0.3,0.6-0.3,1v2h-0.6v-3.8h0.6v0.9c0.1-0.3,0.3-0.6,0.5-0.7c0.2-0.1,0.5-0.2,0.9-0.2
			C113.3,484.3,113.6,484.4,113.8,484.7z"/>
		<path class="st3" d="M117,487.5v0.6h-0.5c-0.4,0-0.6-0.1-0.9-0.3c-0.2-0.2-0.3-0.5-0.3-0.9v-2h-0.6v-0.6h0.6v-0.9h0.6v0.9h1v0.6
			h-1v2.1c0,0.2,0.1,0.4,0.1,0.5c0.1,0.1,0.2,0.1,0.4,0.1L117,487.5L117,487.5z"/>
		<path class="st3" d="M120.2,484.6c0.3,0.2,0.4,0.4,0.5,0.7v-0.9h0.6v3.8h-0.6v-0.9c-0.1,0.3-0.3,0.6-0.5,0.7
			c-0.3,0.2-0.6,0.3-0.9,0.3c-0.4,0-0.6-0.1-0.9-0.2c-0.3-0.1-0.5-0.4-0.6-0.6c-0.1-0.3-0.2-0.6-0.2-1c0-0.4,0.1-0.7,0.2-1
			c0.1-0.3,0.4-0.5,0.6-0.6c0.3-0.1,0.6-0.2,0.9-0.2C119.7,484.3,119.9,484.4,120.2,484.6z M118.6,485.3c-0.2,0.2-0.4,0.6-0.4,1
			c0,0.4,0.1,0.8,0.4,1s0.6,0.4,0.9,0.4c0.2,0,0.5-0.1,0.6-0.1c0.2-0.1,0.4-0.3,0.4-0.5c0.1-0.2,0.1-0.4,0.1-0.7
			c0-0.3-0.1-0.5-0.1-0.7c-0.1-0.2-0.3-0.4-0.4-0.5c-0.2-0.1-0.4-0.1-0.6-0.1C119.1,484.8,118.8,485,118.6,485.3z"/>
		<path class="st3" d="M124.5,484.6c0.3,0.2,0.4,0.5,0.5,0.9h-0.6c0-0.2-0.1-0.4-0.3-0.6c-0.1-0.1-0.4-0.2-0.6-0.2
			c-0.2,0-0.4,0.1-0.5,0.1c-0.1,0.1-0.2,0.3-0.2,0.4s0.1,0.2,0.1,0.4c0.1,0.1,0.2,0.1,0.3,0.2c0.1,0.1,0.3,0.1,0.5,0.1
			c0.3,0.1,0.5,0.1,0.6,0.2c0.1,0.1,0.3,0.1,0.4,0.3c0.1,0.1,0.2,0.4,0.2,0.6c0,0.3-0.1,0.6-0.4,0.7c-0.2,0.2-0.6,0.3-0.9,0.3
			c-0.4,0-0.8-0.1-1.1-0.4c-0.3-0.2-0.4-0.5-0.5-0.9h0.6c0,0.2,0.1,0.4,0.3,0.6c0.1,0.1,0.4,0.2,0.7,0.2c0.2,0,0.4-0.1,0.5-0.1
			c0.1-0.1,0.2-0.3,0.2-0.4s-0.1-0.3-0.1-0.4c-0.1-0.1-0.2-0.1-0.4-0.2c-0.1-0.1-0.3-0.1-0.5-0.1c-0.3-0.1-0.5-0.1-0.6-0.2
			c-0.1-0.1-0.3-0.1-0.4-0.3c-0.1-0.1-0.1-0.4-0.1-0.6c0-0.3,0.1-0.6,0.4-0.8c0.2-0.2,0.6-0.3,0.9-0.3
			C124,484.3,124.3,484.4,124.5,484.6z"/>
	</g>
</g>
<path class="st5" d="M119.8,77.7H88c-1,0-1.8-0.9-1.8-1.8v-3.9c0-1,0.9-1.8,1.8-1.8h31.8c1,0,1.8,0.9,1.8,1.8v3.9
	C121.6,76.8,120.8,77.7,119.8,77.7z"/>
<path class="st5" d="M120.2,409.6H87.8c-3,0-5.5-2.5-5.5-5.5v-14.9c0-3,2.5-5.5,5.5-5.5h32.4c3,0,5.5,2.5,5.5,5.5v14.9
	C125.7,407.1,123.2,409.6,120.2,409.6z"/>
<path class="st6" d="M121.9,443.9H86.1c-2.1,0-3.8-1.7-3.8-3.8v-9.6c0-2.1,1.7-3.8,3.8-3.8h35.8c2.1,0,3.8,1.7,3.8,3.8v9.6
	C125.7,442.2,124,443.9,121.9,443.9z"/>
<path class="st5" d="M92.3,424h-7.6c-1.3,0-2.5-1.1-2.5-2.5v-6.8c0-1.3,1.1-2.5,2.5-2.5h7.6c1.3,0,2.5,1.1,2.5,2.5v6.8
	C94.8,422.9,93.6,424,92.3,424z"/>
<path class="st6" d="M107.8,424h-7.6c-1.3,0-2.5-1.1-2.5-2.5v-6.8c0-1.3,1.1-2.5,2.5-2.5h7.6c1.3,0,2.5,1.1,2.5,2.5v6.8
	C110.2,422.9,109.1,424,107.8,424z"/>
<path class="st6" d="M123.2,424h-7.6c-1.3,0-2.5-1.1-2.5-2.5v-6.8c0-1.3,1.1-2.5,2.5-2.5h7.6c1.3,0,2.5,1.1,2.5,2.5v6.8
	C125.7,422.9,124.5,424,123.2,424z"/>
<path class="st5" d="M119.8,93H88c-1,0-1.8-0.9-1.8-1.8v-3.9c0-1,0.9-1.8,1.8-1.8h31.8c1,0,1.8,0.9,1.8,1.8v3.9
	C121.6,92.2,120.8,93,119.8,93z"/>
<path class="st5" d="M118.8,333.1H89c-1,0-1.8-0.9-1.8-1.8v-3.5c0-1,0.9-1.8,1.8-1.8h29.8c1,0,1.8,0.9,1.8,1.8v3.5
	C120.7,332.2,119.9,333.1,118.8,333.1z"/>
<path class="st5" d="M124.7,450.6h-11.1c-0.4,0-0.6-0.3-0.6-0.6v-2.3c0-0.4,0.3-0.6,0.6-0.6h11.1c0.4,0,0.6,0.3,0.6,0.6v2.3
	C125.3,450.3,125,450.6,124.7,450.6z"/>
<circle class="st6" cx="103.9" cy="45.3" r="12"/>
<g>
	<circle class="st5" cx="92.7" cy="276.4" r="7.2"/>
	<circle class="st6" cx="92.7" cy="295.3" r="7.2"/>
	<circle class="st6" cx="92.7" cy="314.2" r="7.2"/>
	<circle class="st5" cx="115.2" cy="295.3" r="7.2"/>
	<circle class="st6" cx="115.2" cy="314.2" r="7.2"/>
	<circle class="st6" cx="115.2" cy="276.4" r="7.2"/>
</g>
<g>
	<path class="st6" d="M122.3,163H98c-1,0-1.8-0.9-1.8-1.8v-8.6c0-1,0.9-1.8,1.8-1.8h24.2c1,0,1.8,0.9,1.8,1.8v8.6
		C124.1,162.1,123.3,163,122.3,163z"/>
	<path class="st6" d="M122.3,182.9H98c-1,0-1.8-0.9-1.8-1.8v-8.6c0-1,0.9-1.8,1.8-1.8h24.2c1,0,1.8,0.9,1.8,1.8v8.6
		C124.1,182.1,123.3,182.9,122.3,182.9z"/>
	<path class="st6" d="M122.3,202.7H98c-1,0-1.8-0.9-1.8-1.8v-8.6c0-1,0.9-1.8,1.8-1.8h24.2c1,0,1.8,0.9,1.8,1.8v8.6
		C124.1,201.9,123.3,202.7,122.3,202.7z"/>
	<circle class="st5" cx="87.5" cy="157" r="6.4"/>
	<circle class="st5" cx="87.5" cy="176.8" r="6.4"/>
	<circle class="st5" cx="87.5" cy="196.6" r="6.4"/>
</g>
<polyline class="st7" points="52.2,249.1 56.8,253 61,248 "/>
<polyline class="st7" points="152.3,369.6 156.8,373.5 161,368.5 "/>
<polyline class="st7" points="146.6,132.9 151.7,135.9 154.9,130.4 "/>
</svg>
