<?xml version="1.0" encoding="utf-8"?>
<!-- Generator: Adobe Illustrator 22.1.0, SVG Export Plug-In . SVG Version: 6.00 Build 0)  -->
<svg version="1.1" id="b5708c2f-4f88-4c73-bc81-55ebbc869fb7"
	 xmlns="http://www.w3.org/2000/svg" xmlns:xlink="http://www.w3.org/1999/xlink" x="0px" y="0px" viewBox="0 0 704 741.6"
	 style="enable-background:new 0 0 704 741.6;" xml:space="preserve">
<style type="text/css">
	.st0{fill:#3F3D56;}
	.st1{fill:#FFFFFF;}
	.st2{fill:none;stroke:#000000;stroke-width:1.4215;stroke-miterlimit:10;}
	.st3{fill:#F7D109;}
	.st4{enable-background:new    ;}
	.st5{fill:#325CA7;}
	.st6{fill:#DEA02B;}
	.st7{fill:#21559C;}
	.st8{fill:none;stroke:#000000;stroke-width:0.6896;stroke-miterlimit:10;}
	.st9{fill:#686868;}
	.st10{font-family:'Helvetica';}
	.st11{font-size:9.9607px;}
	.st12{fill:#636363;}
	.st13{font-size:11.1933px;}
	.st14{font-size:8px;}
	.st15{fill:#0054A2;}
</style>
<title>modern_design</title>
<path class="st0" d="M1613.2,178.9h-4V69.4c0-35-28.4-63.4-63.4-63.4l0,0h-232.1c-35,0-63.4,28.4-63.4,63.4l0,0v601
	c0,35,28.4,63.4,63.4,63.4l0,0h232.1c35,0,63.4-28.4,63.4-63.4l0,0V256.9h4V178.9z"/>
<path class="st1" d="M1547.1,22.5h-30.3c4.7,11.5-0.8,24.6-12.3,29.3c-2.7,1.1-5.6,1.7-8.5,1.7h-133c-12.4,0-22.5-10.1-22.5-22.5
	c0-2.9,0.6-5.8,1.7-8.5h-28.3c-26.1,0-47.3,21.2-47.3,47.3l0,0v600.1c0,26.1,21.2,47.3,47.3,47.3l0,0h233.2
	c26.1,0,47.3-21.2,47.3-47.3l0,0V69.8C1594.4,43.7,1573.2,22.5,1547.1,22.5z"/>
<g>
	<rect x="1531.7" y="79.4" width="28.2" height="2.3"/>
	<rect x="1531.7" y="87.9" width="28.2" height="2.3"/>
	<rect x="1531.7" y="96.4" width="28.2" height="2.3"/>
</g>
<path class="st2" d="M1563.8,187.1h-254c-2.3,0-4.3-1.9-4.3-4.3v-14.2c0-2.3,1.9-4.3,4.3-4.3h254c2.3,0,4.3,1.9,4.3,4.3v14.2
	C1568.1,185.2,1566.2,187.1,1563.8,187.1z"/>
<path class="st2" d="M1563.8,229.8h-254c-2.3,0-4.3-1.9-4.3-4.3v-14.2c0-2.3,1.9-4.3,4.3-4.3h254c2.3,0,4.3,1.9,4.3,4.3v14.2
	C1568.1,227.9,1566.2,229.8,1563.8,229.8z"/>
<path class="st2" d="M1563.8,271.1h-254c-2.3,0-4.3-1.9-4.3-4.3v-14.2c0-2.3,1.9-4.3,4.3-4.3h254c2.3,0,4.3,1.9,4.3,4.3v14.2
	C1568.1,269.2,1566.2,271.1,1563.8,271.1z"/>
<path class="st2" d="M1563.8,480.1h-254c-2.3,0-4.3-1.9-4.3-4.3v-14.2c0-2.3,1.9-4.3,4.3-4.3h254c2.3,0,4.3,1.9,4.3,4.3v14.2
	C1568.1,478.2,1566.2,480.1,1563.8,480.1z"/>
<text transform="matrix(1 0 0 1 1309.6549 179.0051)" class="st10 st11">Seu endereço</text>
<text transform="matrix(1 0 0 1 1309.6549 221.6882)" class="st10 st11">Escola/Faculdade</text>
<text transform="matrix(1 0 0 1 1309.6549 263.0188)" class="st10 st11">Turno</text>
<g>
	<path class="st3" d="M1486.7,318.3h-116.8c-2.3,0-4.3-1.9-4.3-4.3v-18.5c0-2.3,1.9-4.3,4.3-4.3h116.8c2.3,0,4.3,1.9,4.3,4.3V314
		C1491,316.4,1489.1,318.3,1486.7,318.3z"/>
	<g class="st4">
		<path class="st5" d="M1406.2,304.7c-0.5,0.4-1.2,0.6-2.2,0.6h-1.8v3.1h-1.8v-8.7h3.7c0.9,0,1.6,0.2,2.1,0.7
			c0.5,0.5,0.8,1.1,0.8,2.1C1406.9,303.6,1406.7,304.3,1406.2,304.7z M1404.8,301.6c-0.2-0.2-0.6-0.3-1-0.3h-1.6v2.6h1.6
			c0.4,0,0.7-0.1,1-0.3c0.2-0.2,0.3-0.5,0.3-1S1405,301.8,1404.8,301.6z"/>
		<path class="st5" d="M1412.5,302.2c0.5,0.2,0.8,0.5,1.1,1c0.3,0.4,0.4,0.8,0.5,1.3c0,0.3,0.1,0.7,0.1,1.3h-4.7
			c0,0.6,0.3,1.1,0.7,1.4c0.3,0.2,0.6,0.2,0.9,0.2c0.4,0,0.7-0.1,0.9-0.3c0.1-0.1,0.2-0.3,0.3-0.4h1.7c0,0.4-0.3,0.8-0.6,1.2
			c-0.6,0.6-1.4,0.9-2.4,0.9c-0.9,0-1.6-0.3-2.3-0.8s-1-1.4-1-2.6c0-1.1,0.3-2,0.9-2.6c0.6-0.6,1.4-0.9,2.3-0.9
			C1411.5,301.9,1412,302,1412.5,302.2z M1409.9,303.6c-0.2,0.2-0.4,0.6-0.4,1h2.9c0-0.4-0.2-0.8-0.4-1c-0.3-0.2-0.6-0.3-1-0.3
			C1410.5,303.3,1410.2,303.4,1409.9,303.6z"/>
		<path class="st5" d="M1416.3,306.4c0,0.3,0.1,0.5,0.2,0.6c0.2,0.2,0.6,0.3,1.2,0.3c0.3,0,0.6,0,0.8-0.1c0.2-0.1,0.3-0.2,0.3-0.4
			c0-0.2-0.1-0.3-0.2-0.4s-0.7-0.3-1.8-0.5c-0.7-0.2-1.3-0.4-1.6-0.7c-0.3-0.3-0.5-0.7-0.5-1.2c0-0.6,0.2-1.1,0.7-1.5
			c0.5-0.4,1.1-0.6,2-0.6c0.8,0,1.5,0.2,2,0.5c0.5,0.3,0.8,0.9,0.9,1.7h-1.7c0-0.2-0.1-0.4-0.2-0.5c-0.2-0.2-0.5-0.3-1-0.3
			c-0.4,0-0.6,0.1-0.8,0.2c-0.2,0.1-0.2,0.2-0.2,0.4c0,0.2,0.1,0.3,0.2,0.4c0.2,0.1,0.8,0.2,1.8,0.5c0.7,0.2,1.2,0.4,1.5,0.7
			c0.3,0.3,0.5,0.7,0.5,1.2c0,0.6-0.2,1.2-0.7,1.6c-0.5,0.4-1.2,0.6-2.2,0.6c-1,0-1.8-0.2-2.3-0.6c-0.5-0.4-0.7-1-0.7-1.6H1416.3z"
			/>
		<path class="st5" d="M1425.4,302.3c0.2,0.2,0.4,0.4,0.6,0.7v-1h1.6v9h-1.7v-3.4c-0.1,0.3-0.3,0.5-0.6,0.7
			c-0.3,0.2-0.7,0.3-1.3,0.3c-0.7,0-1.4-0.3-1.9-0.9c-0.5-0.6-0.8-1.4-0.8-2.4c0-1.1,0.3-1.9,0.8-2.6c0.5-0.6,1.2-1,2-1
			C1424.6,301.9,1425,302,1425.4,302.3z M1425.7,306.5c0.2-0.3,0.2-0.7,0.2-1.2c0-0.4-0.1-0.7-0.2-1.1c-0.2-0.6-0.7-0.8-1.3-0.8
			c-0.4,0-0.8,0.2-1,0.5c-0.3,0.3-0.4,0.8-0.4,1.5c0,0.4,0.1,0.8,0.2,1.1c0.2,0.5,0.6,0.8,1.2,0.8
			C1425.1,307.2,1425.5,307,1425.7,306.5z"/>
		<path class="st5" d="M1430.8,302v3.9c0,0.4,0,0.6,0.1,0.8c0.2,0.3,0.5,0.5,0.9,0.5c0.6,0,1-0.2,1.2-0.7c0.1-0.3,0.2-0.6,0.2-1V302
			h1.7v6.5h-1.6v-0.9c0,0-0.1,0.1-0.1,0.2s-0.1,0.2-0.2,0.3c-0.3,0.2-0.5,0.4-0.8,0.5s-0.5,0.1-0.9,0.1c-1,0-1.6-0.3-1.9-1
			c-0.2-0.4-0.3-0.9-0.3-1.7V302H1430.8z"/>
		<path class="st5" d="M1438.3,301.3h-1.7v-1.6h1.7V301.3z M1436.6,302h1.7v6.5h-1.7V302z"/>
		<path class="st5" d="M1441.3,306.4c0,0.3,0.1,0.5,0.2,0.6c0.2,0.2,0.6,0.3,1.2,0.3c0.3,0,0.6,0,0.8-0.1c0.2-0.1,0.3-0.2,0.3-0.4
			c0-0.2-0.1-0.3-0.2-0.4s-0.7-0.3-1.8-0.5c-0.7-0.2-1.3-0.4-1.5-0.7c-0.3-0.3-0.5-0.7-0.5-1.2c0-0.6,0.2-1.1,0.7-1.5s1.1-0.6,2-0.6
			c0.8,0,1.5,0.2,2,0.5c0.5,0.3,0.8,0.9,0.9,1.7h-1.7c0-0.2-0.1-0.4-0.2-0.5c-0.2-0.2-0.5-0.3-1-0.3c-0.4,0-0.6,0.1-0.8,0.2
			c-0.2,0.1-0.2,0.2-0.2,0.4c0,0.2,0.1,0.3,0.3,0.4c0.2,0.1,0.8,0.2,1.8,0.5c0.7,0.2,1.2,0.4,1.5,0.7c0.3,0.3,0.5,0.7,0.5,1.2
			c0,0.6-0.2,1.2-0.7,1.6c-0.5,0.4-1.2,0.6-2.2,0.6c-1,0-1.8-0.2-2.3-0.6c-0.5-0.4-0.7-1-0.7-1.6H1441.3z"/>
		<path class="st5" d="M1449.2,304.6c0.3,0,0.5-0.1,0.7-0.1c0.2-0.1,0.4-0.3,0.4-0.5c0-0.3-0.1-0.4-0.3-0.5
			c-0.2-0.1-0.5-0.2-0.8-0.2c-0.4,0-0.7,0.1-0.9,0.3c-0.1,0.1-0.2,0.3-0.2,0.6h-1.6c0-0.6,0.2-1,0.5-1.4c0.4-0.6,1.2-0.9,2.3-0.9
			c0.7,0,1.3,0.1,1.9,0.4c0.6,0.3,0.8,0.8,0.8,1.6v3c0,0.2,0,0.5,0,0.7c0,0.2,0,0.4,0.1,0.5s0.1,0.1,0.2,0.2v0.2h-1.8
			c-0.1-0.1-0.1-0.3-0.1-0.4c0-0.1,0-0.2,0-0.4c-0.2,0.3-0.5,0.5-0.8,0.6c-0.4,0.2-0.8,0.3-1.2,0.3c-0.6,0-1.1-0.2-1.5-0.5
			c-0.4-0.3-0.6-0.8-0.6-1.4c0-0.8,0.3-1.4,0.9-1.7c0.3-0.2,0.8-0.3,1.5-0.4L1449.2,304.6z M1450.3,305.4c-0.1,0.1-0.2,0.1-0.3,0.2
			c-0.1,0-0.3,0.1-0.5,0.1l-0.4,0.1c-0.4,0.1-0.6,0.1-0.8,0.2c-0.3,0.2-0.4,0.4-0.4,0.7c0,0.3,0.1,0.5,0.2,0.6
			c0.2,0.1,0.4,0.2,0.6,0.2c0.4,0,0.7-0.1,1-0.3c0.3-0.2,0.5-0.6,0.5-1.2V305.4z"/>
		<path class="st5" d="M1457,301.9c0,0,0.1,0,0.1,0v1.7c-0.1,0-0.2,0-0.3,0s-0.1,0-0.2,0c-0.7,0-1.1,0.2-1.4,0.7
			c-0.1,0.2-0.2,0.6-0.2,1.1v3.1h-1.7V302h1.6v1.1c0.3-0.4,0.5-0.7,0.7-0.9C1456,302,1456.4,301.9,1457,301.9
			C1457,301.9,1457,301.9,1457,301.9z"/>
	</g>
</g>
<g>
	<path class="st3" d="M1487.3,530.3h-116.8c-2.3,0-4.3-1.9-4.3-4.3v-18.5c0-2.3,1.9-4.3,4.3-4.3h116.8c2.3,0,4.3,1.9,4.3,4.3V526
		C1491.5,528.4,1489.6,530.3,1487.3,530.3z"/>
	<g class="st4">
		<path class="st5" d="M1417.8,513.3h-4.6v1.9h4.2v1.5h-4.2v2.2h4.8v1.6h-6.6v-8.7h6.4V513.3z"/>
		<path class="st5" d="M1424.5,514.4c0.4,0.3,0.6,0.9,0.6,1.7v4.3h-1.7v-3.9c0-0.3,0-0.6-0.1-0.8c-0.2-0.3-0.5-0.5-0.9-0.5
			c-0.6,0-1,0.2-1.2,0.7c-0.1,0.3-0.2,0.6-0.2,1v3.5h-1.7V514h1.6v0.9c0.2-0.3,0.4-0.6,0.6-0.7c0.3-0.3,0.8-0.4,1.3-0.4
			C1423.5,513.9,1424,514.1,1424.5,514.4z"/>
		<path class="st5" d="M1430.6,514h1.8l-2.3,6.5h-1.8l-2.3-6.5h1.9l1.3,4.8L1430.6,514z"/>
		<path class="st5" d="M1435.1,513.3h-1.7v-1.6h1.7V513.3z M1433.4,514h1.7v6.5h-1.7V514z"/>
		<path class="st5" d="M1439.3,516.6c0.3,0,0.5-0.1,0.7-0.1c0.2-0.1,0.4-0.3,0.4-0.5c0-0.3-0.1-0.4-0.3-0.5
			c-0.2-0.1-0.5-0.2-0.8-0.2c-0.4,0-0.7,0.1-0.9,0.3c-0.1,0.1-0.2,0.3-0.2,0.6h-1.6c0-0.6,0.2-1,0.5-1.4c0.4-0.6,1.2-0.9,2.3-0.9
			c0.7,0,1.3,0.1,1.9,0.4c0.6,0.3,0.8,0.8,0.8,1.6v3c0,0.2,0,0.5,0,0.7c0,0.2,0,0.4,0.1,0.5s0.1,0.1,0.2,0.2v0.2h-1.8
			c-0.1-0.1-0.1-0.3-0.1-0.4c0-0.1,0-0.2,0-0.4c-0.2,0.3-0.5,0.5-0.8,0.6c-0.4,0.2-0.8,0.3-1.2,0.3c-0.6,0-1.1-0.2-1.5-0.5
			c-0.4-0.3-0.6-0.8-0.6-1.4c0-0.8,0.3-1.4,0.9-1.7c0.3-0.2,0.8-0.3,1.5-0.4L1439.3,516.6z M1440.4,517.4c-0.1,0.1-0.2,0.1-0.3,0.2
			c-0.1,0-0.3,0.1-0.5,0.1l-0.4,0.1c-0.4,0.1-0.6,0.1-0.8,0.2c-0.3,0.2-0.4,0.4-0.4,0.7c0,0.3,0.1,0.5,0.2,0.6
			c0.2,0.1,0.4,0.2,0.6,0.2c0.4,0,0.7-0.1,1-0.3c0.3-0.2,0.5-0.6,0.5-1.2V517.4z"/>
		<path class="st5" d="M1447.1,513.9c0,0,0.1,0,0.1,0v1.7c-0.1,0-0.2,0-0.3,0s-0.2,0-0.2,0c-0.7,0-1.1,0.2-1.4,0.7
			c-0.1,0.2-0.2,0.6-0.2,1.1v3.1h-1.7V514h1.6v1.1c0.3-0.4,0.5-0.7,0.7-0.9C1446.1,514,1446.5,513.9,1447.1,513.9
			C1447.1,513.9,1447.1,513.9,1447.1,513.9z"/>
	</g>
</g>
<text transform="matrix(1 0 0 1 1355.6169 366.3127)" class="st10" style="font-size:18px;">Já utiliza o serviço</text>
<text transform="matrix(1 0 0 1 1347.6169 387.9128)" class="st10" style="font-size:18px;">de algum motorista?</text>
<g class="st4">
	<path d="M1343.4,414.4h1.8v12.9h-1.8V414.4z"/>
	<path d="M1347.8,417.9h1.5v1.3c0.4-0.6,0.9-0.9,1.4-1.2s1.1-0.4,1.7-0.4c1.3,0,2.2,0.5,2.7,1.4c0.3,0.5,0.4,1.2,0.4,2.2v6h-1.6
		v-5.9c0-0.6-0.1-1-0.3-1.4c-0.3-0.6-0.8-0.9-1.5-0.9c-0.4,0-0.7,0-0.9,0.1c-0.4,0.1-0.8,0.4-1.1,0.8c-0.3,0.3-0.4,0.6-0.5,1
		s-0.1,0.8-0.1,1.4v4.9h-1.6V417.9z"/>
	<path d="M1358.7,424.4c0,0.5,0.2,0.9,0.4,1.2c0.4,0.5,1.1,0.8,2.1,0.8c0.6,0,1.1-0.1,1.5-0.4c0.4-0.3,0.7-0.6,0.7-1.2
		c0-0.4-0.2-0.7-0.5-0.9c-0.2-0.1-0.7-0.3-1.4-0.4l-1.3-0.3c-0.8-0.2-1.4-0.4-1.8-0.7c-0.7-0.4-1-1-1-1.8c0-0.9,0.3-1.6,1-2.2
		s1.5-0.8,2.6-0.8c1.4,0,2.4,0.4,3.1,1.2c0.4,0.5,0.6,1.1,0.6,1.7h-1.5c0-0.4-0.2-0.7-0.4-1c-0.4-0.4-1-0.6-1.9-0.6
		c-0.6,0-1.1,0.1-1.4,0.3s-0.5,0.5-0.5,0.9c0,0.4,0.2,0.7,0.6,1c0.2,0.1,0.6,0.3,1,0.4l1,0.3c1.1,0.3,1.9,0.5,2.3,0.8
		c0.6,0.4,0.9,1,0.9,1.9c0,0.8-0.3,1.6-1,2.2s-1.6,0.9-2.9,0.9c-1.4,0-2.4-0.3-3-1c-0.6-0.6-0.9-1.4-0.9-2.4H1358.7z"/>
	<path d="M1366.8,414.4h1.6v1.8h-1.6V414.4z M1366.8,417.9h1.6v9.4h-1.6V417.9z"/>
	<path d="M1370.8,417.9h1.5v1.6c0.1-0.3,0.4-0.7,0.9-1.2c0.5-0.5,1-0.7,1.7-0.7c0,0,0.1,0,0.1,0s0.2,0,0.4,0v1.7c-0.1,0-0.2,0-0.3,0
		s-0.2,0-0.3,0c-0.8,0-1.4,0.3-1.8,0.8c-0.4,0.5-0.6,1.1-0.6,1.8v5.4h-1.6V417.9z"/>
	<path d="M1381.8,421.6c0.4,0,0.6-0.2,0.7-0.5c0.1-0.1,0.1-0.3,0.1-0.6c0-0.5-0.2-0.9-0.6-1.2c-0.4-0.2-0.9-0.4-1.6-0.4
		c-0.8,0-1.4,0.2-1.8,0.7c-0.2,0.2-0.3,0.6-0.4,1.1h-1.5c0-1.2,0.4-2,1.1-2.4c0.7-0.5,1.6-0.7,2.5-0.7c1.1,0,2,0.2,2.7,0.6
		c0.7,0.4,1,1.1,1,2v5.4c0,0.2,0,0.3,0.1,0.4s0.2,0.1,0.4,0.1c0.1,0,0.1,0,0.2,0c0.1,0,0.2,0,0.3,0v1.2c-0.2,0.1-0.4,0.1-0.6,0.1
		s-0.3,0-0.5,0c-0.5,0-0.9-0.2-1.2-0.6c-0.1-0.2-0.2-0.5-0.3-0.9c-0.3,0.4-0.8,0.8-1.4,1.1s-1.3,0.5-2,0.5c-0.9,0-1.6-0.3-2.1-0.8
		c-0.6-0.5-0.8-1.2-0.8-2c0-0.9,0.3-1.5,0.8-2s1.3-0.8,2.1-0.9L1381.8,421.6z M1378.5,425.9c0.3,0.3,0.7,0.4,1.2,0.4
		c0.6,0,1.1-0.1,1.6-0.4c0.9-0.4,1.3-1.1,1.3-2.1v-1.3c-0.2,0.1-0.4,0.2-0.7,0.3s-0.6,0.1-0.9,0.2l-1,0.1c-0.6,0.1-1,0.2-1.3,0.4
		c-0.5,0.3-0.7,0.7-0.7,1.3C1378,425.3,1378.1,425.6,1378.5,425.9z"/>
	<path d="M1392.7,424.4c0,0.5,0.2,0.9,0.4,1.2c0.4,0.5,1.1,0.8,2.1,0.8c0.6,0,1.1-0.1,1.5-0.4c0.4-0.3,0.7-0.6,0.7-1.2
		c0-0.4-0.2-0.7-0.5-0.9c-0.2-0.1-0.7-0.3-1.4-0.4l-1.3-0.3c-0.8-0.2-1.4-0.4-1.8-0.7c-0.7-0.4-1-1-1-1.8c0-0.9,0.3-1.6,1-2.2
		s1.5-0.8,2.6-0.8c1.4,0,2.4,0.4,3.1,1.2c0.4,0.5,0.6,1.1,0.6,1.7h-1.5c0-0.4-0.2-0.7-0.4-1c-0.4-0.4-1-0.6-1.9-0.6
		c-0.6,0-1.1,0.1-1.4,0.3s-0.5,0.5-0.5,0.9c0,0.4,0.2,0.7,0.6,1c0.2,0.1,0.6,0.3,1,0.4l1,0.3c1.1,0.3,1.9,0.5,2.3,0.8
		c0.6,0.4,0.9,1,0.9,1.9c0,0.8-0.3,1.6-1,2.2s-1.6,0.9-2.9,0.9c-1.4,0-2.4-0.3-3-1c-0.6-0.6-0.9-1.4-0.9-2.4H1392.7z"/>
	<path d="M1406.6,418.2c0.6,0.3,1.1,0.7,1.4,1.2c0.3,0.5,0.5,1,0.6,1.7c0.1,0.4,0.1,1.1,0.1,2.1h-6.9c0,1,0.3,1.7,0.7,2.3
		s1.1,0.9,2,0.9c0.8,0,1.5-0.3,2-0.8c0.3-0.3,0.5-0.7,0.6-1.1h1.6c0,0.3-0.2,0.7-0.4,1.2s-0.5,0.8-0.8,1c-0.5,0.5-1.1,0.8-1.8,0.9
		c-0.4,0.1-0.8,0.1-1.3,0.1c-1.2,0-2.2-0.4-3-1.3c-0.8-0.9-1.2-2-1.2-3.6c0-1.5,0.4-2.7,1.2-3.7s1.9-1.4,3.2-1.4
		C1405.4,417.7,1406,417.8,1406.6,418.2z M1407.2,421.9c-0.1-0.7-0.2-1.2-0.4-1.6c-0.4-0.8-1.2-1.1-2.2-1.1c-0.7,0-1.3,0.3-1.8,0.8
		s-0.8,1.2-0.8,2H1407.2z"/>
	<path d="M1412.4,417.9v6.2c0,0.5,0.1,0.9,0.2,1.2c0.3,0.6,0.8,0.8,1.6,0.8c1.1,0,1.9-0.5,2.3-1.5c0.2-0.5,0.3-1.3,0.3-2.2v-4.6h1.6
		v9.4h-1.5l0-1.4c-0.2,0.4-0.5,0.7-0.8,0.9c-0.6,0.5-1.3,0.7-2.2,0.7c-1.3,0-2.3-0.4-2.7-1.3c-0.3-0.5-0.4-1.1-0.4-1.9v-6.4H1412.4z
		"/>
	<path d="M1432,418.4c0.7,0.5,1.1,1.4,1.2,2.7h-1.5c-0.1-0.6-0.3-1.1-0.6-1.4c-0.3-0.4-0.9-0.6-1.6-0.6c-1,0-1.7,0.5-2.2,1.5
		c-0.3,0.6-0.4,1.4-0.4,2.4c0,0.9,0.2,1.7,0.6,2.4s1,1,1.9,1c0.7,0,1.2-0.2,1.6-0.6c0.4-0.4,0.6-1,0.8-1.6h1.5
		c-0.2,1.2-0.6,2.2-1.3,2.7c-0.7,0.6-1.6,0.9-2.7,0.9c-1.2,0-2.2-0.4-2.9-1.3s-1.1-2-1.1-3.4c0-1.7,0.4-2.9,1.2-3.9s1.8-1.4,3.1-1.4
		C1430.5,417.6,1431.3,417.9,1432,418.4z"/>
	<path d="M1441.7,418.8c0.8,0.8,1.3,2,1.3,3.6c0,1.5-0.4,2.8-1.1,3.8s-1.9,1.5-3.4,1.5c-1.3,0-2.3-0.4-3.1-1.3
		c-0.8-0.9-1.1-2.1-1.1-3.5c0-1.6,0.4-2.8,1.2-3.8c0.8-0.9,1.9-1.4,3.2-1.4C1439.8,417.6,1440.8,418,1441.7,418.8z M1440.7,425.1
		c0.4-0.8,0.6-1.7,0.6-2.6c0-0.9-0.1-1.6-0.4-2.1c-0.4-0.9-1.2-1.3-2.3-1.3c-1,0-1.7,0.4-2.1,1.1s-0.7,1.6-0.7,2.7
		c0,1,0.2,1.8,0.7,2.5s1.1,1,2.1,1C1439.6,426.3,1440.3,425.9,1440.7,425.1z M1440.4,414.1l-2.3,2.5h-1.2l1.6-2.5H1440.4z"/>
	<path d="M1450,418.2c0.3,0.2,0.6,0.5,1,0.9v-4.8h1.5v13h-1.4V426c-0.4,0.6-0.8,1-1.3,1.3s-1.1,0.4-1.7,0.4c-1,0-2-0.4-2.7-1.3
		s-1.2-2.1-1.2-3.5c0-1.4,0.4-2.6,1.1-3.6s1.7-1.5,3-1.5C1448.9,417.7,1449.5,417.9,1450,418.2z M1446.4,425.2c0.4,0.7,1.1,1,2.1,1
		c0.7,0,1.3-0.3,1.8-0.9s0.7-1.5,0.7-2.7c0-1.2-0.2-2.1-0.7-2.6c-0.5-0.6-1.1-0.9-1.8-0.9c-0.8,0-1.4,0.3-1.9,0.9s-0.7,1.5-0.7,2.7
		C1445.8,423.7,1446,424.6,1446.4,425.2z"/>
	<path d="M1454.8,414.4h1.6v1.8h-1.6V414.4z M1454.8,417.9h1.6v9.4h-1.6V417.9z"/>
	<path d="M1464.1,418.3c0.3,0.2,0.6,0.5,0.9,0.9V418h1.5v8.6c0,1.2-0.2,2.1-0.5,2.8c-0.7,1.3-1.9,1.9-3.7,1.9c-1,0-1.9-0.2-2.6-0.7
		c-0.7-0.5-1.1-1.2-1.2-2.1h1.6c0.1,0.4,0.2,0.7,0.5,1c0.4,0.4,0.9,0.5,1.7,0.5c1.2,0,2-0.4,2.4-1.3c0.2-0.5,0.3-1.4,0.3-2.7
		c-0.3,0.5-0.7,0.8-1.1,1.1s-1,0.4-1.8,0.4c-1,0-1.9-0.4-2.7-1.1s-1.1-1.9-1.1-3.6c0-1.6,0.4-2.8,1.2-3.7s1.7-1.3,2.8-1.3
		C1462.9,417.7,1463.5,417.9,1464.1,418.3z M1464.3,420c-0.5-0.6-1.1-0.8-1.8-0.8c-1.1,0-1.9,0.5-2.3,1.6c-0.2,0.6-0.3,1.3-0.3,2.2
		c0,1.1,0.2,1.9,0.6,2.4c0.4,0.6,1,0.8,1.7,0.8c1.1,0,1.9-0.5,2.4-1.5c0.3-0.6,0.4-1.3,0.4-2C1465,421.4,1464.7,420.5,1464.3,420z"
		/>
	<path d="M1475.7,418.8c0.8,0.8,1.3,2,1.3,3.6c0,1.5-0.4,2.8-1.1,3.8s-1.9,1.5-3.4,1.5c-1.3,0-2.3-0.4-3.1-1.3s-1.1-2.1-1.1-3.5
		c0-1.6,0.4-2.8,1.2-3.8s1.9-1.4,3.2-1.4C1473.8,417.6,1474.9,418,1475.7,418.8z M1474.7,425.1c0.4-0.8,0.6-1.7,0.6-2.6
		c0-0.9-0.1-1.6-0.4-2.1c-0.4-0.9-1.2-1.3-2.3-1.3c-1,0-1.7,0.4-2.1,1.1s-0.7,1.6-0.7,2.7c0,1,0.2,1.8,0.7,2.5s1.1,1,2.1,1
		C1473.6,426.3,1474.3,425.9,1474.7,425.1z"/>
	<path d="M1488.9,421.6c0.4,0,0.6-0.2,0.7-0.5c0.1-0.1,0.1-0.3,0.1-0.6c0-0.5-0.2-0.9-0.6-1.2c-0.4-0.2-0.9-0.4-1.6-0.4
		c-0.8,0-1.4,0.2-1.8,0.7c-0.2,0.2-0.3,0.6-0.4,1.1h-1.5c0-1.2,0.4-2,1.1-2.4c0.7-0.5,1.6-0.7,2.5-0.7c1.1,0,2,0.2,2.7,0.6
		c0.7,0.4,1,1.1,1,2v5.4c0,0.2,0,0.3,0.1,0.4s0.2,0.1,0.4,0.1c0.1,0,0.1,0,0.2,0c0.1,0,0.2,0,0.3,0v1.2c-0.2,0.1-0.4,0.1-0.6,0.1
		s-0.3,0-0.5,0c-0.5,0-0.9-0.2-1.2-0.6c-0.1-0.2-0.2-0.5-0.3-0.9c-0.3,0.4-0.8,0.8-1.4,1.1s-1.3,0.5-2,0.5c-0.9,0-1.6-0.3-2.1-0.8
		c-0.6-0.5-0.8-1.2-0.8-2c0-0.9,0.3-1.5,0.8-2s1.3-0.8,2.1-0.9L1488.9,421.6z M1485.5,425.9c0.3,0.3,0.7,0.4,1.2,0.4
		c0.6,0,1.1-0.1,1.6-0.4c0.9-0.4,1.3-1.1,1.3-2.1v-1.3c-0.2,0.1-0.4,0.2-0.7,0.3s-0.6,0.1-0.9,0.2l-1,0.1c-0.6,0.1-1,0.2-1.3,0.4
		c-0.5,0.3-0.7,0.7-0.7,1.3C1485,425.3,1485.2,425.6,1485.5,425.9z"/>
	<path d="M1499.2,418.3c0.3,0.2,0.6,0.5,0.8,0.9v-1.3h1.5v13.2h-1.6v-4.8c-0.3,0.4-0.6,0.8-1.1,1c-0.5,0.2-1,0.4-1.7,0.4
		c-1,0-1.9-0.4-2.7-1.2s-1.2-2-1.2-3.6c0-1.5,0.4-2.7,1.1-3.7s1.7-1.5,2.9-1.5C1498,417.7,1498.6,417.9,1499.2,418.3z M1495.2,424.8
		c0.4,1,1.1,1.5,2.2,1.5c1.1,0,1.9-0.5,2.3-1.5c0.2-0.6,0.3-1.3,0.3-2.2c0-0.8-0.1-1.5-0.4-2c-0.4-0.9-1.2-1.4-2.3-1.4
		c-0.7,0-1.3,0.3-1.8,0.9s-0.7,1.5-0.7,2.8C1494.9,423.5,1495,424.2,1495.2,424.8z"/>
	<path d="M1505.4,417.9v6.2c0,0.5,0.1,0.9,0.2,1.2c0.3,0.6,0.8,0.8,1.6,0.8c1.1,0,1.9-0.5,2.3-1.5c0.2-0.5,0.3-1.3,0.3-2.2v-4.6h1.6
		v9.4h-1.5l0-1.4c-0.2,0.4-0.5,0.7-0.8,0.9c-0.6,0.5-1.3,0.7-2.2,0.7c-1.3,0-2.3-0.4-2.7-1.3c-0.3-0.5-0.4-1.1-0.4-1.9v-6.4H1505.4z
		"/>
	<path d="M1513.9,414.4h1.6v1.8h-1.6V414.4z M1513.9,417.9h1.6v9.4h-1.6V417.9z"/>
</g>
<text transform="matrix(1 0 0 1 1319.3899 558.3928)" class="st12 st10 st13">Não sabe como obter esse código? </text>
<text transform="matrix(1 0 0 1 1498.5898 558.3928)" class="st12 st10 st13" style="text-decoration: underline;">Clique aqui</text>
<path class="st2" d="M1300.6,696.5"/>
<g id="XMLID_2_">
	<g>
		<g>
			<path class="st5" d="M1310.1,674.9l-0.5-0.4l-0.5,0.4l-12.7,9.6l1,1.3l1-0.7V698h8.5v-8.1h5.6v8.1h8.5v-12.9l1,0.7l1-1.3
				L1310.1,674.9z M1319.3,696.4L1319.3,696.4h-5.3v-8.1h-8.8v8.1h-5.3v-12.3l9.7-7.5l9.7,7.5V696.4L1319.3,696.4z"/>
		</g>
	</g>
</g>
<g>
	<g>
		<g>
			<path d="M1368.7,674.6c-4.7,0-8.5,3.8-8.5,8.5c0,5.8,7.6,14.4,7.9,14.7c0.3,0.3,0.8,0.3,1.1,0c0.3-0.4,7.9-8.9,7.9-14.7
				C1377.2,678.4,1373.4,674.6,1368.7,674.6z M1368.7,696.1c-2.6-3-7-9-7-13c0-3.8,3.1-7,7-7c3.9,0,7,3.1,7,7
				S1371.3,693,1368.7,696.1z"/>
		</g>
	</g>
	<g>
		<g>
			<path d="M1368.7,678.8c-2.4,0-4.3,1.9-4.3,4.3s1.9,4.3,4.3,4.3c2.4,0,4.3-1.9,4.3-4.3S1371.1,678.8,1368.7,678.8z M1368.7,685.8
				c-1.5,0-2.7-1.2-2.7-2.7s1.2-2.7,2.7-2.7s2.7,1.2,2.7,2.7S1370.3,685.8,1368.7,685.8z"/>
		</g>
	</g>
</g>
<g>
	<g>
		<g>
			<path d="M1440.7,684.3c-0.3,0.5-0.7,0.9-1.2,1.2c1.8,1.2,3,3.2,3,5.5c0,0.7-1.1,1.3-1.7,1.5c-0.5,0.2-1.1,0.3-1.8,0.5
				c0,0.3,0,0.6,0,0.8s0,0.5-0.1,0.8c0.9-0.1,1.7-0.3,2.4-0.6c2.3-0.9,2.8-2.1,2.8-3C1444.2,688.2,1442.9,685.8,1440.7,684.3z"/>
			<path d="M1436.1,674.5c-1,0-2,0.4-2.8,1.2c0.3,0.4,0.6,0.8,0.8,1.3c0.5-0.6,1.2-1,2-1c1.6,0,3,1.7,3,3.8s-1.3,3.8-3,3.8
				c-0.5,0-1-0.2-1.4-0.4c-0.1,0.5-0.3,1-0.5,1.4c0.6,0.3,1.2,0.5,1.9,0.5c2.5,0,4.4-2.4,4.4-5.3
				C1440.6,676.9,1438.6,674.5,1436.1,674.5z"/>
			<path d="M1433.3,686.1c-0.4,0.4-0.7,0.8-1.1,1.1c2.2,1.3,3.7,3.8,3.7,6.6c0,0.9-1.3,1.6-2.1,1.9c-1.4,0.5-3.4,0.8-5.5,0.8
				c-2.1,0-4.1-0.3-5.5-0.8c-0.8-0.3-2.1-0.9-2.1-1.9c0-2.8,1.5-5.2,3.7-6.6c-0.4-0.3-0.8-0.7-1.1-1.1c-2.5,1.6-4.2,4.5-4.2,7.7
				c0,1,0.5,2.4,3.1,3.3c1.6,0.6,3.8,0.9,6.1,0.9c2.3,0,4.5-0.3,6.1-0.9c2.6-1,3.1-2.3,3.1-3.3
				C1437.5,690.5,1435.8,687.7,1433.3,686.1z"/>
			<path d="M1428.3,687c2.9,0,5.1-2.8,5.1-6.1s-2.2-6.1-5.1-6.1c-2.9,0-5.1,2.8-5.1,6.1C1423.1,684.2,1425.4,687,1428.3,687z
				 M1428.3,676.3c2,0,3.6,2,3.6,4.6c0,2.5-1.6,4.6-3.6,4.6s-3.6-2-3.6-4.6S1426.3,676.3,1428.3,676.3z"/>
		</g>
	</g>
</g>
<g>
	<g>
		<g>
			<path d="M1560.2,686.1c-0.4,0.4-0.7,0.8-1.1,1.1c2.2,1.3,3.7,3.8,3.7,6.6c0,0.9-1.3,1.6-2.1,1.9c-1.4,0.5-3.4,0.8-5.5,0.8
				c-2.1,0-4.1-0.3-5.5-0.8c-0.8-0.3-2.1-0.9-2.1-1.9c0-2.8,1.5-5.2,3.7-6.6c-0.4-0.3-0.8-0.7-1.1-1.1c-2.5,1.6-4.2,4.5-4.2,7.7
				c0,1,0.5,2.4,3.1,3.3c1.6,0.6,3.8,0.9,6.1,0.9c2.3,0,4.5-0.3,6.1-0.9c2.6-1,3.1-2.3,3.1-3.3
				C1564.4,690.5,1562.7,687.7,1560.2,686.1z"/>
			<path d="M1555.2,687c2.9,0,5.1-2.8,5.1-6.1s-2.2-6.1-5.1-6.1c-2.9,0-5.1,2.8-5.1,6.1C1550,684.2,1552.3,687,1555.2,687z
				 M1555.2,676.3c2,0,3.6,2,3.6,4.6c0,2.5-1.6,4.6-3.6,4.6s-3.6-2-3.6-4.6S1553.2,676.3,1555.2,676.3z"/>
		</g>
	</g>
</g>
<g>
	<g>
		<g>
			<path d="M1496.9,685.4h-0.9c-0.8,0-1.5-0.7-1.5-1.5s0.7-1.5,1.5-1.5h0.9c0.8,0,1.5,0.7,1.5,1.5h1.8c0-1.6-1.2-3-2.8-3.2V679h-1.8
				v1.8c-1.6,0.2-2.8,1.6-2.8,3.2c0,1.8,1.5,3.2,3.2,3.2h0.9c0.8,0,1.5,0.7,1.5,1.5s-0.7,1.5-1.5,1.5h-0.9c-0.8,0-1.5-0.7-1.5-1.5
				h-1.8c0,1.6,1.2,3,2.8,3.2v1.8h1.8v-1.8c1.6-0.2,2.8-1.6,2.8-3.2C1500.1,686.9,1498.7,685.4,1496.9,685.4z"/>
		</g>
	</g>
	<g>
		<path d="M1496.5,674.7c-6.5,0-11.7,5.2-11.7,11.7s5.2,11.7,11.7,11.7s11.7-5.2,11.7-11.7S1502.9,674.7,1496.5,674.7z
			 M1496.5,696.4c-5.6,0-10.1-4.5-10.1-10.1s4.5-10.1,10.1-10.1s10.1,4.5,10.1,10.1C1506.5,691.9,1502,696.4,1496.5,696.4z"/>
	</g>
</g>
<g>
	<g>
		<g>
			<g>
				<path class="st6" d="M1405.8,72.9c-0.1-0.3-0.2-0.7-0.2-1.1c0-0.4,0.1-0.7,0.3-1.1c0.2-0.3,0.4-0.6,0.7-0.8
					c0.3-0.2,0.6-0.4,0.9-0.5c0.4-0.1,0.7-0.2,1.1-0.2c0.4,0,0.9,0.1,1.4,0.4c0.5,0.3,0.8,0.7,1.1,1.4l3.4,8.8l3.4-8.8
					c0.2-0.6,0.6-1.1,1-1.4c0.4-0.3,0.9-0.4,1.4-0.4c0.4,0,0.7,0.1,1.1,0.2c0.3,0.1,0.7,0.3,0.9,0.5c0.3,0.2,0.5,0.5,0.7,0.8
					c0.2,0.3,0.2,0.7,0.2,1.1c0,0.2,0,0.4,0,0.5c0,0.2-0.1,0.4-0.1,0.5l-5.9,14.4c-0.5,1.2-1.3,1.8-2.5,1.8c-1.2,0-2.1-0.6-2.8-1.8
					L1405.8,72.9z"/>
				<path class="st6" d="M1433.1,86.4h-7l-0.4,1c-0.5,1.2-1.3,1.8-2.4,1.8c-0.4,0-0.7-0.1-1.1-0.2c-0.4-0.1-0.7-0.3-0.9-0.5
					c-0.3-0.2-0.5-0.5-0.7-0.8c-0.2-0.3-0.3-0.7-0.3-1.1c0-0.2,0-0.3,0-0.5c0-0.2,0.1-0.4,0.1-0.6l6-14.5c0.2-0.6,0.6-1.1,1-1.4
					c0.4-0.3,0.9-0.4,1.4-0.4c0.4,0,0.7,0.1,1.1,0.2c0.3,0.1,0.7,0.3,0.9,0.5c0.3,0.2,0.5,0.5,0.7,0.8c0.2,0.3,0.2,0.7,0.2,1.1
					c0,0.2,0,0.4,0,0.5s-0.1,0.4-0.1,0.5l-3.6,8.5h2.7l-0.3-0.7c-0.1-0.2-0.1-0.4-0.2-0.5s0-0.4,0-0.5c0-0.4,0.1-0.7,0.3-1.1
					s0.4-0.6,0.7-0.8c0.3-0.2,0.6-0.4,0.9-0.6c0.4-0.1,0.7-0.2,1.1-0.2c0.5,0,1,0.1,1.4,0.4c0.4,0.3,0.8,0.8,1,1.4l3,6.6
					c0.1,0.4,0.2,0.8,0.2,1.1c0,0.4-0.1,0.7-0.3,1.1c-0.2,0.3-0.4,0.6-0.7,0.8c-0.3,0.2-0.6,0.4-0.9,0.5s-0.7,0.2-1.1,0.2
					c-0.5,0-1-0.1-1.4-0.4c-0.4-0.3-0.8-0.7-1-1.4L1433.1,86.4z"/>
				<path class="st6" d="M1451.1,87.9l-4.8-7.2v5.7c0,0.9-0.3,1.6-0.8,2c-0.5,0.5-1.2,0.7-1.9,0.7c-0.4,0-0.7-0.1-1.1-0.2
					c-0.3-0.1-0.6-0.3-0.9-0.5c-0.3-0.2-0.4-0.5-0.6-0.9c-0.1-0.3-0.2-0.7-0.2-1.2V71.9c0-0.9,0.3-1.5,0.8-2
					c0.5-0.5,1.2-0.7,1.9-0.7c0.5,0,1,0.1,1.3,0.3c0.4,0.2,0.7,0.5,0.9,0.9l5,7.5v-6.1c0-0.4,0.1-0.8,0.2-1.2
					c0.2-0.3,0.4-0.6,0.6-0.9c0.2-0.2,0.5-0.4,0.9-0.5s0.7-0.2,1.1-0.2c0.7,0,1.4,0.2,1.9,0.7c0.5,0.5,0.8,1.1,0.8,2v14.4
					c0,0.9-0.3,1.6-0.8,2c-0.5,0.5-1.2,0.7-1.9,0.7c-0.4,0-0.7,0-1-0.1s-0.5-0.2-0.7-0.3c-0.2-0.1-0.3-0.3-0.5-0.4
					C1451.4,88,1451.3,87.9,1451.1,87.9L1451.1,87.9z"/>
			</g>
		</g>
		<g>
			<g>
				<path class="st7" d="M1441,98c0,1.2-0.2,2.3-0.7,3.3c-0.4,1-1.1,1.9-1.8,2.7c-0.8,0.8-1.7,1.4-2.7,1.8c-1,0.4-2.2,0.7-3.3,0.7
					c-1.2,0-2.3-0.2-3.3-0.7c-1-0.4-1.9-1-2.7-1.8c-0.8-0.8-1.4-1.7-1.8-2.7c-0.4-1-0.7-2.2-0.7-3.3s0.2-2.3,0.7-3.3
					c0.4-1,1.1-1.9,1.8-2.7c0.8-0.8,1.7-1.4,2.7-1.8c1-0.4,2.1-0.7,3.3-0.7c1.2,0,2.3,0.2,3.3,0.7c1,0.4,2,1.1,2.7,1.8
					c0.8,0.8,1.4,1.7,1.8,2.7C1440.8,95.7,1441,96.8,1441,98z M1436.4,98c0-0.5-0.1-1-0.3-1.5s-0.5-0.9-0.8-1.2
					c-0.4-0.4-0.8-0.6-1.2-0.8c-0.5-0.2-1-0.3-1.5-0.3c-0.5,0-1,0.1-1.5,0.3s-0.9,0.5-1.2,0.8c-0.3,0.4-0.6,0.8-0.8,1.2
					s-0.3,1-0.3,1.5c0,0.5,0.1,1,0.3,1.5c0.2,0.5,0.5,0.9,0.8,1.2c0.3,0.3,0.8,0.6,1.2,0.8c0.5,0.2,1,0.3,1.5,0.3
					c0.5,0,1-0.1,1.5-0.3c0.5-0.2,0.9-0.5,1.2-0.8c0.4-0.3,0.6-0.8,0.8-1.2C1436.3,99.1,1436.4,98.6,1436.4,98z"/>
				<path class="st7" d="M1445.1,106.4c-1.5,0-2.2-0.7-2.2-2.2c0-1.6,0.7-2.4,2.2-2.4h6.2c0.6,0,0.9-0.2,0.9-0.7
					c0-0.5-0.3-0.7-0.9-0.7h-3.8c-3.3-0.1-4.9-1.9-4.9-5.3c0-3.6,1.8-5.3,5.3-5.3h5.1c1.5,0,2.2,0.7,2.2,2.2c0,1.6-0.7,2.4-2.2,2.4
					h-5.4c-0.6,0-0.9,0.2-0.9,0.7c0,0.5,0.3,0.7,0.9,0.7h3.8c3.3,0.1,4.9,1.9,4.9,5.3c0,3.6-1.7,5.3-5.2,5.3H1445.1z"/>
			</g>
		</g>
	</g>
	<path class="st7" d="M1421.4,89.6c-0.5-0.4-1-0.6-1.7-0.6c-0.5,0-0.9,0.1-1.2,0.2c-0.3,0.2-0.6,0.4-0.8,0.8l-3.9,5.9l-3.9-5.9
		c-0.2-0.4-0.5-0.7-0.8-0.8c-0.3-0.2-0.7-0.2-1.2-0.2c-0.6,0-1.2,0.2-1.7,0.6c-0.5,0.4-0.7,1-0.7,1.8v12.7c0,0.4,0.1,0.7,0.2,1
		c0.1,0.3,0.3,0.6,0.5,0.8c0.2,0.2,0.5,0.4,0.8,0.5c0.3,0.1,0.6,0.2,0.9,0.2c0.7,0,1.2-0.2,1.7-0.6c0.5-0.4,0.7-1,0.7-1.8v-5
		l1.6,3.1c0.5,0.7,1.1,1,2,1c0.8,0,1.4-0.3,1.8-1l1.5-3v4.9c0,0.8,0.2,1.4,0.7,1.8c0.5,0.4,1,0.6,1.7,0.6c0.3,0,0.6-0.1,0.9-0.2
		c0.3-0.1,0.5-0.3,0.8-0.5c0.2-0.2,0.4-0.5,0.5-0.8c0.1-0.3,0.2-0.6,0.2-1V91.4C1422.1,90.6,1421.9,90,1421.4,89.6z"/>
</g>
<path class="st0" d="M530.3,178.9h-4V69.4c0-35-28.4-63.4-63.4-63.4l0,0H230.8c-35,0-63.4,28.4-63.4,63.4l0,0v601
	c0,35,28.4,63.4,63.4,63.4l0,0h232.1c35,0,63.4-28.4,63.4-63.4l0,0V256.9h4V178.9z"/>
<path class="st1" d="M464.2,22.5h-30.3c4.7,11.5-0.8,24.6-12.3,29.3c-2.7,1.1-5.6,1.7-8.5,1.7h-133c-12.4,0-22.5-10.1-22.5-22.5
	c0-2.9,0.6-5.8,1.7-8.5H231c-26.1,0-47.3,21.2-47.3,47.3l0,0v600.1c0,26.1,21.2,47.3,47.3,47.3l0,0h233.2
	c26.1,0,47.3-21.2,47.3-47.3l0,0V69.8C511.5,43.7,490.3,22.5,464.2,22.5z"/>
<path class="st8" d="M454.9,363.3H240.2c-1.9,0-3.6-2.5-3.6-5.7V339c0-3,1.6-5.7,3.6-5.7h214.7c1.9,0,3.6,2.5,3.6,5.7v18.7
	C458.6,360.8,456.9,363.3,454.9,363.3z"/>
<text transform="matrix(1 0 0 1 248.209 352.0051)" class="st9 st10 st11">Email</text>
<path class="st8" d="M454.9,416.3H240.2c-1.9,0-3.6-2.5-3.6-5.7V392c0-3,1.6-5.7,3.6-5.7h214.7c1.9,0,3.6,2.5,3.6,5.7v18.7
	C458.6,413.8,456.9,416.3,454.9,416.3z"/>
<text transform="matrix(1 0 0 1 248.209 405.0051)" class="st9 st10 st11">Senha</text>
<text transform="matrix(1 0 0 1 290.0344 488.3929)" class="st12 st10 st13" style="text-decoration: underline;">Esqueceu sua senha?</text>
<text transform="matrix(1 0 0 1 236.1432 526.8928)" class="st12 st10 st14">Política de Privacidade </text>
<text transform="matrix(1 0 0 1 385.0397 526.8928)" class="st12 st10 st14">Termos e Condições</text>
<path class="st2" d="M217.7,696.5"/>
<g id="XMLID_1_">
	<g>
		<g>
			<path class="st5" d="M227.2,674.9l-0.5-0.4l-0.5,0.4l-12.7,9.6l1,1.3l1-0.7V698h8.5v-8.1h5.6v8.1h8.5v-12.9l1,0.7l1-1.3
				L227.2,674.9z M236.4,696.4L236.4,696.4h-5.3v-8.1h-8.8v8.1H217v-12.3l9.7-7.5l9.7,7.5L236.4,696.4L236.4,696.4z"/>
		</g>
	</g>
</g>
<g>
	<g>
		<g>
			<path d="M285.8,674.6c-4.7,0-8.5,3.8-8.5,8.5c0,5.8,7.6,14.4,7.9,14.7s0.8,0.3,1.1,0c0.3-0.4,7.9-8.9,7.9-14.7
				C294.3,678.4,290.5,674.6,285.8,674.6z M285.8,696.1c-2.6-3-7-9-7-13c0-3.8,3.1-7,7-7s7,3.1,7,7S288.4,693,285.8,696.1z"/>
		</g>
	</g>
	<g>
		<g>
			<path d="M285.8,678.8c-2.4,0-4.3,1.9-4.3,4.3s1.9,4.3,4.3,4.3s4.3-1.9,4.3-4.3S288.2,678.8,285.8,678.8z M285.8,685.8
				c-1.5,0-2.7-1.2-2.7-2.7s1.2-2.7,2.7-2.7s2.7,1.2,2.7,2.7S287.4,685.8,285.8,685.8z"/>
		</g>
	</g>
</g>
<g>
	<g>
		<g>
			<path d="M357.8,684.3c-0.3,0.5-0.7,0.9-1.2,1.2c1.8,1.2,3,3.2,3,5.5c0,0.7-1.1,1.3-1.7,1.5c-0.5,0.2-1.1,0.3-1.8,0.5
				c0,0.3,0,0.6,0,0.8s0,0.5-0.1,0.8c0.9-0.1,1.7-0.3,2.4-0.6c2.3-0.9,2.8-2.1,2.8-3C361.3,688.2,360,685.8,357.8,684.3z"/>
			<path d="M353.2,674.5c-1,0-2,0.4-2.8,1.2c0.3,0.4,0.6,0.8,0.8,1.3c0.5-0.6,1.2-1,2-1c1.6,0,3,1.7,3,3.8s-1.3,3.8-3,3.8
				c-0.5,0-1-0.2-1.4-0.4c-0.1,0.5-0.3,1-0.5,1.4c0.6,0.3,1.2,0.5,1.9,0.5c2.5,0,4.4-2.4,4.4-5.3
				C357.7,676.9,355.7,674.5,353.2,674.5z"/>
			<path d="M350.4,686.1c-0.4,0.4-0.7,0.8-1.1,1.1c2.2,1.3,3.7,3.8,3.7,6.6c0,0.9-1.3,1.6-2.1,1.9c-1.4,0.5-3.4,0.8-5.5,0.8
				s-4.1-0.3-5.5-0.8c-0.8-0.3-2.1-0.9-2.1-1.9c0-2.8,1.5-5.2,3.7-6.6c-0.4-0.3-0.8-0.7-1.1-1.1c-2.5,1.6-4.2,4.5-4.2,7.7
				c0,1,0.5,2.4,3.1,3.3c1.6,0.6,3.8,0.9,6.1,0.9c2.3,0,4.5-0.3,6.1-0.9c2.6-1,3.1-2.3,3.1-3.3C354.6,690.5,352.9,687.7,350.4,686.1
				z"/>
			<path d="M345.4,687c2.9,0,5.1-2.8,5.1-6.1s-2.2-6.1-5.1-6.1s-5.1,2.8-5.1,6.1C340.2,684.2,342.5,687,345.4,687z M345.4,676.3
				c2,0,3.6,2,3.6,4.6c0,2.5-1.6,4.6-3.6,4.6s-3.6-2-3.6-4.6C341.8,678.3,343.4,676.3,345.4,676.3z"/>
		</g>
	</g>
</g>
<g>
	<g>
		<g>
			<path d="M477.3,686.1c-0.4,0.4-0.7,0.8-1.1,1.1c2.2,1.3,3.7,3.8,3.7,6.6c0,0.9-1.3,1.6-2.1,1.9c-1.4,0.5-3.4,0.8-5.5,0.8
				s-4.1-0.3-5.5-0.8c-0.8-0.3-2.1-0.9-2.1-1.9c0-2.8,1.5-5.2,3.7-6.6c-0.4-0.3-0.8-0.7-1.1-1.1c-2.5,1.6-4.2,4.5-4.2,7.7
				c0,1,0.5,2.4,3.1,3.3c1.6,0.6,3.8,0.9,6.1,0.9c2.3,0,4.5-0.3,6.1-0.9c2.6-1,3.1-2.3,3.1-3.3C481.5,690.5,479.8,687.7,477.3,686.1
				z"/>
			<path d="M472.3,687c2.9,0,5.1-2.8,5.1-6.1s-2.2-6.1-5.1-6.1s-5.1,2.8-5.1,6.1C467.1,684.2,469.4,687,472.3,687z M472.3,676.3
				c2,0,3.6,2,3.6,4.6c0,2.5-1.6,4.6-3.6,4.6s-3.6-2-3.6-4.6S470.3,676.3,472.3,676.3z"/>
		</g>
	</g>
</g>
<g>
	<g>
		<g>
			<path d="M414,685.4h-0.9c-0.8,0-1.5-0.7-1.5-1.5s0.7-1.5,1.5-1.5h0.9c0.8,0,1.5,0.7,1.5,1.5h1.8c0-1.6-1.2-3-2.8-3.2V679h-1.8
				v1.8c-1.6,0.2-2.8,1.6-2.8,3.2c0,1.8,1.5,3.2,3.2,3.2h0.9c0.8,0,1.5,0.7,1.5,1.5s-0.7,1.5-1.5,1.5h-0.9c-0.8,0-1.5-0.7-1.5-1.5
				h-1.8c0,1.6,1.2,3,2.8,3.2v1.8h1.8v-1.8c1.6-0.2,2.8-1.6,2.8-3.2C417.2,686.9,415.8,685.4,414,685.4z"/>
		</g>
	</g>
	<g>
		<path d="M413.6,674.7c-6.5,0-11.7,5.2-11.7,11.7s5.2,11.7,11.7,11.7s11.7-5.2,11.7-11.7S420,674.7,413.6,674.7z M413.6,696.4
			c-5.6,0-10.1-4.5-10.1-10.1s4.5-10.1,10.1-10.1s10.1,4.5,10.1,10.1C423.6,691.9,419.1,696.4,413.6,696.4z"/>
	</g>
</g>
<g>
	<g>
		<path class="st3" d="M403.8,464.3H287c-2.3,0-4.3-1.9-4.3-4.3v-18.5c0-2.3,1.9-4.3,4.3-4.3h116.8c2.3,0,4.3,1.9,4.3,4.3V460
			C408.1,462.4,406.2,464.3,403.8,464.3z"/>
	</g>
	<g>
		<path class="st15" d="M335.2,447.7h-4.6v1.9h4.2v1.5h-4.2v2.2h4.8v1.6h-6.6v-8.7h6.4V447.7z"/>
		<path class="st15" d="M341.9,448.8c0.4,0.3,0.6,0.9,0.6,1.7v4.3h-1.7V451c0-0.3,0-0.6-0.1-0.8c-0.2-0.3-0.5-0.5-0.9-0.5
			c-0.6,0-1,0.2-1.2,0.7c-0.1,0.3-0.2,0.6-0.2,1v3.5h-1.7v-6.4h1.6v0.9c0.2-0.3,0.4-0.6,0.6-0.7c0.3-0.3,0.8-0.4,1.3-0.4
			C340.9,448.3,341.5,448.5,341.9,448.8z"/>
		<path class="st15" d="M343.4,449.7v-1.2h0.9v-1.8h1.7v1.8h1v1.2h-1v3.4c0,0.3,0,0.4,0.1,0.5c0.1,0.1,0.3,0.1,0.6,0.1
			c0.1,0,0.1,0,0.2,0c0.1,0,0.1,0,0.2,0v1.3l-0.8,0c-0.8,0-1.3-0.1-1.6-0.4c-0.2-0.2-0.3-0.5-0.3-0.9v-4H343.4z"/>
		<path class="st15" d="M351.7,448.3c0,0,0.1,0,0.1,0v1.7c-0.1,0-0.2,0-0.3,0c-0.1,0-0.1,0-0.2,0c-0.7,0-1.1,0.2-1.4,0.7
			c-0.1,0.2-0.2,0.6-0.2,1.1v3.1h-1.7v-6.5h1.6v1.1c0.3-0.4,0.5-0.7,0.7-0.9C350.7,448.4,351.1,448.3,351.7,448.3
			C351.7,448.3,351.7,448.3,351.7,448.3z"/>
		<path class="st15" d="M355.4,451c0.3,0,0.5-0.1,0.7-0.1c0.2-0.1,0.4-0.3,0.4-0.5c0-0.3-0.1-0.4-0.3-0.5c-0.2-0.1-0.5-0.2-0.8-0.2
			c-0.4,0-0.7,0.1-0.9,0.3c-0.1,0.1-0.2,0.3-0.2,0.6h-1.6c0-0.6,0.2-1,0.5-1.4c0.4-0.6,1.2-0.9,2.3-0.9c0.7,0,1.3,0.1,1.9,0.4
			s0.8,0.8,0.8,1.6v3c0,0.2,0,0.5,0,0.7c0,0.2,0,0.4,0.1,0.5c0.1,0.1,0.1,0.1,0.2,0.2v0.2h-1.8c-0.1-0.1-0.1-0.3-0.1-0.4
			c0-0.1,0-0.2,0-0.4c-0.2,0.3-0.5,0.5-0.8,0.6c-0.4,0.2-0.8,0.3-1.2,0.3c-0.6,0-1.1-0.2-1.5-0.5c-0.4-0.3-0.6-0.8-0.6-1.4
			c0-0.8,0.3-1.4,0.9-1.7c0.3-0.2,0.8-0.3,1.5-0.4L355.4,451z M356.5,451.8c-0.1,0.1-0.2,0.1-0.3,0.2c-0.1,0-0.3,0.1-0.5,0.1
			l-0.4,0.1c-0.4,0.1-0.6,0.1-0.8,0.2c-0.3,0.2-0.4,0.4-0.4,0.7c0,0.3,0.1,0.5,0.2,0.6c0.2,0.1,0.4,0.2,0.6,0.2c0.4,0,0.7-0.1,1-0.3
			c0.3-0.2,0.5-0.6,0.5-1.2V451.8z"/>
		<path class="st15" d="M363.2,448.3c0,0,0.1,0,0.1,0v1.7c-0.1,0-0.2,0-0.3,0c-0.1,0-0.1,0-0.2,0c-0.7,0-1.1,0.2-1.4,0.7
			c-0.1,0.2-0.2,0.6-0.2,1.1v3.1h-1.7v-6.5h1.6v1.1c0.3-0.4,0.5-0.7,0.7-0.9C362.2,448.4,362.6,448.3,363.2,448.3
			C363.1,448.3,363.2,448.3,363.2,448.3z"/>
	</g>
</g>
<g>
	<g>
		<g>
			<g>
				<path class="st6" d="M260.2,167c-0.5-1.2-0.7-2.4-0.7-3.7c0-1.4,0.3-2.6,0.9-3.7c0.6-1.1,1.3-2.1,2.3-2.9c0.9-0.8,2-1.4,3.2-1.9
					c1.2-0.5,2.5-0.7,3.8-0.7c1.5,0,3.1,0.5,4.7,1.5c1.6,1,2.8,2.6,3.7,4.7l11.9,30.5l12-30.5c0.9-2.2,2-3.7,3.5-4.7
					c1.5-1,3.1-1.5,5-1.5c1.3,0,2.5,0.2,3.8,0.7c1.2,0.5,2.3,1.1,3.2,1.9c1,0.8,1.7,1.8,2.3,2.9c0.6,1.1,0.8,2.3,0.8,3.7
					c0,0.6,0,1.3-0.1,1.9c-0.1,0.6-0.3,1.3-0.5,1.8l-20.6,49.9c-1.7,4.3-4.7,6.4-8.8,6.4c-4.1,0-7.3-2.1-9.6-6.4L260.2,167z"/>
				<path class="st6" d="M355,213.9h-24.3l-1.4,3.3c-1.7,4.1-4.5,6.2-8.3,6.2c-1.3,0-2.6-0.2-3.8-0.6c-1.2-0.4-2.3-1.1-3.3-1.9
					c-1-0.8-1.7-1.8-2.3-2.9c-0.6-1.1-0.9-2.3-0.9-3.7c0.1-0.6,0.1-1.2,0.1-1.8c0-0.6,0.2-1.3,0.5-2l21-50.2c0.8-2.2,2-3.7,3.5-4.7
					c1.5-1,3.2-1.5,5-1.5c1.3,0,2.5,0.2,3.8,0.7c1.2,0.5,2.3,1.1,3.2,1.9c1,0.8,1.7,1.8,2.3,2.9c0.6,1.1,0.8,2.3,0.8,3.7
					c0,0.6,0,1.3-0.1,1.9s-0.3,1.3-0.5,1.8l-12.4,29.7h9.4l-1.1-2.5c-0.3-0.6-0.5-1.2-0.6-1.9c-0.1-0.6-0.1-1.2-0.1-1.9
					c0-1.4,0.3-2.6,0.9-3.7c0.6-1.1,1.3-2.1,2.3-2.9c0.9-0.8,2-1.5,3.2-1.9c1.2-0.5,2.5-0.7,3.8-0.7c1.8,0,3.4,0.5,5,1.5
					c1.5,1,2.7,2.6,3.5,4.8l10.4,23.1c0.5,1.5,0.7,2.8,0.7,3.8c0,1.4-0.3,2.6-0.9,3.7c-0.6,1.1-1.4,2.1-2.3,2.9
					c-1,0.8-2.1,1.4-3.3,1.9c-1.2,0.4-2.5,0.6-3.8,0.6c-1.8,0-3.4-0.5-4.9-1.5c-1.5-1-2.6-2.6-3.5-4.7L355,213.9z"/>
				<path class="st6" d="M417.9,219.1l-16.6-25v19.7c0,3.1-0.9,5.4-2.8,7c-1.9,1.6-4.1,2.4-6.7,2.4c-1.3,0-2.5-0.2-3.7-0.6
					c-1.1-0.4-2.1-1-3-1.8c-0.9-0.8-1.5-1.8-2-3c-0.5-1.2-0.7-2.5-0.7-4.1v-50c0-3,0.9-5.4,2.8-7c1.9-1.6,4.1-2.5,6.6-2.5
					c1.9,0,3.4,0.3,4.7,1c1.3,0.6,2.3,1.7,3.1,3.3l17.2,26.2v-21c0-1.5,0.3-2.9,0.8-4.1c0.5-1.2,1.2-2.2,2.1-3
					c0.9-0.8,1.9-1.4,3-1.8c1.1-0.4,2.4-0.6,3.7-0.6c2.6,0,4.8,0.8,6.7,2.4c1.9,1.6,2.8,4,2.8,7v50c0,3.1-0.9,5.4-2.8,7
					c-1.9,1.6-4.1,2.4-6.7,2.4c-1.3,0-2.4-0.2-3.3-0.5c-0.9-0.3-1.7-0.7-2.4-1.2c-0.6-0.4-1.2-0.9-1.6-1.3c-0.4-0.5-0.7-0.8-1-1.2
					L417.9,219.1z"/>
			</g>
		</g>
		<g>
			<g>
				<path class="st7" d="M382.7,254.3c0,4.1-0.8,8-2.3,11.6c-1.6,3.6-3.7,6.8-6.4,9.4c-2.7,2.7-5.9,4.8-9.5,6.3
					c-3.6,1.5-7.5,2.3-11.6,2.3c-4.1,0-8-0.8-11.6-2.3c-3.6-1.5-6.7-3.6-9.4-6.3c-2.7-2.7-4.8-5.8-6.4-9.4
					c-1.6-3.6-2.3-7.5-2.3-11.6s0.8-8,2.3-11.6c1.6-3.6,3.7-6.8,6.4-9.4c2.7-2.7,5.8-4.8,9.4-6.4c3.6-1.6,7.4-2.3,11.6-2.3
					c4.1,0,8,0.8,11.6,2.3c3.6,1.6,6.8,3.7,9.5,6.4c2.7,2.7,4.8,5.8,6.4,9.4C381.9,246.3,382.7,250.2,382.7,254.3z M366.5,254.4
					c0-1.9-0.4-3.6-1.1-5.3c-0.7-1.6-1.7-3.1-2.9-4.3c-1.2-1.2-2.7-2.2-4.3-2.9c-1.6-0.7-3.4-1.1-5.3-1.1c-1.9,0-3.6,0.4-5.3,1.1
					c-1.6,0.7-3.1,1.7-4.3,2.9c-1.2,1.2-2.1,2.7-2.8,4.3c-0.7,1.6-1.1,3.4-1.1,5.3c0,1.9,0.4,3.6,1.1,5.3c0.7,1.6,1.7,3.1,2.8,4.3
					c1.2,1.2,2.6,2.1,4.3,2.9c1.6,0.7,3.4,1.1,5.3,1.1c1.9,0,3.6-0.4,5.3-1.1c1.6-0.7,3.1-1.7,4.3-2.9c1.2-1.2,2.2-2.6,2.9-4.3
					C366.2,258.1,366.5,256.3,366.5,254.4z"/>
				<path class="st7" d="M396.9,283.6c-5.2,0-7.7-2.6-7.7-7.8c0-5.6,2.6-8.4,7.8-8.4h21.5c2.1,0,3.2-0.8,3.2-2.4
					c0-1.6-1.1-2.4-3.2-2.4h-13.1c-11.4-0.3-17.1-6.5-17.1-18.6c0-12.4,6.1-18.6,18.3-18.6h17.7c5.1,0,7.6,2.6,7.6,7.8
					c0,5.6-2.6,8.4-7.7,8.4h-18.7c-2.1,0-3.2,0.8-3.2,2.4c0,1.6,1.1,2.4,3.2,2.4h13.2c11.4,0.3,17.1,6.5,17.1,18.6
					c0,12.4-6,18.6-18.1,18.6H396.9z"/>
			</g>
		</g>
	</g>
	<path class="st7" d="M314.6,225.2c-1.7-1.4-3.6-2.2-5.9-2.2c-1.6,0-3,0.3-4.1,0.9c-1.1,0.6-2,1.5-2.7,2.9l-13.5,20.6l-13.5-20.6
		c-0.7-1.4-1.6-2.3-2.7-2.9c-1.1-0.6-2.5-0.9-4.1-0.9c-2.2,0-4.2,0.7-5.9,2.2c-1.7,1.4-2.5,3.5-2.5,6.2v44.1c0,1.4,0.2,2.6,0.7,3.6
		c0.4,1,1,1.9,1.8,2.6c0.8,0.7,1.7,1.2,2.7,1.6c1,0.4,2.1,0.5,3.2,0.5c2.3,0,4.3-0.7,5.9-2.1c1.7-1.4,2.5-3.5,2.5-6.2v-17.3
		l5.6,10.9c1.7,2.4,3.9,3.6,6.8,3.6c2.9,0,5-1.2,6.2-3.6l5.4-10.5v16.9c0,2.7,0.8,4.8,2.5,6.2c1.7,1.4,3.6,2.1,5.9,2.1
		c1.1,0,2.2-0.2,3.2-0.5c1-0.4,1.9-0.9,2.7-1.6c0.8-0.7,1.4-1.6,1.8-2.6c0.4-1,0.7-2.2,0.7-3.6v-44.1
		C317.1,228.7,316.2,226.7,314.6,225.2z"/>
</g>
</svg>
