<?xml version="1.0" encoding="utf-8"?>
<!-- Generator: Adobe Illustrator 22.1.0, SVG Export Plug-In . SVG Version: 6.00 Build 0)  -->
<svg version="1.1" id="b5708c2f-4f88-4c73-bc81-55ebbc869fb7"
	 xmlns="http://www.w3.org/2000/svg" xmlns:xlink="http://www.w3.org/1999/xlink" x="0px" y="0px" viewBox="0 0 367 741.6"
	 style="enable-background:new 0 0 367 741.6;" xml:space="preserve">
<style type="text/css">
	.st0{fill:#3F3D56;}
	.st1{fill:#FFFFFF;}
	.st2{fill:none;stroke:#000000;stroke-width:1.4215;stroke-miterlimit:10;}
	.st3{fill:#F7D109;}
	.st4{enable-background:new    ;}
	.st5{fill:#325CA7;}
	.st6{fill:#DEA02B;}
	.st7{fill:#21559C;}
	.st8{fill:none;stroke:#000000;stroke-width:0.6896;stroke-miterlimit:10;}
	.st9{fill:#686868;}
	.st10{font-family:'Helvetica';}
	.st11{font-size:9.9607px;}
	.st12{fill:#636363;}
	.st13{font-size:11.1933px;}
	.st14{font-size:8px;}
	.st15{fill:#0054A2;}
</style>
<title>modern_design</title>
<path class="st0" d="M1448.2,178.9h-4V69.4c0-35-28.4-63.4-63.4-63.4l0,0h-232.1c-35,0-63.4,28.4-63.4,63.4l0,0v601
	c0,35,28.4,63.4,63.4,63.4l0,0h232.1c35,0,63.4-28.4,63.4-63.4l0,0V256.9h4V178.9z"/>
<path class="st1" d="M1382.1,22.5h-30.3c4.7,11.5-0.8,24.6-12.3,29.3c-2.7,1.1-5.6,1.7-8.5,1.7h-133c-12.4,0-22.5-10.1-22.5-22.5
	c0-2.9,0.6-5.8,1.7-8.5h-28.3c-26.1,0-47.3,21.2-47.3,47.3l0,0v600.1c0,26.1,21.2,47.3,47.3,47.3l0,0h233.2
	c26.1,0,47.3-21.2,47.3-47.3l0,0V69.8C1429.4,43.7,1408.2,22.5,1382.1,22.5z"/>
<g>
	<rect x="1366.7" y="79.4" width="28.2" height="2.3"/>
	<rect x="1366.7" y="87.9" width="28.2" height="2.3"/>
	<rect x="1366.7" y="96.4" width="28.2" height="2.3"/>
</g>
<path class="st2" d="M1398.8,187.1h-254c-2.3,0-4.3-1.9-4.3-4.3v-14.2c0-2.3,1.9-4.3,4.3-4.3h254c2.3,0,4.3,1.9,4.3,4.3v14.2
	C1403.1,185.2,1401.2,187.1,1398.8,187.1z"/>
<path class="st2" d="M1398.8,229.8h-254c-2.3,0-4.3-1.9-4.3-4.3v-14.2c0-2.3,1.9-4.3,4.3-4.3h254c2.3,0,4.3,1.9,4.3,4.3v14.2
	C1403.1,227.9,1401.2,229.8,1398.8,229.8z"/>
<path class="st2" d="M1398.8,271.1h-254c-2.3,0-4.3-1.9-4.3-4.3v-14.2c0-2.3,1.9-4.3,4.3-4.3h254c2.3,0,4.3,1.9,4.3,4.3v14.2
	C1403.1,269.2,1401.2,271.1,1398.8,271.1z"/>
<path class="st2" d="M1398.8,480.1h-254c-2.3,0-4.3-1.9-4.3-4.3v-14.2c0-2.3,1.9-4.3,4.3-4.3h254c2.3,0,4.3,1.9,4.3,4.3v14.2
	C1403.1,478.2,1401.2,480.1,1398.8,480.1z"/>
<text transform="matrix(1 0 0 1 1144.6549 179.0051)" class="st10 st11">Seu endereço</text>
<text transform="matrix(1 0 0 1 1144.6549 221.6882)" class="st10 st11">Escola/Faculdade</text>
<text transform="matrix(1 0 0 1 1144.6549 263.0188)" class="st10 st11">Turno</text>
<g>
	<path class="st3" d="M1321.7,318.3h-116.8c-2.3,0-4.3-1.9-4.3-4.3v-18.5c0-2.3,1.9-4.3,4.3-4.3h116.8c2.3,0,4.3,1.9,4.3,4.3V314
		C1326,316.4,1324.1,318.3,1321.7,318.3z"/>
	<g class="st4">
		<path class="st5" d="M1241.2,304.7c-0.5,0.4-1.2,0.6-2.2,0.6h-1.8v3.1h-1.8v-8.7h3.7c0.9,0,1.6,0.2,2.1,0.7s0.8,1.1,0.8,2.1
			C1241.9,303.6,1241.7,304.3,1241.2,304.7z M1239.8,301.6c-0.2-0.2-0.6-0.3-1-0.3h-1.6v2.6h1.6c0.4,0,0.7-0.1,1-0.3
			c0.2-0.2,0.3-0.5,0.3-1S1240,301.8,1239.8,301.6z"/>
		<path class="st5" d="M1247.5,302.2c0.5,0.2,0.8,0.5,1.1,1c0.3,0.4,0.4,0.8,0.5,1.3c0,0.3,0.1,0.7,0.1,1.3h-4.7
			c0,0.6,0.3,1.1,0.7,1.4c0.3,0.2,0.6,0.2,0.9,0.2c0.4,0,0.7-0.1,0.9-0.3c0.1-0.1,0.2-0.3,0.3-0.4h1.7c0,0.4-0.3,0.8-0.6,1.2
			c-0.6,0.6-1.4,0.9-2.4,0.9c-0.9,0-1.6-0.3-2.3-0.8s-1-1.4-1-2.6c0-1.1,0.3-2,0.9-2.6s1.4-0.9,2.3-0.9
			C1246.5,301.9,1247,302,1247.5,302.2z M1244.9,303.6c-0.2,0.2-0.4,0.6-0.4,1h2.9c0-0.4-0.2-0.8-0.4-1c-0.3-0.2-0.6-0.3-1-0.3
			C1245.5,303.3,1245.2,303.4,1244.9,303.6z"/>
		<path class="st5" d="M1251.3,306.4c0,0.3,0.1,0.5,0.2,0.6c0.2,0.2,0.6,0.3,1.2,0.3c0.3,0,0.6,0,0.8-0.1c0.2-0.1,0.3-0.2,0.3-0.4
			c0-0.2-0.1-0.3-0.2-0.4s-0.7-0.3-1.8-0.5c-0.7-0.2-1.3-0.4-1.6-0.7c-0.3-0.3-0.5-0.7-0.5-1.2c0-0.6,0.2-1.1,0.7-1.5s1.1-0.6,2-0.6
			c0.8,0,1.5,0.2,2,0.5s0.8,0.9,0.9,1.7h-1.7c0-0.2-0.1-0.4-0.2-0.5c-0.2-0.2-0.5-0.3-1-0.3c-0.4,0-0.6,0.1-0.8,0.2
			c-0.2,0.1-0.2,0.2-0.2,0.4c0,0.2,0.1,0.3,0.2,0.4c0.2,0.1,0.8,0.2,1.8,0.5c0.7,0.2,1.2,0.4,1.5,0.7c0.3,0.3,0.5,0.7,0.5,1.2
			c0,0.6-0.2,1.2-0.7,1.6s-1.2,0.6-2.2,0.6s-1.8-0.2-2.3-0.6s-0.7-1-0.7-1.6h1.8V306.4z"/>
		<path class="st5" d="M1260.4,302.3c0.2,0.2,0.4,0.4,0.6,0.7v-1h1.6v9h-1.7v-3.4c-0.1,0.3-0.3,0.5-0.6,0.7
			c-0.3,0.2-0.7,0.3-1.3,0.3c-0.7,0-1.4-0.3-1.9-0.9s-0.8-1.4-0.8-2.4c0-1.1,0.3-1.9,0.8-2.6c0.5-0.6,1.2-1,2-1
			C1259.6,301.9,1260,302,1260.4,302.3z M1260.7,306.5c0.2-0.3,0.2-0.7,0.2-1.2c0-0.4-0.1-0.7-0.2-1.1c-0.2-0.6-0.7-0.8-1.3-0.8
			c-0.4,0-0.8,0.2-1,0.5c-0.3,0.3-0.4,0.8-0.4,1.5c0,0.4,0.1,0.8,0.2,1.1c0.2,0.5,0.6,0.8,1.2,0.8
			C1260.1,307.2,1260.5,307,1260.7,306.5z"/>
		<path class="st5" d="M1265.8,302v3.9c0,0.4,0,0.6,0.1,0.8c0.2,0.3,0.5,0.5,0.9,0.5c0.6,0,1-0.2,1.2-0.7c0.1-0.3,0.2-0.6,0.2-1V302
			h1.7v6.5h-1.6v-0.9c0,0-0.1,0.1-0.1,0.2s-0.1,0.2-0.2,0.3c-0.3,0.2-0.5,0.4-0.8,0.5s-0.5,0.1-0.9,0.1c-1,0-1.6-0.3-1.9-1
			c-0.2-0.4-0.3-0.9-0.3-1.7v-4H1265.8z"/>
		<path class="st5" d="M1273.3,301.3h-1.7v-1.6h1.7V301.3z M1271.6,302h1.7v6.5h-1.7V302z"/>
		<path class="st5" d="M1276.3,306.4c0,0.3,0.1,0.5,0.2,0.6c0.2,0.2,0.6,0.3,1.2,0.3c0.3,0,0.6,0,0.8-0.1c0.2-0.1,0.3-0.2,0.3-0.4
			c0-0.2-0.1-0.3-0.2-0.4s-0.7-0.3-1.8-0.5c-0.7-0.2-1.3-0.4-1.5-0.7c-0.3-0.3-0.5-0.7-0.5-1.2c0-0.6,0.2-1.1,0.7-1.5s1.1-0.6,2-0.6
			c0.8,0,1.5,0.2,2,0.5s0.8,0.9,0.9,1.7h-1.7c0-0.2-0.1-0.4-0.2-0.5c-0.2-0.2-0.5-0.3-1-0.3c-0.4,0-0.6,0.1-0.8,0.2
			c-0.2,0.1-0.2,0.2-0.2,0.4c0,0.2,0.1,0.3,0.3,0.4c0.2,0.1,0.8,0.2,1.8,0.5c0.7,0.2,1.2,0.4,1.5,0.7c0.3,0.3,0.5,0.7,0.5,1.2
			c0,0.6-0.2,1.2-0.7,1.6s-1.2,0.6-2.2,0.6s-1.8-0.2-2.3-0.6s-0.7-1-0.7-1.6h1.6V306.4z"/>
		<path class="st5" d="M1284.2,304.6c0.3,0,0.5-0.1,0.7-0.1c0.2-0.1,0.4-0.3,0.4-0.5c0-0.3-0.1-0.4-0.3-0.5
			c-0.2-0.1-0.5-0.2-0.8-0.2c-0.4,0-0.7,0.1-0.9,0.3c-0.1,0.1-0.2,0.3-0.2,0.6h-1.6c0-0.6,0.2-1,0.5-1.4c0.4-0.6,1.2-0.9,2.3-0.9
			c0.7,0,1.3,0.1,1.9,0.4s0.8,0.8,0.8,1.6v3c0,0.2,0,0.5,0,0.7s0,0.4,0.1,0.5s0.1,0.1,0.2,0.2v0.2h-1.8c-0.1-0.1-0.1-0.3-0.1-0.4
			s0-0.2,0-0.4c-0.2,0.3-0.5,0.5-0.8,0.6c-0.4,0.2-0.8,0.3-1.2,0.3c-0.6,0-1.1-0.2-1.5-0.5s-0.6-0.8-0.6-1.4c0-0.8,0.3-1.4,0.9-1.7
			c0.3-0.2,0.8-0.3,1.5-0.4L1284.2,304.6z M1285.3,305.4c-0.1,0.1-0.2,0.1-0.3,0.2c-0.1,0-0.3,0.1-0.5,0.1l-0.4,0.1
			c-0.4,0.1-0.6,0.1-0.8,0.2c-0.3,0.2-0.4,0.4-0.4,0.7c0,0.3,0.1,0.5,0.2,0.6c0.2,0.1,0.4,0.2,0.6,0.2c0.4,0,0.7-0.1,1-0.3
			c0.3-0.2,0.5-0.6,0.5-1.2v-0.6H1285.3z"/>
		<path class="st5" d="M1292,301.9L1292,301.9l0.1,1.7c-0.1,0-0.2,0-0.3,0s-0.1,0-0.2,0c-0.7,0-1.1,0.2-1.4,0.7
			c-0.1,0.2-0.2,0.6-0.2,1.1v3.1h-1.7V302h1.6v1.1c0.3-0.4,0.5-0.7,0.7-0.9C1291,302,1291.4,301.9,1292,301.9L1292,301.9z"/>
	</g>
</g>
<g>
	<path class="st3" d="M1322.3,530.3h-116.8c-2.3,0-4.3-1.9-4.3-4.3v-18.5c0-2.3,1.9-4.3,4.3-4.3h116.8c2.3,0,4.3,1.9,4.3,4.3V526
		C1326.5,528.4,1324.6,530.3,1322.3,530.3z"/>
	<g class="st4">
		<path class="st5" d="M1252.8,513.3h-4.6v1.9h4.2v1.5h-4.2v2.2h4.8v1.6h-6.6v-8.7h6.4L1252.8,513.3L1252.8,513.3z"/>
		<path class="st5" d="M1259.5,514.4c0.4,0.3,0.6,0.9,0.6,1.7v4.3h-1.7v-3.9c0-0.3,0-0.6-0.1-0.8c-0.2-0.3-0.5-0.5-0.9-0.5
			c-0.6,0-1,0.2-1.2,0.7c-0.1,0.3-0.2,0.6-0.2,1v3.5h-1.7V514h1.6v0.9c0.2-0.3,0.4-0.6,0.6-0.7c0.3-0.3,0.8-0.4,1.3-0.4
			C1258.5,513.9,1259,514.1,1259.5,514.4z"/>
		<path class="st5" d="M1265.6,514h1.8l-2.3,6.5h-1.8l-2.3-6.5h1.9l1.3,4.8L1265.6,514z"/>
		<path class="st5" d="M1270.1,513.3h-1.7v-1.6h1.7V513.3z M1268.4,514h1.7v6.5h-1.7V514z"/>
		<path class="st5" d="M1274.3,516.6c0.3,0,0.5-0.1,0.7-0.1c0.2-0.1,0.4-0.3,0.4-0.5c0-0.3-0.1-0.4-0.3-0.5
			c-0.2-0.1-0.5-0.2-0.8-0.2c-0.4,0-0.7,0.1-0.9,0.3c-0.1,0.1-0.2,0.3-0.2,0.6h-1.6c0-0.6,0.2-1,0.5-1.4c0.4-0.6,1.2-0.9,2.3-0.9
			c0.7,0,1.3,0.1,1.9,0.4c0.6,0.3,0.8,0.8,0.8,1.6v3c0,0.2,0,0.5,0,0.7s0,0.4,0.1,0.5s0.1,0.1,0.2,0.2v0.2h-1.8
			c-0.1-0.1-0.1-0.3-0.1-0.4c0-0.1,0-0.2,0-0.4c-0.2,0.3-0.5,0.5-0.8,0.6c-0.4,0.2-0.8,0.3-1.2,0.3c-0.6,0-1.1-0.2-1.5-0.5
			s-0.6-0.8-0.6-1.4c0-0.8,0.3-1.4,0.9-1.7c0.3-0.2,0.8-0.3,1.5-0.4L1274.3,516.6z M1275.4,517.4c-0.1,0.1-0.2,0.1-0.3,0.2
			c-0.1,0-0.3,0.1-0.5,0.1l-0.4,0.1c-0.4,0.1-0.6,0.1-0.8,0.2c-0.3,0.2-0.4,0.4-0.4,0.7s0.1,0.5,0.2,0.6c0.2,0.1,0.4,0.2,0.6,0.2
			c0.4,0,0.7-0.1,1-0.3s0.5-0.6,0.5-1.2v-0.6H1275.4z"/>
		<path class="st5" d="M1282.1,513.9L1282.1,513.9l0.1,1.7c-0.1,0-0.2,0-0.3,0s-0.2,0-0.2,0c-0.7,0-1.1,0.2-1.4,0.7
			c-0.1,0.2-0.2,0.6-0.2,1.1v3.1h-1.7V514h1.6v1.1c0.3-0.4,0.5-0.7,0.7-0.9C1281.1,514,1281.5,513.9,1282.1,513.9L1282.1,513.9z"/>
	</g>
</g>
<text transform="matrix(1 0 0 1 1190.6169 366.3127)" class="st10" style="font-size:18px;">Já utiliza o serviço</text>
<text transform="matrix(1 0 0 1 1182.6169 387.9128)" class="st10" style="font-size:18px;">de algum motorista?</text>
<g class="st4">
	<path d="M1178.4,414.4h1.8v12.9h-1.8V414.4z"/>
	<path d="M1182.8,417.9h1.5v1.3c0.4-0.6,0.9-0.9,1.4-1.2s1.1-0.4,1.7-0.4c1.3,0,2.2,0.5,2.7,1.4c0.3,0.5,0.4,1.2,0.4,2.2v6h-1.6
		v-5.9c0-0.6-0.1-1-0.3-1.4c-0.3-0.6-0.8-0.9-1.5-0.9c-0.4,0-0.7,0-0.9,0.1c-0.4,0.1-0.8,0.4-1.1,0.8c-0.3,0.3-0.4,0.6-0.5,1
		s-0.1,0.8-0.1,1.4v4.9h-1.6L1182.8,417.9L1182.8,417.9z"/>
	<path d="M1193.7,424.4c0,0.5,0.2,0.9,0.4,1.2c0.4,0.5,1.1,0.8,2.1,0.8c0.6,0,1.1-0.1,1.5-0.4s0.7-0.6,0.7-1.2
		c0-0.4-0.2-0.7-0.5-0.9c-0.2-0.1-0.7-0.3-1.4-0.4l-1.3-0.3c-0.8-0.2-1.4-0.4-1.8-0.7c-0.7-0.4-1-1-1-1.8c0-0.9,0.3-1.6,1-2.2
		s1.5-0.8,2.6-0.8c1.4,0,2.4,0.4,3.1,1.2c0.4,0.5,0.6,1.1,0.6,1.7h-1.5c0-0.4-0.2-0.7-0.4-1c-0.4-0.4-1-0.6-1.9-0.6
		c-0.6,0-1.1,0.1-1.4,0.3s-0.5,0.5-0.5,0.9s0.2,0.7,0.6,1c0.2,0.1,0.6,0.3,1,0.4l1,0.3c1.1,0.3,1.9,0.5,2.3,0.8
		c0.6,0.4,0.9,1,0.9,1.9c0,0.8-0.3,1.6-1,2.2s-1.6,0.9-2.9,0.9c-1.4,0-2.4-0.3-3-1c-0.6-0.6-0.9-1.4-0.9-2.4h1.7V424.4z"/>
	<path d="M1201.8,414.4h1.6v1.8h-1.6V414.4z M1201.8,417.9h1.6v9.4h-1.6V417.9z"/>
	<path d="M1205.8,417.9h1.5v1.6c0.1-0.3,0.4-0.7,0.9-1.2s1-0.7,1.7-0.7h0.1c0,0,0.2,0,0.4,0v1.7c-0.1,0-0.2,0-0.3,0s-0.2,0-0.3,0
		c-0.8,0-1.4,0.3-1.8,0.8s-0.6,1.1-0.6,1.8v5.4h-1.6L1205.8,417.9L1205.8,417.9z"/>
	<path d="M1216.8,421.6c0.4,0,0.6-0.2,0.7-0.5c0.1-0.1,0.1-0.3,0.1-0.6c0-0.5-0.2-0.9-0.6-1.2c-0.4-0.2-0.9-0.4-1.6-0.4
		c-0.8,0-1.4,0.2-1.8,0.7c-0.2,0.2-0.3,0.6-0.4,1.1h-1.5c0-1.2,0.4-2,1.1-2.4c0.7-0.5,1.6-0.7,2.5-0.7c1.1,0,2,0.2,2.7,0.6
		s1,1.1,1,2v5.4c0,0.2,0,0.3,0.1,0.4s0.2,0.1,0.4,0.1c0.1,0,0.1,0,0.2,0s0.2,0,0.3,0v1.2c-0.2,0.1-0.4,0.1-0.6,0.1s-0.3,0-0.5,0
		c-0.5,0-0.9-0.2-1.2-0.6c-0.1-0.2-0.2-0.5-0.3-0.9c-0.3,0.4-0.8,0.8-1.4,1.1s-1.3,0.5-2,0.5c-0.9,0-1.6-0.3-2.1-0.8
		c-0.6-0.5-0.8-1.2-0.8-2c0-0.9,0.3-1.5,0.8-2s1.3-0.8,2.1-0.9L1216.8,421.6z M1213.5,425.9c0.3,0.3,0.7,0.4,1.2,0.4
		c0.6,0,1.1-0.1,1.6-0.4c0.9-0.4,1.3-1.1,1.3-2.1v-1.3c-0.2,0.1-0.4,0.2-0.7,0.3s-0.6,0.1-0.9,0.2l-1,0.1c-0.6,0.1-1,0.2-1.3,0.4
		c-0.5,0.3-0.7,0.7-0.7,1.3C1213,425.3,1213.1,425.6,1213.5,425.9z"/>
	<path d="M1227.7,424.4c0,0.5,0.2,0.9,0.4,1.2c0.4,0.5,1.1,0.8,2.1,0.8c0.6,0,1.1-0.1,1.5-0.4s0.7-0.6,0.7-1.2
		c0-0.4-0.2-0.7-0.5-0.9c-0.2-0.1-0.7-0.3-1.4-0.4l-1.3-0.3c-0.8-0.2-1.4-0.4-1.8-0.7c-0.7-0.4-1-1-1-1.8c0-0.9,0.3-1.6,1-2.2
		s1.5-0.8,2.6-0.8c1.4,0,2.4,0.4,3.1,1.2c0.4,0.5,0.6,1.1,0.6,1.7h-1.5c0-0.4-0.2-0.7-0.4-1c-0.4-0.4-1-0.6-1.9-0.6
		c-0.6,0-1.1,0.1-1.4,0.3s-0.5,0.5-0.5,0.9s0.2,0.7,0.6,1c0.2,0.1,0.6,0.3,1,0.4l1,0.3c1.1,0.3,1.9,0.5,2.3,0.8
		c0.6,0.4,0.9,1,0.9,1.9c0,0.8-0.3,1.6-1,2.2s-1.6,0.9-2.9,0.9c-1.4,0-2.4-0.3-3-1c-0.6-0.6-0.9-1.4-0.9-2.4h1.7V424.4z"/>
	<path d="M1241.6,418.2c0.6,0.3,1.1,0.7,1.4,1.2s0.5,1,0.6,1.7c0.1,0.4,0.1,1.1,0.1,2.1h-6.9c0,1,0.3,1.7,0.7,2.3s1.1,0.9,2,0.9
		c0.8,0,1.5-0.3,2-0.8c0.3-0.3,0.5-0.7,0.6-1.1h1.6c0,0.3-0.2,0.7-0.4,1.2s-0.5,0.8-0.8,1c-0.5,0.5-1.1,0.8-1.8,0.9
		c-0.4,0.1-0.8,0.1-1.3,0.1c-1.2,0-2.2-0.4-3-1.3s-1.2-2-1.2-3.6c0-1.5,0.4-2.7,1.2-3.7s1.9-1.4,3.2-1.4
		C1240.4,417.7,1241,417.8,1241.6,418.2z M1242.2,421.9c-0.1-0.7-0.2-1.2-0.4-1.6c-0.4-0.8-1.2-1.1-2.2-1.1c-0.7,0-1.3,0.3-1.8,0.8
		s-0.8,1.2-0.8,2L1242.2,421.9L1242.2,421.9z"/>
	<path d="M1247.4,417.9v6.2c0,0.5,0.1,0.9,0.2,1.2c0.3,0.6,0.8,0.8,1.6,0.8c1.1,0,1.9-0.5,2.3-1.5c0.2-0.5,0.3-1.3,0.3-2.2v-4.6h1.6
		v9.4h-1.5v-1.4c-0.2,0.4-0.5,0.7-0.8,0.9c-0.6,0.5-1.3,0.7-2.2,0.7c-1.3,0-2.3-0.4-2.7-1.3c-0.3-0.5-0.4-1.1-0.4-1.9v-6.4
		L1247.4,417.9L1247.4,417.9z"/>
	<path d="M1267,418.4c0.7,0.5,1.1,1.4,1.2,2.7h-1.5c-0.1-0.6-0.3-1.1-0.6-1.4c-0.3-0.4-0.9-0.6-1.6-0.6c-1,0-1.7,0.5-2.2,1.5
		c-0.3,0.6-0.4,1.4-0.4,2.4c0,0.9,0.2,1.7,0.6,2.4s1,1,1.9,1c0.7,0,1.2-0.2,1.6-0.6s0.6-1,0.8-1.6h1.5c-0.2,1.2-0.6,2.2-1.3,2.7
		c-0.7,0.6-1.6,0.9-2.7,0.9c-1.2,0-2.2-0.4-2.9-1.3s-1.1-2-1.1-3.4c0-1.7,0.4-2.9,1.2-3.9s1.8-1.4,3.1-1.4
		C1265.5,417.6,1266.3,417.9,1267,418.4z"/>
	<path d="M1276.7,418.8c0.8,0.8,1.3,2,1.3,3.6c0,1.5-0.4,2.8-1.1,3.8s-1.9,1.5-3.4,1.5c-1.3,0-2.3-0.4-3.1-1.3
		c-0.8-0.9-1.1-2.1-1.1-3.5c0-1.6,0.4-2.8,1.2-3.8c0.8-0.9,1.9-1.4,3.2-1.4C1274.8,417.6,1275.8,418,1276.7,418.8z M1275.7,425.1
		c0.4-0.8,0.6-1.7,0.6-2.6s-0.1-1.6-0.4-2.1c-0.4-0.9-1.2-1.3-2.3-1.3c-1,0-1.7,0.4-2.1,1.1s-0.7,1.6-0.7,2.7c0,1,0.2,1.8,0.7,2.5
		s1.1,1,2.1,1C1274.6,426.3,1275.3,425.9,1275.7,425.1z M1275.4,414.1l-2.3,2.5h-1.2l1.6-2.5H1275.4z"/>
	<path d="M1285,418.2c0.3,0.2,0.6,0.5,1,0.9v-4.8h1.5v13h-1.4V426c-0.4,0.6-0.8,1-1.3,1.3s-1.1,0.4-1.7,0.4c-1,0-2-0.4-2.7-1.3
		s-1.2-2.1-1.2-3.5s0.4-2.6,1.1-3.6s1.7-1.5,3-1.5C1283.9,417.7,1284.5,417.9,1285,418.2z M1281.4,425.2c0.4,0.7,1.1,1,2.1,1
		c0.7,0,1.3-0.3,1.8-0.9s0.7-1.5,0.7-2.7s-0.2-2.1-0.7-2.6c-0.5-0.6-1.1-0.9-1.8-0.9c-0.8,0-1.4,0.3-1.9,0.9s-0.7,1.5-0.7,2.7
		C1280.8,423.7,1281,424.6,1281.4,425.2z"/>
	<path d="M1289.8,414.4h1.6v1.8h-1.6V414.4z M1289.8,417.9h1.6v9.4h-1.6V417.9z"/>
	<path d="M1299.1,418.3c0.3,0.2,0.6,0.5,0.9,0.9V418h1.5v8.6c0,1.2-0.2,2.1-0.5,2.8c-0.7,1.3-1.9,1.9-3.7,1.9c-1,0-1.9-0.2-2.6-0.7
		s-1.1-1.2-1.2-2.1h1.6c0.1,0.4,0.2,0.7,0.5,1c0.4,0.4,0.9,0.5,1.7,0.5c1.2,0,2-0.4,2.4-1.3c0.2-0.5,0.3-1.4,0.3-2.7
		c-0.3,0.5-0.7,0.8-1.1,1.1s-1,0.4-1.8,0.4c-1,0-1.9-0.4-2.7-1.1s-1.1-1.9-1.1-3.6c0-1.6,0.4-2.8,1.2-3.7s1.7-1.3,2.8-1.3
		C1297.9,417.7,1298.5,417.9,1299.1,418.3z M1299.3,420c-0.5-0.6-1.1-0.8-1.8-0.8c-1.1,0-1.9,0.5-2.3,1.6c-0.2,0.6-0.3,1.3-0.3,2.2
		c0,1.1,0.2,1.9,0.6,2.4c0.4,0.6,1,0.8,1.7,0.8c1.1,0,1.9-0.5,2.4-1.5c0.3-0.6,0.4-1.3,0.4-2C1300,421.4,1299.7,420.5,1299.3,420z"
		/>
	<path d="M1310.7,418.8c0.8,0.8,1.3,2,1.3,3.6c0,1.5-0.4,2.8-1.1,3.8s-1.9,1.5-3.4,1.5c-1.3,0-2.3-0.4-3.1-1.3s-1.1-2.1-1.1-3.5
		c0-1.6,0.4-2.8,1.2-3.8s1.9-1.4,3.2-1.4C1308.8,417.6,1309.9,418,1310.7,418.8z M1309.7,425.1c0.4-0.8,0.6-1.7,0.6-2.6
		s-0.1-1.6-0.4-2.1c-0.4-0.9-1.2-1.3-2.3-1.3c-1,0-1.7,0.4-2.1,1.1s-0.7,1.6-0.7,2.7c0,1,0.2,1.8,0.7,2.5s1.1,1,2.1,1
		C1308.6,426.3,1309.3,425.9,1309.7,425.1z"/>
	<path d="M1323.9,421.6c0.4,0,0.6-0.2,0.7-0.5c0.1-0.1,0.1-0.3,0.1-0.6c0-0.5-0.2-0.9-0.6-1.2c-0.4-0.2-0.9-0.4-1.6-0.4
		c-0.8,0-1.4,0.2-1.8,0.7c-0.2,0.2-0.3,0.6-0.4,1.1h-1.5c0-1.2,0.4-2,1.1-2.4c0.7-0.5,1.6-0.7,2.5-0.7c1.1,0,2,0.2,2.7,0.6
		s1,1.1,1,2v5.4c0,0.2,0,0.3,0.1,0.4s0.2,0.1,0.4,0.1c0.1,0,0.1,0,0.2,0s0.2,0,0.3,0v1.2c-0.2,0.1-0.4,0.1-0.6,0.1s-0.3,0-0.5,0
		c-0.5,0-0.9-0.2-1.2-0.6c-0.1-0.2-0.2-0.5-0.3-0.9c-0.3,0.4-0.8,0.8-1.4,1.1s-1.3,0.5-2,0.5c-0.9,0-1.6-0.3-2.1-0.8
		c-0.6-0.5-0.8-1.2-0.8-2c0-0.9,0.3-1.5,0.8-2s1.3-0.8,2.1-0.9L1323.9,421.6z M1320.5,425.9c0.3,0.3,0.7,0.4,1.2,0.4
		c0.6,0,1.1-0.1,1.6-0.4c0.9-0.4,1.3-1.1,1.3-2.1v-1.3c-0.2,0.1-0.4,0.2-0.7,0.3s-0.6,0.1-0.9,0.2l-1,0.1c-0.6,0.1-1,0.2-1.3,0.4
		c-0.5,0.3-0.7,0.7-0.7,1.3C1320,425.3,1320.2,425.6,1320.5,425.9z"/>
	<path d="M1334.2,418.3c0.3,0.2,0.6,0.5,0.8,0.9v-1.3h1.5v13.2h-1.6v-4.8c-0.3,0.4-0.6,0.8-1.1,1s-1,0.4-1.7,0.4
		c-1,0-1.9-0.4-2.7-1.2s-1.2-2-1.2-3.6c0-1.5,0.4-2.7,1.1-3.7s1.7-1.5,2.9-1.5C1333,417.7,1333.6,417.9,1334.2,418.3z M1330.2,424.8
		c0.4,1,1.1,1.5,2.2,1.5s1.9-0.5,2.3-1.5c0.2-0.6,0.3-1.3,0.3-2.2c0-0.8-0.1-1.5-0.4-2c-0.4-0.9-1.2-1.4-2.3-1.4
		c-0.7,0-1.3,0.3-1.8,0.9s-0.7,1.5-0.7,2.8C1329.9,423.5,1330,424.2,1330.2,424.8z"/>
	<path d="M1340.4,417.9v6.2c0,0.5,0.1,0.9,0.2,1.2c0.3,0.6,0.8,0.8,1.6,0.8c1.1,0,1.9-0.5,2.3-1.5c0.2-0.5,0.3-1.3,0.3-2.2v-4.6h1.6
		v9.4h-1.5v-1.4c-0.2,0.4-0.5,0.7-0.8,0.9c-0.6,0.5-1.3,0.7-2.2,0.7c-1.3,0-2.3-0.4-2.7-1.3c-0.3-0.5-0.4-1.1-0.4-1.9v-6.4
		L1340.4,417.9L1340.4,417.9z"/>
	<path d="M1348.9,414.4h1.6v1.8h-1.6V414.4z M1348.9,417.9h1.6v9.4h-1.6V417.9z"/>
</g>
<text transform="matrix(1 0 0 1 1154.3899 558.3928)" class="st12 st10 st13">Não sabe como obter esse código? </text>
<text transform="matrix(1 0 0 1 1333.5898 558.3928)" class="st12 st10 st13" style="text-decoration: underline;">Clique aqui</text>
<path class="st2" d="M1135.6,696.5"/>
<g id="XMLID_2_">
	<g>
		<g>
			<path class="st5" d="M1145.1,674.9l-0.5-0.4l-0.5,0.4l-12.7,9.6l1,1.3l1-0.7V698h8.5v-8.1h5.6v8.1h8.5v-12.9l1,0.7l1-1.3
				L1145.1,674.9z M1154.3,696.4L1154.3,696.4h-5.3v-8.1h-8.8v8.1h-5.3v-12.3l9.7-7.5l9.7,7.5L1154.3,696.4L1154.3,696.4z"/>
		</g>
	</g>
</g>
<g>
	<g>
		<g>
			<path d="M1203.7,674.6c-4.7,0-8.5,3.8-8.5,8.5c0,5.8,7.6,14.4,7.9,14.7s0.8,0.3,1.1,0c0.3-0.4,7.9-8.9,7.9-14.7
				C1212.2,678.4,1208.4,674.6,1203.7,674.6z M1203.7,696.1c-2.6-3-7-9-7-13c0-3.8,3.1-7,7-7s7,3.1,7,7S1206.3,693,1203.7,696.1z"/>
		</g>
	</g>
	<g>
		<g>
			<path d="M1203.7,678.8c-2.4,0-4.3,1.9-4.3,4.3s1.9,4.3,4.3,4.3s4.3-1.9,4.3-4.3S1206.1,678.8,1203.7,678.8z M1203.7,685.8
				c-1.5,0-2.7-1.2-2.7-2.7s1.2-2.7,2.7-2.7s2.7,1.2,2.7,2.7S1205.3,685.8,1203.7,685.8z"/>
		</g>
	</g>
</g>
<g>
	<g>
		<g>
			<path d="M1275.7,684.3c-0.3,0.5-0.7,0.9-1.2,1.2c1.8,1.2,3,3.2,3,5.5c0,0.7-1.1,1.3-1.7,1.5c-0.5,0.2-1.1,0.3-1.8,0.5
				c0,0.3,0,0.6,0,0.8s0,0.5-0.1,0.8c0.9-0.1,1.7-0.3,2.4-0.6c2.3-0.9,2.8-2.1,2.8-3C1279.2,688.2,1277.9,685.8,1275.7,684.3z"/>
			<path d="M1271.1,674.5c-1,0-2,0.4-2.8,1.2c0.3,0.4,0.6,0.8,0.8,1.3c0.5-0.6,1.2-1,2-1c1.6,0,3,1.7,3,3.8s-1.3,3.8-3,3.8
				c-0.5,0-1-0.2-1.4-0.4c-0.1,0.5-0.3,1-0.5,1.4c0.6,0.3,1.2,0.5,1.9,0.5c2.5,0,4.4-2.4,4.4-5.3
				C1275.6,676.9,1273.6,674.5,1271.1,674.5z"/>
			<path d="M1268.3,686.1c-0.4,0.4-0.7,0.8-1.1,1.1c2.2,1.3,3.7,3.8,3.7,6.6c0,0.9-1.3,1.6-2.1,1.9c-1.4,0.5-3.4,0.8-5.5,0.8
				s-4.1-0.3-5.5-0.8c-0.8-0.3-2.1-0.9-2.1-1.9c0-2.8,1.5-5.2,3.7-6.6c-0.4-0.3-0.8-0.7-1.1-1.1c-2.5,1.6-4.2,4.5-4.2,7.7
				c0,1,0.5,2.4,3.1,3.3c1.6,0.6,3.8,0.9,6.1,0.9c2.3,0,4.5-0.3,6.1-0.9c2.6-1,3.1-2.3,3.1-3.3
				C1272.5,690.5,1270.8,687.7,1268.3,686.1z"/>
			<path d="M1263.3,687c2.9,0,5.1-2.8,5.1-6.1s-2.2-6.1-5.1-6.1s-5.1,2.8-5.1,6.1C1258.1,684.2,1260.4,687,1263.3,687z
				 M1263.3,676.3c2,0,3.6,2,3.6,4.6c0,2.5-1.6,4.6-3.6,4.6s-3.6-2-3.6-4.6S1261.3,676.3,1263.3,676.3z"/>
		</g>
	</g>
</g>
<g>
	<g>
		<g>
			<path d="M1395.2,686.1c-0.4,0.4-0.7,0.8-1.1,1.1c2.2,1.3,3.7,3.8,3.7,6.6c0,0.9-1.3,1.6-2.1,1.9c-1.4,0.5-3.4,0.8-5.5,0.8
				s-4.1-0.3-5.5-0.8c-0.8-0.3-2.1-0.9-2.1-1.9c0-2.8,1.5-5.2,3.7-6.6c-0.4-0.3-0.8-0.7-1.1-1.1c-2.5,1.6-4.2,4.5-4.2,7.7
				c0,1,0.5,2.4,3.1,3.3c1.6,0.6,3.8,0.9,6.1,0.9c2.3,0,4.5-0.3,6.1-0.9c2.6-1,3.1-2.3,3.1-3.3
				C1399.4,690.5,1397.7,687.7,1395.2,686.1z"/>
			<path d="M1390.2,687c2.9,0,5.1-2.8,5.1-6.1s-2.2-6.1-5.1-6.1s-5.1,2.8-5.1,6.1C1385,684.2,1387.3,687,1390.2,687z M1390.2,676.3
				c2,0,3.6,2,3.6,4.6c0,2.5-1.6,4.6-3.6,4.6s-3.6-2-3.6-4.6S1388.2,676.3,1390.2,676.3z"/>
		</g>
	</g>
</g>
<g>
	<g>
		<g>
			<path d="M1331.9,685.4h-0.9c-0.8,0-1.5-0.7-1.5-1.5s0.7-1.5,1.5-1.5h0.9c0.8,0,1.5,0.7,1.5,1.5h1.8c0-1.6-1.2-3-2.8-3.2V679h-1.8
				v1.8c-1.6,0.2-2.8,1.6-2.8,3.2c0,1.8,1.5,3.2,3.2,3.2h0.9c0.8,0,1.5,0.7,1.5,1.5s-0.7,1.5-1.5,1.5h-0.9c-0.8,0-1.5-0.7-1.5-1.5
				h-1.8c0,1.6,1.2,3,2.8,3.2v1.8h1.8v-1.8c1.6-0.2,2.8-1.6,2.8-3.2C1335.1,686.9,1333.7,685.4,1331.9,685.4z"/>
		</g>
	</g>
	<g>
		<path d="M1331.5,674.7c-6.5,0-11.7,5.2-11.7,11.7s5.2,11.7,11.7,11.7s11.7-5.2,11.7-11.7S1337.9,674.7,1331.5,674.7z
			 M1331.5,696.4c-5.6,0-10.1-4.5-10.1-10.1s4.5-10.1,10.1-10.1s10.1,4.5,10.1,10.1C1341.5,691.9,1337,696.4,1331.5,696.4z"/>
	</g>
</g>
<g>
	<g>
		<g>
			<g>
				<path class="st6" d="M1240.8,72.9c-0.1-0.3-0.2-0.7-0.2-1.1s0.1-0.7,0.3-1.1c0.2-0.3,0.4-0.6,0.7-0.8c0.3-0.2,0.6-0.4,0.9-0.5
					c0.4-0.1,0.7-0.2,1.1-0.2s0.9,0.1,1.4,0.4s0.8,0.7,1.1,1.4l3.4,8.8l3.4-8.8c0.2-0.6,0.6-1.1,1-1.4s0.9-0.4,1.4-0.4
					c0.4,0,0.7,0.1,1.1,0.2c0.3,0.1,0.7,0.3,0.9,0.5c0.3,0.2,0.5,0.5,0.7,0.8s0.2,0.7,0.2,1.1c0,0.2,0,0.4,0,0.5
					c0,0.2-0.1,0.4-0.1,0.5l-5.9,14.4c-0.5,1.2-1.3,1.8-2.5,1.8s-2.1-0.6-2.8-1.8L1240.8,72.9z"/>
				<path class="st6" d="M1268.1,86.4h-7l-0.4,1c-0.5,1.2-1.3,1.8-2.4,1.8c-0.4,0-0.7-0.1-1.1-0.2s-0.7-0.3-0.9-0.5
					c-0.3-0.2-0.5-0.5-0.7-0.8s-0.3-0.7-0.3-1.1c0-0.2,0-0.3,0-0.5s0.1-0.4,0.1-0.6l6-14.5c0.2-0.6,0.6-1.1,1-1.4s0.9-0.4,1.4-0.4
					c0.4,0,0.7,0.1,1.1,0.2c0.3,0.1,0.7,0.3,0.9,0.5c0.3,0.2,0.5,0.5,0.7,0.8s0.2,0.7,0.2,1.1c0,0.2,0,0.4,0,0.5s-0.1,0.4-0.1,0.5
					l-3.6,8.5h2.7l-0.3-0.7c-0.1-0.2-0.1-0.4-0.2-0.5s0-0.4,0-0.5c0-0.4,0.1-0.7,0.3-1.1s0.4-0.6,0.7-0.8c0.3-0.2,0.6-0.4,0.9-0.6
					c0.4-0.1,0.7-0.2,1.1-0.2c0.5,0,1,0.1,1.4,0.4s0.8,0.8,1,1.4l3,6.6c0.1,0.4,0.2,0.8,0.2,1.1c0,0.4-0.1,0.7-0.3,1.1
					c-0.2,0.3-0.4,0.6-0.7,0.8c-0.3,0.2-0.6,0.4-0.9,0.5s-0.7,0.2-1.1,0.2c-0.5,0-1-0.1-1.4-0.4s-0.8-0.7-1-1.4L1268.1,86.4z"/>
				<path class="st6" d="M1286.1,87.9l-4.8-7.2v5.7c0,0.9-0.3,1.6-0.8,2c-0.5,0.5-1.2,0.7-1.9,0.7c-0.4,0-0.7-0.1-1.1-0.2
					c-0.3-0.1-0.6-0.3-0.9-0.5s-0.4-0.5-0.6-0.9c-0.1-0.3-0.2-0.7-0.2-1.2V71.9c0-0.9,0.3-1.5,0.8-2s1.2-0.7,1.9-0.7
					c0.5,0,1,0.1,1.3,0.3c0.4,0.2,0.7,0.5,0.9,0.9l5,7.5v-6.1c0-0.4,0.1-0.8,0.2-1.2c0.2-0.3,0.4-0.6,0.6-0.9
					c0.2-0.2,0.5-0.4,0.9-0.5s0.7-0.2,1.1-0.2c0.7,0,1.4,0.2,1.9,0.7s0.8,1.1,0.8,2v14.4c0,0.9-0.3,1.6-0.8,2
					c-0.5,0.5-1.2,0.7-1.9,0.7c-0.4,0-0.7,0-1-0.1s-0.5-0.2-0.7-0.3c-0.2-0.1-0.3-0.3-0.5-0.4C1286.4,88,1286.3,87.9,1286.1,87.9
					L1286.1,87.9z"/>
			</g>
		</g>
		<g>
			<g>
				<path class="st7" d="M1276,98c0,1.2-0.2,2.3-0.7,3.3c-0.4,1-1.1,1.9-1.8,2.7c-0.8,0.8-1.7,1.4-2.7,1.8s-2.2,0.7-3.3,0.7
					c-1.2,0-2.3-0.2-3.3-0.7c-1-0.4-1.9-1-2.7-1.8c-0.8-0.8-1.4-1.7-1.8-2.7s-0.7-2.2-0.7-3.3s0.2-2.3,0.7-3.3
					c0.4-1,1.1-1.9,1.8-2.7c0.8-0.8,1.7-1.4,2.7-1.8s2.1-0.7,3.3-0.7c1.2,0,2.3,0.2,3.3,0.7c1,0.4,2,1.1,2.7,1.8
					c0.8,0.8,1.4,1.7,1.8,2.7C1275.8,95.7,1276,96.8,1276,98z M1271.4,98c0-0.5-0.1-1-0.3-1.5s-0.5-0.9-0.8-1.2
					c-0.4-0.4-0.8-0.6-1.2-0.8c-0.5-0.2-1-0.3-1.5-0.3s-1,0.1-1.5,0.3s-0.9,0.5-1.2,0.8c-0.3,0.4-0.6,0.8-0.8,1.2s-0.3,1-0.3,1.5
					s0.1,1,0.3,1.5c0.2,0.5,0.5,0.9,0.8,1.2c0.3,0.3,0.8,0.6,1.2,0.8c0.5,0.2,1,0.3,1.5,0.3s1-0.1,1.5-0.3c0.5-0.2,0.9-0.5,1.2-0.8
					c0.4-0.3,0.6-0.8,0.8-1.2C1271.3,99.1,1271.4,98.6,1271.4,98z"/>
				<path class="st7" d="M1280.1,106.4c-1.5,0-2.2-0.7-2.2-2.2c0-1.6,0.7-2.4,2.2-2.4h6.2c0.6,0,0.9-0.2,0.9-0.7s-0.3-0.7-0.9-0.7
					h-3.8c-3.3-0.1-4.9-1.9-4.9-5.3c0-3.6,1.8-5.3,5.3-5.3h5.1c1.5,0,2.2,0.7,2.2,2.2c0,1.6-0.7,2.4-2.2,2.4h-5.4
					c-0.6,0-0.9,0.2-0.9,0.7s0.3,0.7,0.9,0.7h3.8c3.3,0.1,4.9,1.9,4.9,5.3c0,3.6-1.7,5.3-5.2,5.3H1280.1z"/>
			</g>
		</g>
	</g>
	<path class="st7" d="M1256.4,89.6c-0.5-0.4-1-0.6-1.7-0.6c-0.5,0-0.9,0.1-1.2,0.2c-0.3,0.2-0.6,0.4-0.8,0.8l-3.9,5.9l-3.9-5.9
		c-0.2-0.4-0.5-0.7-0.8-0.8c-0.3-0.2-0.7-0.2-1.2-0.2c-0.6,0-1.2,0.2-1.7,0.6s-0.7,1-0.7,1.8v12.7c0,0.4,0.1,0.7,0.2,1
		s0.3,0.6,0.5,0.8c0.2,0.2,0.5,0.4,0.8,0.5s0.6,0.2,0.9,0.2c0.7,0,1.2-0.2,1.7-0.6s0.7-1,0.7-1.8v-5l1.6,3.1c0.5,0.7,1.1,1,2,1
		c0.8,0,1.4-0.3,1.8-1l1.5-3v4.9c0,0.8,0.2,1.4,0.7,1.8s1,0.6,1.7,0.6c0.3,0,0.6-0.1,0.9-0.2s0.5-0.3,0.8-0.5
		c0.2-0.2,0.4-0.5,0.5-0.8s0.2-0.6,0.2-1V91.4C1257.1,90.6,1256.9,90,1256.4,89.6z"/>
</g>
<path class="st0" d="M365.3,178.9h-4V69.4c0-35-28.4-63.4-63.4-63.4l0,0H65.8C30.8,6,2.4,34.4,2.4,69.4l0,0v601
	c0,35,28.4,63.4,63.4,63.4l0,0h232.1c35,0,63.4-28.4,63.4-63.4l0,0V256.9h4V178.9z"/>
<path class="st1" d="M299.2,22.5h-30.3c4.7,11.5-0.8,24.6-12.3,29.3c-2.7,1.1-5.6,1.7-8.5,1.7h-133c-12.4,0-22.5-10.1-22.5-22.5
	c0-2.9,0.6-5.8,1.7-8.5H66c-26.1,0-47.3,21.2-47.3,47.3l0,0v600.1c0,26.1,21.2,47.3,47.3,47.3l0,0h233.2c26.1,0,47.3-21.2,47.3-47.3
	l0,0V69.8C346.5,43.7,325.3,22.5,299.2,22.5z"/>
<path class="st8" d="M289.9,363.3H75.2c-1.9,0-3.6-2.5-3.6-5.7V339c0-3,1.6-5.7,3.6-5.7h214.7c1.9,0,3.6,2.5,3.6,5.7v18.7
	C293.6,360.8,291.9,363.3,289.9,363.3z"/>
<text transform="matrix(1 0 0 1 83.209 352.0051)" class="st9 st10 st11">Email</text>
<path class="st8" d="M289.9,416.3H75.2c-1.9,0-3.6-2.5-3.6-5.7V392c0-3,1.6-5.7,3.6-5.7h214.7c1.9,0,3.6,2.5,3.6,5.7v18.7
	C293.6,413.8,291.9,416.3,289.9,416.3z"/>
<text transform="matrix(1 0 0 1 83.209 405.0051)" class="st9 st10 st11">Senha</text>
<text transform="matrix(1 0 0 1 125.0344 488.3929)" class="st12 st10 st13" style="text-decoration: underline;">Esqueceu sua senha?</text>
<text transform="matrix(1 0 0 1 71.1432 526.8928)" class="st12 st10 st14">Política de Privacidade </text>
<text transform="matrix(1 0 0 1 220.0397 526.8928)" class="st12 st10 st14">Termos e Condições</text>
<path class="st2" d="M52.7,696.5"/>
<g>
	<g>
		<path class="st3" d="M238.8,464.3H122c-2.3,0-4.3-1.9-4.3-4.3v-18.5c0-2.3,1.9-4.3,4.3-4.3h116.8c2.3,0,4.3,1.9,4.3,4.3V460
			C243.1,462.4,241.2,464.3,238.8,464.3z"/>
	</g>
	<g>
		<path class="st15" d="M170.2,447.7h-4.6v1.9h4.2v1.5h-4.2v2.2h4.8v1.6h-6.6v-8.7h6.4L170.2,447.7L170.2,447.7z"/>
		<path class="st15" d="M176.9,448.8c0.4,0.3,0.6,0.9,0.6,1.7v4.3h-1.7V451c0-0.3,0-0.6-0.1-0.8c-0.2-0.3-0.5-0.5-0.9-0.5
			c-0.6,0-1,0.2-1.2,0.7c-0.1,0.3-0.2,0.6-0.2,1v3.5h-1.7v-6.4h1.6v0.9c0.2-0.3,0.4-0.6,0.6-0.7c0.3-0.3,0.8-0.4,1.3-0.4
			C175.9,448.3,176.5,448.5,176.9,448.8z"/>
		<path class="st15" d="M178.4,449.7v-1.2h0.9v-1.8h1.7v1.8h1v1.2h-1v3.4c0,0.3,0,0.4,0.1,0.5s0.3,0.1,0.6,0.1c0.1,0,0.1,0,0.2,0
			s0.1,0,0.2,0v1.3h-0.8c-0.8,0-1.3-0.1-1.6-0.4c-0.2-0.2-0.3-0.5-0.3-0.9v-4H178.4z"/>
		<path class="st15" d="M186.7,448.3h0.1v1.7c-0.1,0-0.2,0-0.3,0c-0.1,0-0.1,0-0.2,0c-0.7,0-1.1,0.2-1.4,0.7
			c-0.1,0.2-0.2,0.6-0.2,1.1v3.1H183v-6.5h1.6v1.1c0.3-0.4,0.5-0.7,0.7-0.9C185.7,448.4,186.1,448.3,186.7,448.3L186.7,448.3z"/>
		<path class="st15" d="M190.4,451c0.3,0,0.5-0.1,0.7-0.1c0.2-0.1,0.4-0.3,0.4-0.5c0-0.3-0.1-0.4-0.3-0.5c-0.2-0.1-0.5-0.2-0.8-0.2
			c-0.4,0-0.7,0.1-0.9,0.3c-0.1,0.1-0.2,0.3-0.2,0.6h-1.6c0-0.6,0.2-1,0.5-1.4c0.4-0.6,1.2-0.9,2.3-0.9c0.7,0,1.3,0.1,1.9,0.4
			s0.8,0.8,0.8,1.6v3c0,0.2,0,0.5,0,0.7s0,0.4,0.1,0.5s0.1,0.1,0.2,0.2v0.2h-1.8c-0.1-0.1-0.1-0.3-0.1-0.4s0-0.2,0-0.4
			c-0.2,0.3-0.5,0.5-0.8,0.6c-0.4,0.2-0.8,0.3-1.2,0.3c-0.6,0-1.1-0.2-1.5-0.5s-0.6-0.8-0.6-1.4c0-0.8,0.3-1.4,0.9-1.7
			c0.3-0.2,0.8-0.3,1.5-0.4L190.4,451z M191.5,451.8c-0.1,0.1-0.2,0.1-0.3,0.2c-0.1,0-0.3,0.1-0.5,0.1l-0.4,0.1
			c-0.4,0.1-0.6,0.1-0.8,0.2c-0.3,0.2-0.4,0.4-0.4,0.7c0,0.3,0.1,0.5,0.2,0.6c0.2,0.1,0.4,0.2,0.6,0.2c0.4,0,0.7-0.1,1-0.3
			c0.3-0.2,0.5-0.6,0.5-1.2L191.5,451.8L191.5,451.8z"/>
		<path class="st15" d="M198.2,448.3h0.1v1.7c-0.1,0-0.2,0-0.3,0c-0.1,0-0.1,0-0.2,0c-0.7,0-1.1,0.2-1.4,0.7
			c-0.1,0.2-0.2,0.6-0.2,1.1v3.1h-1.7v-6.5h1.6v1.1c0.3-0.4,0.5-0.7,0.7-0.9C197.2,448.4,197.6,448.3,198.2,448.3
			C198.1,448.3,198.2,448.3,198.2,448.3z"/>
	</g>
</g>
<g>
	<g>
		<g>
			<g>
				<path class="st6" d="M95.2,167c-0.5-1.2-0.7-2.4-0.7-3.7c0-1.4,0.3-2.6,0.9-3.7c0.6-1.1,1.3-2.1,2.3-2.9c0.9-0.8,2-1.4,3.2-1.9
					s2.5-0.7,3.8-0.7c1.5,0,3.1,0.5,4.7,1.5s2.8,2.6,3.7,4.7l11.9,30.5l12-30.5c0.9-2.2,2-3.7,3.5-4.7s3.1-1.5,5-1.5
					c1.3,0,2.5,0.2,3.8,0.7c1.2,0.5,2.3,1.1,3.2,1.9c1,0.8,1.7,1.8,2.3,2.9c0.6,1.1,0.8,2.3,0.8,3.7c0,0.6,0,1.3-0.1,1.9
					c-0.1,0.6-0.3,1.3-0.5,1.8l-20.6,49.9c-1.7,4.3-4.7,6.4-8.8,6.4c-4.1,0-7.3-2.1-9.6-6.4L95.2,167z"/>
				<path class="st6" d="M190,213.9h-24.3l-1.4,3.3c-1.7,4.1-4.5,6.2-8.3,6.2c-1.3,0-2.6-0.2-3.8-0.6c-1.2-0.4-2.3-1.1-3.3-1.9
					c-1-0.8-1.7-1.8-2.3-2.9c-0.6-1.1-0.9-2.3-0.9-3.7c0.1-0.6,0.1-1.2,0.1-1.8s0.2-1.3,0.5-2l21-50.2c0.8-2.2,2-3.7,3.5-4.7
					s3.2-1.5,5-1.5c1.3,0,2.5,0.2,3.8,0.7c1.2,0.5,2.3,1.1,3.2,1.9c1,0.8,1.7,1.8,2.3,2.9c0.6,1.1,0.8,2.3,0.8,3.7
					c0,0.6,0,1.3-0.1,1.9s-0.3,1.3-0.5,1.8l-12.4,29.7h9.4l-1.1-2.5c-0.3-0.6-0.5-1.2-0.6-1.9c-0.1-0.6-0.1-1.2-0.1-1.9
					c0-1.4,0.3-2.6,0.9-3.7c0.6-1.1,1.3-2.1,2.3-2.9c0.9-0.8,2-1.5,3.2-1.9c1.2-0.5,2.5-0.7,3.8-0.7c1.8,0,3.4,0.5,5,1.5
					c1.5,1,2.7,2.6,3.5,4.8l10.4,23.1c0.5,1.5,0.7,2.8,0.7,3.8c0,1.4-0.3,2.6-0.9,3.7c-0.6,1.1-1.4,2.1-2.3,2.9
					c-1,0.8-2.1,1.4-3.3,1.9c-1.2,0.4-2.5,0.6-3.8,0.6c-1.8,0-3.4-0.5-4.9-1.5s-2.6-2.6-3.5-4.7L190,213.9z"/>
				<path class="st6" d="M252.9,219.1l-16.6-25v19.7c0,3.1-0.9,5.4-2.8,7s-4.1,2.4-6.7,2.4c-1.3,0-2.5-0.2-3.7-0.6
					c-1.1-0.4-2.1-1-3-1.8s-1.5-1.8-2-3s-0.7-2.5-0.7-4.1v-50c0-3,0.9-5.4,2.8-7s4.1-2.5,6.6-2.5c1.9,0,3.4,0.3,4.7,1
					c1.3,0.6,2.3,1.7,3.1,3.3l17.2,26.2v-21c0-1.5,0.3-2.9,0.8-4.1c0.5-1.2,1.2-2.2,2.1-3s1.9-1.4,3-1.8c1.1-0.4,2.4-0.6,3.7-0.6
					c2.6,0,4.8,0.8,6.7,2.4c1.9,1.6,2.8,4,2.8,7v50c0,3.1-0.9,5.4-2.8,7s-4.1,2.4-6.7,2.4c-1.3,0-2.4-0.2-3.3-0.5s-1.7-0.7-2.4-1.2
					c-0.6-0.4-1.2-0.9-1.6-1.3c-0.4-0.5-0.7-0.8-1-1.2L252.9,219.1z"/>
			</g>
		</g>
		<g>
			<g>
				<path class="st7" d="M217.7,254.3c0,4.1-0.8,8-2.3,11.6c-1.6,3.6-3.7,6.8-6.4,9.4c-2.7,2.7-5.9,4.8-9.5,6.3s-7.5,2.3-11.6,2.3
					s-8-0.8-11.6-2.3s-6.7-3.6-9.4-6.3c-2.7-2.7-4.8-5.8-6.4-9.4s-2.3-7.5-2.3-11.6c0-4.1,0.8-8,2.3-11.6c1.6-3.6,3.7-6.8,6.4-9.4
					c2.7-2.7,5.8-4.8,9.4-6.4c3.6-1.6,7.4-2.3,11.6-2.3c4.1,0,8,0.8,11.6,2.3c3.6,1.6,6.8,3.7,9.5,6.4s4.8,5.8,6.4,9.4
					C216.9,246.3,217.7,250.2,217.7,254.3z M201.5,254.4c0-1.9-0.4-3.6-1.1-5.3c-0.7-1.6-1.7-3.1-2.9-4.3c-1.2-1.2-2.7-2.2-4.3-2.9
					c-1.6-0.7-3.4-1.1-5.3-1.1s-3.6,0.4-5.3,1.1c-1.6,0.7-3.1,1.7-4.3,2.9c-1.2,1.2-2.1,2.7-2.8,4.3c-0.7,1.6-1.1,3.4-1.1,5.3
					s0.4,3.6,1.1,5.3c0.7,1.6,1.7,3.1,2.8,4.3c1.2,1.2,2.6,2.1,4.3,2.9c1.6,0.7,3.4,1.1,5.3,1.1s3.6-0.4,5.3-1.1
					c1.6-0.7,3.1-1.7,4.3-2.9c1.2-1.2,2.2-2.6,2.9-4.3C201.2,258.1,201.5,256.3,201.5,254.4z"/>
				<path class="st7" d="M231.9,283.6c-5.2,0-7.7-2.6-7.7-7.8c0-5.6,2.6-8.4,7.8-8.4h21.5c2.1,0,3.2-0.8,3.2-2.4s-1.1-2.4-3.2-2.4
					h-13.1c-11.4-0.3-17.1-6.5-17.1-18.6c0-12.4,6.1-18.6,18.3-18.6h17.7c5.1,0,7.6,2.6,7.6,7.8c0,5.6-2.6,8.4-7.7,8.4h-18.7
					c-2.1,0-3.2,0.8-3.2,2.4c0,1.6,1.1,2.4,3.2,2.4h13.2c11.4,0.3,17.1,6.5,17.1,18.6c0,12.4-6,18.6-18.1,18.6H231.9z"/>
			</g>
		</g>
	</g>
	<path class="st7" d="M149.6,225.2c-1.7-1.4-3.6-2.2-5.9-2.2c-1.6,0-3,0.3-4.1,0.9c-1.1,0.6-2,1.5-2.7,2.9l-13.5,20.6l-13.5-20.6
		c-0.7-1.4-1.6-2.3-2.7-2.9c-1.1-0.6-2.5-0.9-4.1-0.9c-2.2,0-4.2,0.7-5.9,2.2c-1.7,1.4-2.5,3.5-2.5,6.2v44.1c0,1.4,0.2,2.6,0.7,3.6
		c0.4,1,1,1.9,1.8,2.6s1.7,1.2,2.7,1.6s2.1,0.5,3.2,0.5c2.3,0,4.3-0.7,5.9-2.1c1.7-1.4,2.5-3.5,2.5-6.2v-17.3l5.6,10.9
		c1.7,2.4,3.9,3.6,6.8,3.6s5-1.2,6.2-3.6l5.4-10.5v16.9c0,2.7,0.8,4.8,2.5,6.2c1.7,1.4,3.6,2.1,5.9,2.1c1.1,0,2.2-0.2,3.2-0.5
		c1-0.4,1.9-0.9,2.7-1.6c0.8-0.7,1.4-1.6,1.8-2.6s0.7-2.2,0.7-3.6v-44.1C152.1,228.7,151.2,226.7,149.6,225.2z"/>
</g>
</svg>
